<?xml version="1.0" encoding="UTF-8" standalone="no"?>
<!-- Created with Inkscape (http://www.inkscape.org/) -->

<svg
   xmlns:dc="http://purl.org/dc/elements/1.1/"
   xmlns:cc="http://creativecommons.org/ns#"
   xmlns:rdf="http://www.w3.org/1999/02/22-rdf-syntax-ns#"
   xmlns:svg="http://www.w3.org/2000/svg"
   xmlns="http://www.w3.org/2000/svg"
   xmlns:sodipodi="http://sodipodi.sourceforge.net/DTD/sodipodi-0.dtd"
   xmlns:inkscape="http://www.inkscape.org/namespaces/inkscape"
   width="200"
   height="200"
   viewBox="0 0 199.99999 200"
   id="svg4174"
   version="1.1"
   inkscape:version="0.91 r13725"
   sodipodi:docname="imgidra.svg">
  <defs
     id="defs4176" />
  <sodipodi:namedview
     id="base"
     pagecolor="#ffffff"
     bordercolor="#666666"
     borderopacity="1.0"
     inkscape:pageopacity="0.0"
     inkscape:pageshadow="2"
     inkscape:zoom="0.98994949"
     inkscape:cx="64.621921"
     inkscape:cy="136.98485"
     inkscape:document-units="px"
     inkscape:current-layer="layer1"
     showgrid="false"
     units="px"
     inkscape:window-width="1920"
     inkscape:window-height="1018"
     inkscape:window-x="-8"
     inkscape:window-y="-8"
     inkscape:window-maximized="1" />
  <metadata
     id="metadata4179">
    <rdf:RDF>
      <cc:Work
         rdf:about="">
        <dc:format>image/svg+xml</dc:format>
        <dc:type
           rdf:resource="http://purl.org/dc/dcmitype/StillImage" />
        <dc:title></dc:title>
      </cc:Work>
    </rdf:RDF>
  </metadata>
  <g
     inkscape:label="Capa 1"
     inkscape:groupmode="layer"
     id="layer1"
     transform="translate(0,-852.36216)">
    <path
       style="fill:#666666"
       d="m 82.774031,1051.444 c -41.66038,-7.6601 -74.4009388,-40.3993 -81.6163188,-81.61294 -1.53509002,-8.76833 -1.54532002,-26.48556 -0.0203,-35.23976 6.98942,-40.12304 39.2374988,-72.90778 79.5575088,-80.88148 9.08616,-1.79689 29.538749,-1.79689 38.624899,0 41.88369,8.28293 74.4142,42.81508 80.04563,84.97093 1.35358,10.13265 0.45473,27.99472 -1.8706,37.17248 -4.25636,16.79937 -11.14575,29.81877 -23.07449,43.60567 -12.86992,14.8746 -32.21502,26.3582 -52.18332,30.9768 -8.79961,2.0353 -30.817849,2.5979 -39.462969,1.0083 z m 26.599229,-7.1191 c 20.7515,-2.1796 41.54334,-12.3062 56.3171,-27.4292 12.59695,-12.8947 21.56268,-30.02575 25.0943,-47.94837 1.93789,-9.83462 1.73008,-26.7759 -0.44788,-36.51273 -7.86029,-35.14032 -33.68805,-62.01285 -68.03787,-70.79012 -25.734799,-6.57591 -52.390019,-1.87098 -75.388639,13.3069 -7.00043,4.61991 -19.510109,17.09402 -24.239569,24.17065 -10.98316,16.43395 -15.9479998,32.86867 -15.9479998,52.79146 0,25.63314 9.6104798,48.41701 28.0331488,66.45911 20.07297,19.6583 46.62319,28.8926 74.617409,25.9523 z m -58.484349,-22.0076 c -8.63382,-3.2231 -17.34455,-9.3149 -22.843099,-15.975 -5.4775,-6.63464 -11.89007,-19.60845 -14.32981,-28.99187 -1.66169,-6.39099 -1.94639,-9.0737 -1.94639,-18.34063 0,-9.30523 0.27863,-11.90944 1.95201,-18.24399 3.79999,-14.38482 11.68687,-26.01224 20.132279,-29.68051 4.92577,-2.13952 14.08976,-2.84223 19.03288,-1.4595 3.88327,1.08627 10.17417,5.47079 17.14305,11.94806 2.58421,2.40192 5.73346,4.9018 6.99831,5.55529 5.64668,2.91737 11.36544,0.26946 11.36544,-5.26245 0,-2.51457 -0.74316,-3.53708 -7.90005,-10.8695 -9.79596,-10.03627 -11.90597,-14.00149 -11.89601,-22.35553 0.009,-7.4733 2.62519,-13.39778 8.27336,-18.73476 15.76679,-14.89809 42.974699,-10.25717 51.824059,8.83975 1.60358,3.46053 1.97804,5.35887 1.95475,9.90964 -0.0435,8.51464 -2.26442,12.70986 -11.63019,21.96957 -4.13658,4.08973 -7.83118,8.25086 -8.21023,9.24693 -1.49054,3.91686 1.82396,8.44451 6.18184,8.44451 3.68373,0 6.70184,-1.81498 14.7148,-8.84896 10.48254,-9.20184 12.74897,-10.24368 22.24915,-10.22753 6.2569,0.0107 8.14714,0.30604 11.46022,1.79105 7.78536,3.48958 15.25001,14.05661 19.36933,27.41938 1.94172,6.29878 2.06833,7.55725 2.06833,20.55855 0,12.93929 -0.13332,14.28101 -2.02953,20.42478 -6.18624,20.04364 -16.134,33.01682 -30.86835,40.25642 -7.10343,3.4902 -11.12419,4.1182 -11.45839,1.7897 -0.15859,-1.105 0.78446,-2.2472 3.37129,-4.0831 13.68547,-9.7127 23.01435,-23.99811 25.71147,-39.37211 1.40072,-7.98437 0.60831,-24.86543 -1.43484,-30.56676 -0.875,-2.44166 -2.16325,-5.07124 -2.86277,-5.8435 -1.05273,-1.1622 -1.11185,-1.66009 -0.34313,-2.88988 1.24107,-1.98548 0.52162,-2.92206 -2.2446,-2.92206 -2.04769,0 -2.23723,-0.18948 -1.82621,-1.82562 0.59114,-2.35315 -0.45366,-2.94983 -3.48494,-1.99021 -1.33693,0.42323 -3.358,0.95604 -4.49128,1.18403 -2.87917,0.57923 -2.66518,2.46075 0.96352,8.47178 4.53898,7.51891 6.14492,13.26248 6.53036,23.3553 0.38637,10.11747 -0.62932,15.01639 -5.09246,24.56207 -5.71728,12.22806 -13.98598,22.32626 -23.4534,28.64266 -7.69226,5.132 -10.40498,3.2159 -4.56923,-3.2275 10.41266,-11.4969 17.10938,-26.92347 19.09547,-43.98845 0.45522,-3.91142 0.79618,-7.44854 0.75767,-7.86027 -0.0385,-0.41173 -0.15001,-2.66026 -0.24781,-4.99673 -0.0978,-2.33648 -0.42796,-4.49806 -0.73369,-4.80351 -0.30572,-0.30544 -0.55586,-1.13208 -0.55586,-1.83696 0,-0.71766 -0.98716,-1.69013 -2.24339,-2.21002 -1.897,-0.78504 -2.5386,-0.73516 -4.15514,0.32307 -3.21182,2.10257 -3.61216,3.95304 -2.64795,12.23938 1.70769,14.67575 -1.84667,29.52466 -9.86393,41.20829 -3.17284,4.6237 -10.22274,11.3554 -11.89226,11.3554 -2.01588,0 -1.79306,-1.2291 1.50804,-8.3181 3.7575,-8.06917 5.9439,-16.01701 6.72109,-24.43196 0.34054,-3.68729 0.81624,-7.02273 1.05708,-7.41207 0.24085,-0.38936 0.14652,-1.17898 -0.20964,-1.75473 -0.37041,-0.5988 -0.34839,-1.60532 0.0515,-2.35177 0.45678,-0.85274 0.41762,-1.47869 -0.11299,-1.80635 -0.44661,-0.27577 -0.61488,-1.28617 -0.37392,-2.24534 0.24095,-0.95917 0.0997,-1.95291 -0.31393,-2.2083 -0.41362,-0.2554 -0.75203,-1.11822 -0.75203,-1.91737 0,-1.06454 -0.55088,-1.47673 -2.0605,-1.54171 -5.62759,-0.24225 -6.93057,1.37314 -6.93142,8.59334 -10e-4,14.70331 -2.9268,30.47113 -7.58253,40.87406 -2.5636,5.7282 -4.09356,6.6377 -4.77057,2.836 -0.56065,-3.1484 0.0314,-41.33747 0.65653,-42.34804 0.26164,-0.42296 -0.53978,-1.49145 -1.78092,-2.37443 l -2.256639,-1.60541 -2.24782,1.59914 c -2.46372,1.75274 -2.66944,2.27371 -1.39905,3.54295 0.50516,0.50471 0.60608,1.3987 0.2493,2.20836 -0.3297,0.7482 -0.46299,6.9187 -0.29617,13.71222 0.52392,21.33771 0.40847,26.04221 -0.66502,27.09991 -1.39019,1.3697 -2.52029,-0.3586 -5.42022,-8.2894 -3.51164,-9.60373 -5.14416,-18.58139 -5.66665,-31.16236 -0.56807,-13.67872 -0.9647,-14.59765 -6.30058,-14.59765 -3.55498,0 -3.73172,0.0961 -3.78528,2.05864 -0.0309,1.13225 -0.20745,3.91142 -0.39233,6.17593 -0.5219,6.39228 -0.39591,8.81986 0.85474,16.46914 1.40178,8.57358 3.4471,15.1375 6.81721,21.8778 1.38441,2.7689 2.51712,5.548 2.51712,6.1759 0,3.4031 -6.32072,-0.9652 -11.65501,-8.055 -9.34959,-12.42648 -13.46505,-27.9191 -11.59785,-43.66009 0.99229,-8.36526 0.67209,-9.8257 -2.62788,-11.98597 -2.47454,-1.61992 -6.33805,-0.21739 -6.33805,2.30083 0,0.91075 -0.21413,1.86987 -0.47586,2.13136 -1.03181,1.03087 -1.01503,12.76716 0.0282,19.73565 2.45499,16.39839 8.22258,29.11282 18.73354,41.29742 1.89367,2.1952 3.44305,4.469 3.44305,5.053 0,1.9097 -3.40434,1.1326 -7.97876,-1.8213 -14.18032,-9.1569 -26.80967,-29.3594 -28.65492,-45.83776 -1.22352,-10.92613 1.08882,-21.5906 6.69505,-30.87745 4.29188,-7.1096 3.96345,-8.17238 -2.79052,-9.02983 -3.8249,-0.48559 -3.88561,-0.46224 -4.121,1.58473 -0.20209,1.75728 -0.54792,2.04573 -2.24313,1.87093 -2.49254,-0.25702 -3.21036,0.78767 -1.95486,2.84506 0.82962,1.35951 0.75499,1.74993 -0.54244,2.83769 -3.359499,2.81658 -6.092739,17.78897 -5.218269,28.58508 1.22281,15.09663 6.555889,27.61133 16.016589,37.58475 3.23894,3.4145 7.78513,7.5557 10.10265,9.2026 6.24257,4.4362 5.05786,7.8624 -1.82959,5.2912 z m 42.00032,-129.07173 c 0,-3.35791 -9.95114,-13.58707 -13.21779,-13.58707 -2.31894,0 -2.23015,1.23585 0.37941,5.28077 2.46566,3.82189 5.48827,6.75156 8.71737,8.44937 2.98737,1.5707 4.12101,1.53134 4.12101,-0.14307 z m 18.807029,-0.74764 c 7.58275,-4.80449 13.26287,-16.01438 6.28078,-12.39529 -5.47998,2.84047 -11.60088,9.78345 -11.60088,13.15896 0,1.91395 1.41459,1.71089 5.3201,-0.76367 z"
       id="path4157"
       inkscape:connector-curvature="0"
       inkscape:export-xdpi="90"
       inkscape:export-ydpi="90" />
  </g>
</svg>
