<?xml version="1.0" encoding="UTF-8" standalone="no"?>
<!-- Generator: Adobe Illustrator 19.0.0, SVG Export Plug-In . SVG Version: 6.00 Build 0)  -->

<svg
   xmlns:dc="http://purl.org/dc/elements/1.1/"
   xmlns:cc="http://creativecommons.org/ns#"
   xmlns:rdf="http://www.w3.org/1999/02/22-rdf-syntax-ns#"
   xmlns:svg="http://www.w3.org/2000/svg"
   xmlns="http://www.w3.org/2000/svg"
   xmlns:sodipodi="http://sodipodi.sourceforge.net/DTD/sodipodi-0.dtd"
   xmlns:inkscape="http://www.inkscape.org/namespaces/inkscape"
   version="1.1"
   id="Capa_1"
   x="0px"
   y="0px"
   viewBox="0 0 200 200"
   xml:space="preserve"
   inkscape:version="0.91 r13725"
   sodipodi:docname="imgncl.svg"
   width="200"
   height="200"><metadata
   id="metadata45"><rdf:RDF><cc:Work
       rdf:about=""><dc:format>image/svg+xml</dc:format><dc:type
         rdf:resource="http://purl.org/dc/dcmitype/StillImage" /><dc:title></dc:title></cc:Work></rdf:RDF></metadata><defs
   id="defs43" /><sodipodi:namedview
   pagecolor="#ffffff"
   bordercolor="#666666"
   borderopacity="1"
   objecttolerance="10"
   gridtolerance="10"
   guidetolerance="10"
   inkscape:pageopacity="0"
   inkscape:pageshadow="2"
   inkscape:window-width="1920"
   inkscape:window-height="1018"
   id="namedview41"
   showgrid="false"
   inkscape:zoom="2.0344828"
   inkscape:cx="-17.445487"
   inkscape:cy="116.49504"
   inkscape:window-x="-8"
   inkscape:window-y="-8"
   inkscape:window-maximized="1"
   inkscape:current-layer="Capa_1" />

<g
   id="g11"
   transform="translate(0,142)">
</g>
<g
   id="g13"
   transform="translate(0,142)">
</g>
<g
   id="g15"
   transform="translate(0,142)">
</g>
<g
   id="g17"
   transform="translate(0,142)">
</g>
<g
   id="g19"
   transform="translate(0,142)">
</g>
<g
   id="g21"
   transform="translate(0,142)">
</g>
<g
   id="g23"
   transform="translate(0,142)">
</g>
<g
   id="g25"
   transform="translate(0,142)">
</g>
<g
   id="g27"
   transform="translate(0,142)">
</g>
<g
   id="g29"
   transform="translate(0,142)">
</g>
<g
   id="g31"
   transform="translate(0,142)">
</g>
<g
   id="g33"
   transform="translate(0,142)">
</g>
<g
   id="g35"
   transform="translate(0,142)">
</g>
<g
   id="g37"
   transform="translate(0,142)">
</g>
<g
   id="g39"
   transform="translate(0,142)">
</g>
<path
   style="fill:#666666"
   d="m 91.574242,199.88066 c -2.3038,-0.1927 -6.3642,-0.7176 -8.6504,-1.1183 -16.53629,-2.898 -31.93074,-9.8017 -44.98241,-20.1724 -2.75157,-2.1864 -5.80418,-4.8558 -5.80418,-5.0755 0,-0.1909 8.20904,-8.3717 8.35031,-8.3216 0.0647,0.023 0.63583,0.4982 1.26924,1.056 6.71393,5.9127 15.02467,11.1682 23.19636,14.6689 9.27957,3.9753 18.43898,6.2027 28.67688,6.9738 1.2534,0.094 2.3463,0.2275 2.4286,0.2959 0.1224,0.1015 0.1445,1.1858 0.1209,5.9415 l -0.029,5.8173 -1.7301,0.014 c -0.9516,0.01 -2.2324,-0.028 -2.8463,-0.08 z m 12.408298,0.047 c -0.041,-0.041 -0.074,-2.6716 -0.074,-5.846 0,-4.8801 0.025,-5.7922 0.1603,-5.9047 0.094,-0.078 1.0475,-0.1996 2.3161,-0.2949 19.583,-1.4712 37.676,-9.1137 52.2271,-22.0608 0.4661,-0.4148 0.8933,-0.7541 0.9493,-0.7541 0.1526,0 8.4164,8.2952 8.4164,8.4484 0,0.073 -0.4395,0.5247 -0.9767,1.0046 -12.9332,11.5552 -27.9321,19.3563 -44.5638,23.1783 -1.5642,0.3595 -2.3152,0.513 -5.0228,1.027 -1.9447,0.3691 -6.5331,0.9563 -9.0751,1.1613 -1.6065,0.1296 -4.2429,0.1543 -4.3564,0.041 z m -6.827298,-15.9525 c -0.3684,-0.023 -1.5739,-0.094 -2.6789,-0.1595 -14.9394,-0.8798 -28.72588,-5.7776 -42.51049,-15.1022 -0.91191,-0.6169 -1.68096,-1.1813 -1.70899,-1.2544 -0.028,-0.073 0.33787,-0.6788 0.81312,-1.3461 0.47527,-0.6672 6.06951,-8.6466 12.43166,-17.7319 6.36217,-9.0853 12.91791,-18.4273 14.5683,-20.76 1.6504,-2.3327 3.5991,-5.0952 4.3305,-6.1387 1.9978,-2.8508 2.5356,-3.5322 2.7575,-3.4936 0.1598,0.028 7.2965,7.9191 13.3857,14.8011 0.825,0.9325 1.533698,1.6954 1.574898,1.6954 0.1494,0 5.5243,-5.9252 11.2653,-12.4187 2.1506,-2.4325 3.7039,-4.1001 3.8191,-4.1001 0.2322,0 3.1981,4.1502 16.5513,23.1597 7.5328,10.7236 14.8301,21.1015 16.6735,23.7123 0.9298,1.3168 1.6905,2.4556 1.6905,2.5306 0,0.1606 -4.6372,3.2788 -6.8087,4.5785 -8.2628,4.9452 -16.3006,8.2085 -24.9468,10.1282 -5.5521,1.2328 -10.8767,1.8211 -17.1893,1.8992 -1.841698,0.023 -3.649898,0.023 -4.018198,0 z m -71.56938,-16.9826 c -12.202924,-13.6569 -20.3001134,-29.7891 -23.7951534,-47.4077 -0.79337995,-3.9994 -1.20531995,-7.0057 -1.57530995,-11.4961 -0.25718,-3.1214 -0.27385,-3.8681 -0.0904,-4.0516 0.10065,-0.1006 1.53977995,-0.1339 5.79050995,-0.1339 4.7798394,0 5.6771794,0.025 5.7895894,0.1603 0.078,0.094 0.19819,1.0289 0.29056,2.2602 0.57266,7.6336 1.908984,14.3937 4.232034,21.4089 3.76778,11.378 9.93479,22.0403 17.88956,30.9296 0.44576,0.4981 0.81047,0.9504 0.81047,1.0051 0,0.1509 -8.1856,8.3018 -8.33715,8.3018 -0.0726,0 -0.52475,-0.4395 -1.00471,-0.9766 z m 143.646578,-3.1816 c -2.2865,-2.2869 -4.1572,-4.2035 -4.1572,-4.2589 0,-0.055 0.3393,-0.4821 0.754,-0.9481 5.6029,-6.2964 10.5604,-13.8163 13.9964,-21.2308 4.6643,-10.0651 7.2389,-19.9708 8.07,-31.0494 0.093,-1.2398 0.2124,-2.166 0.2914,-2.2612 0.1142,-0.1375 0.9903,-0.157 5.9514,-0.1324 l 5.8176,0.029 0.037,1.2278 c 0.088,2.9373 -0.6389,9.2062 -1.6688,14.398 -3.0765,15.5084 -9.8759,30.1862 -19.7253,42.5804 -2.1864,2.7514 -4.856,5.8039 -5.0757,5.8039 -0.073,0 -2.004,-1.8712 -4.2904,-4.1582 z m -131.136738,-7.4217 c -4.21061,-4.5756 -7.25194,-8.7166 -10.51327,-14.3143 -1.26476,-2.1709 -3.48172,-6.4903 -3.48172,-6.7836 0,-0.3216 2.90759,-3.513 11.15376,-12.2424 1.68376,-1.7825 4.17007,-4.4445 5.52512,-5.9157 3.86885,-4.2003 6.86336,-7.3829 9.50964,-10.107 1.34293,-1.3824 3.64239,-3.8184 5.10994,-5.41321 3.13116,-3.402896 5.64238,-5.969096 5.84107,-5.969096 0.23124,0 13.45456,15.503006 13.5129,15.842506 0.0399,0.232 -3.17266,4.4506 -20.19147,26.5146 -6.3375,8.2162 -11.27777,14.6525 -13.3833,17.436 -0.89165,1.1788 -1.69932,2.1424 -1.79851,2.1458 -0.099,0 -0.67689,-0.5337 -1.28416,-1.1936 z m 122.213038,0.5078 c -0.3042,-0.3867 -1.2994,-1.6825 -2.2116,-2.8795 -4.0351,-5.295 -12.9216,-16.848 -23.9957,-31.1959 -6.4384,-8.3418 -8.5392,-11.1076 -8.5381,-11.241 0,-0.3746 13.2312,-15.847206 13.6048,-15.913206 0.1157,-0.02 1.0368,0.8783 2.5169,2.4555 1.2839,1.3683 4.6991,4.999006 7.5894,8.068406 2.8902,3.0693 6.6602,7.0874 8.3779,8.929 1.7176,1.8416 4.384,4.6805 5.9253,6.3085 8.0807,8.5359 12.4413,13.2711 12.5993,13.6817 0.091,0.2377 -0.03,0.5539 -0.8204,2.1427 -3.552,7.1373 -7.8868,13.5036 -12.8567,18.8821 -0.7104,0.7689 -1.3697,1.413 -1.465,1.4314 -0.1026,0.02 -0.3983,-0.2529 -0.7261,-0.6697 z M 22.932762,132.85936 c -1.55532,-3.7223 -3.21877,-8.7669 -4.22993,-12.828 -1.00284,-4.0277 -1.84911,-9.2087 -2.13302,-13.0587 -0.0362,-0.4911 -0.12011,-1.3817 -0.18643,-1.9791 -0.14951,-1.3466 -0.13459,-1.3747 1.41087,-2.6569 0.6139,-0.50931 1.74404,-1.48501 2.51142,-2.16821 3.42097,-3.045496 5.68351,-5.040396 9.43178,-8.316096 2.21005,-1.9314 6.02742,-5.2972 8.48303,-7.4797 5.96594,-5.3023 7.61811,-6.7266 7.74965,-6.6809 0.14063,0.049 2.24685,2.4825 8.47529,9.793 2.74044,3.2165 5.11871,6.004 5.28503,6.1945 0.16633,0.1904 0.30446,0.4078 0.30695,0.4829 0.006,0.1918 -1.05311,1.4004 -3.39699,3.8751 -1.99017,2.101196 -6.59981,7.002006 -15.07079,16.022806 -13.1594,14.0135 -18.03844,19.134 -18.27229,19.1767 -0.13191,0.024 -0.24627,-0.094 -0.36457,-0.3774 z m 153.035478,-0.5802 c -0.4855,-0.5362 -2.2714,-2.4314 -3.9685,-4.2117 -1.6972,-1.7802 -3.7841,-3.9901 -4.6375,-4.9109 -3.4048,-3.6736 -9.7634,-10.4349 -14.0654,-14.9562 -2.4988,-2.6261 -8.1351,-8.638006 -10.8533,-11.576506 -1.2179,-1.3165 -2.0361,-2.2901 -2.0361,-2.4226 0,-0.2283 2.7478,-3.524 9.2579,-11.1039 1.9987,-2.3272 3.835,-4.4708 4.0806,-4.7636 0.5678,-0.6769 0.6968,-0.7262 1.0506,-0.4015 0.1588,0.1457 2.1221,1.8673 4.3629,3.8256 2.2407,1.9584 7.8663,6.8988 12.5013,10.9787 4.6349,4.0799 9.256,8.147196 10.2689,9.038496 1.0129,0.89121 1.8828,1.67191 1.933,1.73481 0.1333,0.1672 0.01,2.7007 -0.2564,5.137 -0.8233,7.617 -2.3148,13.9645 -4.9176,20.9274 -1.0362,2.7721 -1.4455,3.6834 -1.6535,3.6816 -0.1013,0 -0.5814,-0.4404 -1.0669,-0.9767 z m -79.929198,-5.2365 c -2.2101,-2.3685 -5.5503,-5.946 -7.4227,-7.9498 -9.7648,-10.4499 -19.87834,-21.290606 -28.01968,-30.034206 -7.93348,-8.5203 -12.48856,-13.4227 -27.94835,-30.0796 -1.76624,-1.903 -3.23774,-3.5247 -3.26999,-3.6038 -0.15868,-0.3888 4.24185,-6.4007 7.34584,-10.0357 1.76004,-2.0611 5.24434,-5.6138 5.50577,-5.6138 0.22466,0 3.74549,2.6719 23.96855,18.1894 3.39754,2.6069 7.78465,5.9642 9.74914,7.4606 1.96452,1.4964 3.79202,2.8906 4.06112,3.0983 0.2691,0.2076 0.5294,0.3527 0.5784,0.3224 0.1759,-0.1087 2.8925,-5.3436 7.5853,-14.6168 5.3344,-10.5411 5.9943,-11.7094 7.477,-13.238 1.0826,-1.1162 1.8047,-1.5203 3.2917,-1.8422 1.227998,-0.2658 6.377198,-0.2659 9.375898,-2e-4 3.1777,0.2816 6.1255,0.6076 7.2352,0.8001 2.7804,0.4824 4.4803,1.5324 5.1134,3.1584 0.2014,0.5171 0.2471,0.8708 0.2549,1.9696 0,0.7367 -0.029,1.4775 -0.076,1.6463 -0.1104,0.3947 -0.4546,0.4045 -1.186,0.034 -0.2964,-0.1502 -0.8771,-0.332 -1.2903,-0.404 -1.8674,-0.3251 -5.3076,0.6251 -6.7476,1.8638 -0.6234,0.5363 -1.1266,1.3246 -1.1266,1.7649 0,0.3865 1.2394,2.9675 5.0412,10.4977 3.2989,6.5341 4.1883,8.2479 4.2994,8.2842 0.1356,0.044 6.6609,-4.9081 23.6985,-17.9855 4.8806,-3.7461 10.1043,-7.7538 11.6084,-8.9059 1.5438,-1.1826 2.8372,-2.0953 2.9701,-2.0959 0.3941,0 4.3321,4.1369 6.902,7.2538 1.9551,2.3711 5.9777,7.9685 5.9777,8.3178 0,0.072 -1.0158,1.2303 -2.2573,2.575 -7.2038,7.8022 -17.9559,19.3731 -29.549,31.7991 -15.2413,16.336406 -17.9235,19.213606 -23.7261,25.451506 -6.9483,7.4695 -13.9973,15.0727 -14.6128,15.7616 -0.2331,0.2609 -0.5058,0.472 -0.6061,0.469 -0.1003,0 -1.990598,-1.9434 -4.200598,-4.312 z m -79.67724,-25.89251 c -0.20055,-0.2006 0.0809,-6.637996 0.4292,-9.814896 1.2895,-11.7636 4.37568,-21.4858 10.13798,-31.9371 0.80747,-1.4645 1.30821,-2.2598 1.42317,-2.2601 0.0976,-4e-4 2.21747,2.3795 4.71095,5.2886 8.93571,10.4251 11.68707,13.7081 11.68707,13.9454 0,0.096 -1.19292,1.2179 -2.65094,2.4928 -1.45802,1.2748 -5.84046,5.1338 -9.73874,8.5756 -10.31312,9.1054 -15.68998,13.784096 -15.84086,13.784096 -0.0459,0 -0.1169,-0.034 -0.15783,-0.074 z m 166.768038,-0.3434 c -0.2611,-0.2297 -1.6802,-1.500796 -3.1535,-2.824496 -1.4734,-1.3237 -4.5122,-4.0134 -6.753,-5.9771 -4.7435,-4.157 -10.1596,-8.9075 -14.5391,-12.7525 -1.7032,-1.4953 -3.0966,-2.7908 -3.0966,-2.8788 0,-0.3418 16.1147,-19.2364 16.4062,-19.2364 0.3232,0 3.5042,5.9742 5.0721,9.5256 4.0531,9.1808 6.3456,19.056 6.8702,29.5947 0.1994,4.004396 0.1524,4.966796 -0.2426,4.966796 -0.049,0 -0.3026,-0.188 -0.5637,-0.4178 z M 0.12499865,96.068054 c -0.175,-0.175 -0.16882,-0.7956 0.0348,-3.4935 1.64484995,-21.7924 10.11926935,-41.9645 24.57326335,-58.493 0.88807,-1.0156 1.69173,-1.876 1.78589,-1.9122 0.11934,-0.046 1.40245,1.1652 4.23418,3.9959 2.23463,2.2339 4.06296,4.1033 4.06296,4.1542 0,0.051 -0.55911,0.7292 -1.24247,1.5074 -5.05899,5.7606 -9.66075,12.7023 -13.00043,19.611 -1.02554,2.1215 -2.37001,5.2223 -2.99898,6.9167 -0.22787,0.6138 -0.48147,1.2668 -0.56355,1.4509 -0.21215,0.476 -1.29072,3.8456 -1.82208,5.6923 -1.704344,5.9235 -2.707134,11.6078 -3.198074,18.1279 -0.0944,1.2534 -0.22713,2.3458 -0.29502,2.4276 -0.17144,0.2066 -11.36440935,0.2209 -11.57050935,0.015 z m 188.07164135,-0.014 c -0.068,-0.082 -0.2015,-1.1752 -0.2958,-2.4286 -0.8789,-11.6728 -3.6014,-21.8135 -8.7279,-32.51 -0.5338,-1.1137 -1.0281,-2.1003 -1.0983,-2.1924 -0.07,-0.092 -0.3942,-0.6697 -0.7197,-1.2836 -2.6112,-4.9235 -6.928,-11.1184 -10.9549,-15.7209 -0.6366,-0.7276 -1.1762,-1.374 -1.1991,-1.4366 -0.051,-0.1382 8.1335,-8.346 8.3219,-8.346 0.1356,0 1.1149,1.0608 2.8336,3.0693 12.1929,14.2491 20.2154,31.9923 22.861,50.5607 0.5355,3.7582 0.8326,7.264 0.7756,9.1523 l -0.037,1.2277 -5.8175,0.029 c -4.756,0.024 -5.8403,0 -5.9419,-0.1208 z m -29.3163,-61.7552 c -2.381,-2.1939 -6.549,-5.4331 -9.7666,-7.5902 -12.8525,-8.61621 -27.1612,-13.54011 -42.7582,-14.713811 -1.2334,-0.093 -2.1975,-0.2157 -2.2891,-0.2917 -0.1329,-0.1102 -0.1583,-1.0411 -0.1583,-5.7875998 0,-4.2505 0.033,-5.6896 0.1339,-5.7902 0.1761,-0.1761 0.9093,-0.169 3.5445,0.034 15.7545,1.2162 30.2395,5.8137 43.8712,13.9245008 3.5177,2.093 7.9427,5.18511 11.3875,7.95721 1.8869,1.5185 5.0188,4.2681 5.0988,4.4765 0.046,0.1193 -1.1816,1.4187 -4.052,4.2897 -2.2647,2.2652 -4.1681,4.1163 -4.2298,4.1135 -0.062,0 -0.4135,-0.2829 -0.7819,-0.6223 z m -122.713688,-3.547 c -2.83093,-2.8316 -4.0419,-4.1146 -3.99611,-4.2339 0.0858,-0.2236 3.31411,-3.0439 5.38333,-4.7031 11.6273,-9.32281 25.31198,-15.9790108 39.73317,-19.3262108 5.1003,-1.1838 9.8913,-1.9159 15.241,-2.3289 2.6352,-0.2034 3.3684,-0.2105 3.5444,-0.034 0.2047,0.2046 0.192,11.3982998 -0.013,11.5684998 -0.081,0.067 -1.1733,0.1992 -2.4277,0.2935 -6.4238,0.483101 -12.2412,1.509701 -18.13048,3.199601 -12.34101,3.5411 -24.04599,9.93201 -33.6727,18.38531 -0.77818,0.6833 -1.45652,1.2424 -1.50742,1.2424 -0.0509,0 -1.92038,-1.8283 -4.15438,-4.0628 z"
   id="path4159"
   inkscape:connector-curvature="0"
   inkscape:export-filename="C:\AppServ\www\wordpress\wp-content\themes\web\assets\images\clientes\imgncl3.png"
   inkscape:export-xdpi="90"
   inkscape:export-ydpi="90" /><path
   style="fill:#666666"
   d="m -116.31205,200.20546 c -1.2998,-0.018 -2.4848,-0.09 -2.6333,-0.1581 -0.1486,-0.068 -1.3032,-0.1955 -2.5659,-0.2824 -6.2021,-0.4265 -13.2284,-1.6774 -19.6491,-3.4981 -2.4891,-0.7057 -7.0276,-2.2114 -8.1703,-2.7105 -0.3713,-0.1622 -1.1006,-0.4481 -1.6205,-0.6353 -0.5199,-0.1872 -1.2796,-0.4917 -1.6881,-0.6766 -0.4085,-0.1849 -1.1377,-0.5156 -1.6205,-0.7348 -0.4828,-0.2193 -1.1513,-0.5214 -1.4855,-0.6713 -0.6586,-0.2953 -2.8505,-1.39249 -4.8026,-2.4038 -11.5877,-6.0038 -23.2468,-15.8024 -31.8157,-26.739 -3.5753,-4.5631 -7.192,-10.1327 -9.5119,-14.6478 -2.0147,-3.9212 -2.1205,-4.1382 -2.9631,-6.0752 -0.1938,-0.4455 -0.4634,-1.053 -0.5991,-1.34999 -0.1357,-0.297 -0.6707,-1.6032 -1.189,-2.9026 -3.4515,-8.6542 -5.9059,-19.4682 -6.5267,-28.7557 -0.087,-1.2994 -0.2104,-2.4202 -0.2746,-2.4908 -0.1526,-0.1676 -0.1526,-10.376192 0,-10.543692 0.064,-0.071 0.1878,-1.1914 0.2746,-2.4908 0.6937,-10.3792 3.7021,-22.6606 7.8044,-31.8608 0.1821,-0.4084 0.4369,-0.9855 0.5663,-1.2826 0.7501,-1.7225 0.9484,-2.1276 2.9072,-5.9401 2.3199,-4.5151 5.9366,-10.084701 9.5119,-14.647901 8.5689,-10.9365 20.228,-20.7352 31.8157,-26.7389 1.9521,-1.0113 4.144,-2.1084998 4.8026,-2.4037998 0.3342,-0.1499 1.0027,-0.452 1.4855,-0.6713 0.4828,-0.2192 1.212,-0.5499 1.6205,-0.7348 0.4085,-0.1849 1.1682,-0.4894 1.6881,-0.6766 0.5199,-0.1872 1.2492,-0.4731 1.6205,-0.6353 1.1427,-0.4991 5.6812,-2.0048 8.1703,-2.7106 6.4304,-1.8234 13.3957,-3.0627 19.7166,-3.50799998 1.2998,-0.092 2.434,-0.2213 2.5203,-0.2883 0.2057,-0.1595 10.5541,-0.1595 10.7597,0 0.086,0.067 1.2205,0.1967 2.5203,0.2883 6.320902,0.44529998 13.286205,1.68459998 19.716705,3.50799998 2.489,0.7058 7.0275,2.2115 8.1702,2.7106 0.3714,0.1622 1.1007,0.4481 1.6206,0.6353 0.5199,0.1872 1.2795,0.4917 1.688,0.6766 0.4086,0.1849 1.1378,0.5156 1.6206,0.7348 0.4828,0.2193 1.1513,0.5214 1.4855,0.6713 0.6586,0.2953 2.8505,1.3924998 4.8025,2.4037998 11.5878,6.0037 23.2468,15.8024 31.8157,26.7389 3.5753,4.5632 7.192,10.132801 9.5119,14.647901 2.0147,3.9212 2.1206,4.1382 2.9632,6.0752 0.1938,0.4455 0.4634,1.053 0.5991,1.35 0.1357,0.297 0.6707,1.6031 1.1889,2.9026 3.4515,8.6542 5.906,19.4682 6.5267,28.7557 0.087,1.2994 0.2105,2.4202 0.2747,2.4908 0.064,0.071 0.1168,2.4428 0.1168,5.271802 0,2.82898 -0.053,5.20138 -0.1168,5.27188 -0.064,0.071 -0.1878,1.1914 -0.2747,2.4908 -0.6937,10.37921 -3.702,22.6605 -7.8044,31.8608 -0.1821,0.4084 -0.4369,0.9855 -0.5662,1.2825 -0.7502,1.7226 -0.9484,2.1277 -2.9073,5.9402 -2.3199,4.51511 -5.9366,10.08471 -9.5119,14.6478 -8.5689,10.9366 -20.2279,20.7352 -31.8157,26.739 -1.952,1.0113 -4.1439,2.10851 -4.8025,2.40381 -0.3342,0.1499 -1.0027,0.45199 -1.4855,0.67129 -0.4828,0.2192 -1.212,0.5499 -1.6206,0.7348 -0.4085,0.1849 -1.1681,0.4894 -1.688,0.6766 -0.5199,0.1872 -1.2492,0.4731 -1.6206,0.6353 -1.1427,0.4991 -5.6812,2.00481 -8.1702,2.7105 -6.4207,1.8207 -13.447003,3.0716 -19.649105,3.49811 -1.2627,0.087 -2.4174,0.21029 -2.5659,0.2744 -0.3024,0.1303 -4.573,0.2172 -8.1703,0.1661 z m 10.8712,-2.3812 c 23.399805,-2.0277 44.708405,-11.9129 61.165005,-28.375 15.4972,-15.5022 25.3204,-35.5927 27.9509,-57.1649 0.5557,-4.5572 0.6823,-6.7991 0.6823,-12.08278 0,-5.283702 -0.1266,-7.525502 -0.6823,-12.082802 -2.6305,-21.5721 -12.4537,-41.6626 -27.9509,-57.164801 -15.4562,-15.4614 -35.5648,-25.2992998 -57.113605,-27.9422998 -4.5912,-0.5631 -6.7442,-0.6843 -12.1541,-0.6843 -5.4099,0 -7.5629,0.1212 -12.1541,0.6843 -30.4976,3.7406 -57.5348,21.7739998 -72.955,48.6599008 -7.1952,12.5454 -11.4253,26.4142 -12.6194,41.3749 -0.2243,2.8101 -0.2243,11.500182 0,14.310292 1.1941,14.9607 5.4242,28.8295 12.6194,41.3748 12.8577,22.4181 33.8529,38.8261 58.5662,45.7702 6.2431,1.7542 13.1785,2.9645 19.3179,3.371 1.2256,0.081 2.5321,0.1693 2.9035,0.196 1.5543,0.1114 10.304,-0.061 12.4242,-0.2445 z m -12.7618,-2.2476 c -2.3626,-0.1458 -6.3359,-0.5832 -8.6429,-0.95149 -3.0495,-0.48691 -7.4275,-1.4919 -7.4275,-1.7049 0,-0.047 0.6382,-2.0148 1.4183,-4.3727 2.8897,-8.7343 4.7698,-16.1363 5.4109,-21.3027 0.2111,-1.7013 0.2605,-4.4692 0.08,-4.4692 -0.1413,0 -2.1027,2.7794 -3.452,4.8917 -3.1737,4.9682 -5.5355,9.5557 -9.8085,19.0517 l -1.9352,4.3005 -0.6425,-0.085 c -0.9583,-0.127 -4.1044,-1.0758 -5.899,-1.7789 -1.5317,-0.6001 -6.9921,-3.2195 -7.5057,-3.6006 -0.2449,-0.1817 -0.2358,-0.2297 0.2524,-1.3249 5.1658,-11.59 11.3507,-21.4286 19.8429,-31.5647 4.5448,-5.4247 5.3533,-6.5759 6.6096,-9.4108 0.8878,-2.0035 1.6516,-4.5094 1.3743,-4.5094 -0.034,0 -1.8722,0.8755 -4.0851,1.9456 -2.2129,1.0701 -5.1739,2.4381 -6.5801,3.04 -2.9955,1.2823 -4.2995,1.9709 -5.936,3.1346 -1.3563,0.9644 -3.0066,2.6664 -3.6132,3.7264 l -0.4092,0.715 1.1163,1.1781 c 3.2377,3.4171 3.6517,6.0025 1.3148,8.2119 -0.8624,0.8154 -1.825,1.4492 -2.0625,1.358 -0.094,-0.036 -0.205,-0.4049 -0.2486,-0.8278 -0.088,-0.8529 -0.6701,-2.2049 -1.2385,-2.8768 -0.9117,-1.0778 -2.4149,-1.7476 -4.2152,-1.8781 -1.0199,-0.074 -1.1481,-0.054 -1.7006,0.2701 -2.3892,1.3996 -3.4634,6.9095 -1.935,9.9246 0.1808,0.3567 0.4246,0.7281 0.5418,0.8253 1.1846,0.9828 -2.595,0.5681 -4.8743,-0.5348 -1.2914,-0.6248 -2.3961,-1.6292 -2.8712,-2.6102 -0.6147,-1.2694 -0.5858,-2.9011 0.079,-4.4695 0.7033,-1.6591 0.547,-1.9682 -0.6897,-1.3634 -2.2503,1.1007 -3.1616,2.9095 -3.3881,6.7254 -0.052,0.8724 -0.1522,1.5863 -0.2232,1.5863 -0.071,0 -0.4828,-0.2721 -0.9151,-0.6046 -2.73,-2.1001 -3.8076,-4.8358 -2.9712,-7.543 0.7153,-2.3151 3.2008,-4.7912 6.4407,-6.4162 0.5178,-0.2598 0.8134,-0.486 0.7708,-0.5902 -0.1271,-0.3112 -1.2643,-1.0742 -2.1169,-1.4204 -1.7133,-0.6955 -3.4023,-0.5181 -4.9047,0.5152 -0.7784,0.5354 -0.9502,0.4653 -1.371,-0.5591 -1.5097,-3.6756 2.535,-6.2243 7.9298,-4.9969 1.4391,0.3274 2.5944,0.8305 4.771,2.0775 1.0947,0.6272 1.2789,0.6881 2.249,0.7442 2.1608,0.1251 3.1863,-0.4099 4.5713,-2.3847 0.5014,-0.7149 1.6325,-2.3327 2.5135,-3.5949 2.1682,-3.1065 4.5545,-6.2595 6.3138,-8.3423 0.8023,-0.9498 1.4588,-1.7867 1.4588,-1.8596 0,-0.7605 -6.3316,-0.2073 -10.9458,0.9562 -5.8703,1.4804 -11.9744,4.6795 -17.6164,9.2327 -2.8389,2.291 -4.7758,4.0944 -10.4451,9.7249 l -5.8536,5.8134 -0.8738,-0.945 c -3.208,-3.4696 -6.2292,-8.2663 -8.8008,-13.9728 -1.7543,-3.8929 -2.7669,-6.511 -2.6382,-6.8216 0.1741,-0.4205 3.3054,-3.3404 5.9914,-5.587 2.9623,-2.4776 6.7111,-5.329 12.0866,-9.193 7.7784,-5.5913 9.4446,-6.8109 12.1535,-8.8962 4.5789,-3.5249 7.2246,-5.8324 7.6557,-6.6772 0.5525,-1.0827 0.3138,-1.9904 -0.6428,-2.4442 -1.5182,-0.7202 -8.2918,-0.5206 -13.7509,0.4053 -2.1618,0.3667 -6.1476,1.4071 -8.8189,2.3021 -5.3148,1.7806 -10.7143,4.2644 -17.4807,8.0411 -2.0629,1.1514 -2.8164,1.4931 -2.8164,1.2774 0,-0.029 -0.1189,-0.6307 -0.2643,-1.3371 -0.8801,-4.2758 -1.0941,-6.8031 -1.1813,-13.953192 -0.041,-3.3524 -0.032,-6.4351 0.02,-6.8506 0.094,-0.7533 0.097,-0.7567 0.9288,-1.25 4.594,-2.7229 10.3058,-5.026 17.31,-6.9796 2.0375,-0.5683 7.4473,-1.9023 13.0185,-3.2101 2.7558,-0.6469 3.1584,-0.8444 3.093,-1.517 -0.039,-0.4024 -0.1107,-0.451 -1.4591,-0.9905 -2.7456,-1.0986 -6.0356,-1.908 -9.2904,-2.2858 -2.3037,-0.2673 -8.0376,-0.1877 -10.4262,0.1447 -2.2172,0.3086 -6.0909,1.0959 -8.366,1.7002 -1.0732,0.2851 -2,0.4883 -2.0595,0.4516 -0.5095,-0.3148 0.8618,-6.0334 2.4855,-10.3648 1.227,-3.273 4.4892,-10.6882 4.8865,-11.1073 0.084,-0.089 1.2151,-0.2651 2.5808,-0.4021 2.0282,-0.2035 3.7091,-0.2444 10.148,-0.2468 7.397,0 7.7289,-0.014 8.0014,-0.2601 0.5546,-0.5016 0.3842,-0.8119 -0.8575,-1.5617 -3.49,-2.1074 -7.2877,-3.3931 -12.7299,-4.3097 -1.2712,-0.2141 -2.3795,-0.4314 -2.4629,-0.4829 -0.2653,-0.164 1.8248,-3.6136 3.6807,-6.074901 1.9524,-2.5892 6.6519,-8.0577 7.1566,-8.3278 0.2068,-0.1106 1.2853,-0.1316 3.8045,-0.074 3.3202,0.076 6.3439,0.3409 10.9434,0.9599 1.633,0.2197 1.8231,0.1547 1.8231,-0.6241 0,-0.4946 -0.078,-0.6354 -0.669,-1.2047 -0.9286,-0.8948 -2.5259,-2.0548 -3.6876,-2.678 -1.2616,-0.6768 -2.3777,-1.0889 -4.2188,-1.5575 -0.817,-0.2079 -1.5377,-0.4237 -1.6016,-0.4796 -0.3672,-0.3209 3.1053,-3.9578 5.6796,-5.9484 2.9993,-2.3193 9.2576,-6.1927 10.0056,-6.1927 0.3435,0 2.8069,1.311 5.0149,2.6689 4.6033,2.8309 8.1038,5.5768 11.4288,8.9652 5.2057,5.3049 8.1703,10.4988 9.4645,16.581601 0.3604,1.6937 0.3624,7.1344 0,8.2987 -0.3315,1.074 -0.6493,1.6668 -1.184,2.2087 -0.7391,0.7489 -1.3773,0.9895 -3.0919,1.1652 -1.9573,0.2005 -2.8057,0.5614 -3.9062,1.6616 -1.3889,1.3885 -1.9619,2.9225 -1.8773,5.0262 0.048,1.1881 0.1001,1.4077 0.5507,2.3103 1.1233,2.2499 2.92,3.563 6.4422,4.7084 2.3322,0.7585 3.14,0.8791 5.8811,0.8786 2.8404,-6e-4 3.602,-0.1512 5.5952,-1.1066 1.0584,-0.5072 1.4592,-0.7963 2.3697,-1.7092 0.8912,-0.8937 1.2137,-1.3383 1.7275,-2.3814 1.778,-3.6094 1.2565,-5.86 -1.5203,-6.5609 -1.3809,-0.3487 -3.6597,-0.065 -5.9935,0.7467 -0.4358,0.1515 -0.8443,0.2433 -0.9079,0.2041 -0.2109,-0.1303 -0.6699,-1.8552 -0.7519,-2.826 -0.3079,-3.6405 2.2737,-5.9884 7.4345,-6.7615 1.9768,-0.2962 1.9045,-0.2679 2.1668,-0.8494 0.8687,-1.9259 2.8336,-3.7404 4.8983,-4.5235 1.7709,-0.6717 2.6464,-0.8134 5.0358,-0.8152 2.4604,0 3.7933,0.1964 5.759,0.8568 2.9321,0.985 5.4463,3.2532 6.967502,6.2861 1.3223,2.6362 1.929703,5.462 2.263503,10.5303 0.2737,4.157 0.3661,4.7629 0.8896,5.8394 1.6695,3.4331 4.8021,4.4003 9.9531,3.0731 2.3539,-0.6065 3.526,-1.4303 4.3348,-3.0464 1.6927,-3.3825 0.2557,-8.5619 -2.7433,-9.8881 -0.3363,-0.1487 -1.1168,-0.3216 -1.7343,-0.3842 -0.6175,-0.063 -1.4254,-0.2439 -1.7951,-0.4029 -1.3044,-0.561 -2.4709,-2.235 -3.046,-4.3712 -0.3611,-1.3416 -0.3619,-6.4638 0,-8.1677 0.7923,-3.743501 2.2894,-7.260901 4.4977,-10.567401 3.1542,-4.7229 8.0976,-9.4979 13.761,-13.2925 2.9969,-2.0079 7.1194,-4.3558 7.6483,-4.3558 0.748,0 7.0063,3.8734 10.0055,6.1927 2.5743,1.9906 6.0469,5.6275 5.6797,5.9484 -0.064,0.056 -0.7847,0.2717 -1.6017,0.4796 -1.841,0.4686 -2.9571,0.8807 -4.2188,1.5575 -1.1617,0.6232 -2.7589,1.7832 -3.6876,2.678 -0.5908,0.5693 -0.669,0.7101 -0.669,1.2047 0,0.7788 0.1901,0.8438 1.8231,0.6241 4.5995,-0.619 7.6233,-0.8842 10.9435,-0.9599 2.5191,-0.057 3.5977,-0.036 3.8045,0.074 0.5047,0.2701 5.2042,5.7386 7.1566,8.3278 1.8559,2.461301 3.946,5.910901 3.6806,6.074901 -0.083,0.052 -1.1917,0.2688 -2.4629,0.4829 -5.4421,0.9166 -9.2398,2.2023 -12.7299,4.3097 -1.2417,0.7498 -1.412,1.0601 -0.8574,1.5617 0.2725,0.2465 0.6043,0.2573 8.0014,0.2601 6.4389,0 8.1198,0.043 10.148,0.2468 1.3657,0.137 2.4965,0.3132 2.5808,0.4021 0.3973,0.4191 3.6595,7.8343 4.8864,11.1073 1.6238,4.3314 2.9951,10.05 2.4855,10.3648 -0.059,0.037 -0.9862,-0.1665 -2.0594,-0.4516 -2.2751,-0.6043 -6.1488,-1.3916 -8.366,-1.7002 -2.3886,-0.3324 -8.1225,-0.412 -10.4262,-0.1447 -3.2548,0.3778 -6.5449,1.1872 -9.2904,2.2858 -1.3485,0.5395 -1.42,0.5881 -1.4592,0.9905 -0.065,0.6726 0.3373,0.8701 3.0931,1.517 5.5712,1.3078 10.9809,2.6418 13.0185,3.2101 7.0042,1.9536 12.7159,4.2567 17.31,6.9796 0.8321,0.4933 0.8346,0.4967 0.9288,1.25 0.052,0.4155 0.061,3.4982 0.02,6.8506 -0.087,7.150092 -0.3012,9.677392 -1.1813,13.953192 -0.1454,0.7064 -0.2643,1.3081 -0.2643,1.3371 0,0.2157 -0.7535,-0.126 -2.8164,-1.2774 -11.4312,-6.3804 -20.0305,-9.563 -29.0536,-10.7527 -4.2245,-0.557 -9.8184,-0.5549 -10.997,0 -0.9566,0.4538 -1.1953,1.3615 -0.6427,2.4442 0.4311,0.8448 3.0768,3.1523 7.6557,6.6772 2.7088,2.0853 4.375,3.3049 12.1535,8.8962 5.3755,3.864 9.1243,6.7153 12.0866,9.193 2.686,2.2466 5.8173,5.1665 5.9914,5.587 0.1287,0.3106 -0.8839,2.9287 -2.6382,6.8216 -2.5717,5.7065 -5.5929,10.5032 -8.8009,13.9728 l -0.8737,0.945 -5.8536,-5.8134 c -6.9548,-6.9072 -9.5064,-9.188 -13.2728,-11.8644 -6.6677,-4.7382 -13.428,-7.3988 -20.7378,-8.1617 -3.343,-0.349 -4.9967,-0.3118 -4.9967,0.1123 0,0.073 0.6565,0.9097 1.4588,1.8596 1.7592,2.0828 4.1456,5.2358 6.3137,8.3423 0.8811,1.2622 2.0121,2.88 2.5135,3.5949 1.385,1.9748 2.4106,2.5098 4.5714,2.3847 0.9701,-0.056 1.1542,-0.117 2.2489,-0.7442 1.6079,-0.9212 2.5275,-1.3736 3.4176,-1.6814 4.9475,-1.7107 9.6054,-0.1942 9.5871,3.1214 0,0.8192 -0.4593,2.1194 -0.8197,2.3435 -0.1635,0.1017 -0.372,0.027 -0.8552,-0.305 -1.5023,-1.0333 -3.1914,-1.2107 -4.9046,-0.5152 -0.8526,0.3462 -1.9898,1.1092 -2.1169,1.4204 -0.043,0.1042 0.253,0.3304 0.7708,0.5902 2.3474,1.1774 4.3689,2.8429 5.4969,4.5289 2.1703,3.2439 1.4085,6.7872 -2.0274,9.4302 -0.4323,0.3326 -0.8441,0.6047 -0.9151,0.6047 -0.071,0 -0.1715,-0.7139 -0.2233,-1.5863 -0.2264,-3.8159 -1.1377,-5.6247 -3.3881,-6.7254 -1.2366,-0.6048 -1.3929,-0.2957 -0.6896,1.3634 1.2672,2.9894 0.2309,5.6169 -2.7921,7.0797 -2.2793,1.1029 -6.0589,1.5176 -4.8743,0.5348 0.3453,-0.2865 0.8544,-1.4056 1.0857,-2.3863 0.1576,-0.6684 0.1959,-1.2918 0.1432,-2.33 -0.081,-1.5942 -0.3245,-2.6452 -0.8996,-3.8806 -0.5287,-1.1355 -1.0077,-1.7343 -1.7225,-2.153 -0.5525,-0.3238 -0.6807,-0.3441 -1.7007,-0.2701 -1.8003,0.1305 -3.3034,0.8003 -4.2152,1.8781 -0.5683,0.6719 -1.1503,2.0239 -1.2384,2.8768 -0.044,0.4229 -0.1544,0.7917 -0.2486,0.8278 -0.2375,0.091 -1.2001,-0.5426 -2.0625,-1.358 -2.3287,-2.2017 -1.9117,-4.8062 1.3149,-8.2119 l 1.1162,-1.1781 -0.4092,-0.715 c -0.6066,-1.06 -2.257,-2.762 -3.6132,-3.7264 -1.6365,-1.1637 -2.9405,-1.8523 -5.936,-3.1346 -1.4062,-0.6019 -4.3673,-1.9699 -6.5801,-3.04 -2.2129,-1.0701 -4.051203,-1.9456 -4.085203,-1.9456 -0.2772,0 0.4866,2.5059 1.374403,4.5094 1.2563,2.8349 2.0648,3.9861 6.6096,9.4108 7.5766,9.0433 13.2909,17.8029 17.9198,27.47 1.9756,4.1256 2.4389,5.1954 2.3064,5.3255 -0.2293,0.2252 -3.5348,1.8847 -5.3142,2.6679 -2.7564,1.2133 -7.7003,2.86261 -8.5806,2.86261 -0.258,0 -0.544,-0.55101 -2.2249,-4.2863 -4.2294,-9.3992 -6.4123,-13.6564 -9.5698,-18.6642 -1.4134,-2.2416 -3.528603,-5.2651 -3.683403,-5.2651 -0.063,0 -0.1144,0.60989 -0.1144,1.3553 0,4.8863 2.221303,14.2454 6.031903,25.41429 0.5536,1.6227 0.9878,3.04651 0.9648,3.164 -0.08,0.4076 -5.699903,1.7324 -9.562605,2.2542 -4.5371,0.6129 -11.4531,0.8812 -15.8003,0.6131 z"
   id="path4189-2"
   inkscape:connector-curvature="0"
   inkscape:export-filename="C:\AppServ\www\wordpress\wp-content\themes\web\assets\images\clientes\imgncl4.png"
   inkscape:export-xdpi="90"
   inkscape:export-ydpi="90" /></svg>