<?xml version="1.0" encoding="UTF-8" standalone="no"?>
<!-- Generator: Adobe Illustrator 19.0.0, SVG Export Plug-In . SVG Version: 6.00 Build 0)  -->

<svg
   xmlns:dc="http://purl.org/dc/elements/1.1/"
   xmlns:cc="http://creativecommons.org/ns#"
   xmlns:rdf="http://www.w3.org/1999/02/22-rdf-syntax-ns#"
   xmlns:svg="http://www.w3.org/2000/svg"
   xmlns="http://www.w3.org/2000/svg"
   xmlns:sodipodi="http://sodipodi.sourceforge.net/DTD/sodipodi-0.dtd"
   xmlns:inkscape="http://www.inkscape.org/namespaces/inkscape"
   version="1.1"
   id="Capa_1"
   x="0px"
   y="0px"
   viewBox="0 0 200 200"
   xml:space="preserve"
   inkscape:version="0.91 r13725"
   sodipodi:docname="picture1.svg"
   width="200"
   height="200"
   inkscape:export-filename="C:\AppServ\www\wordpress\wp-content\themes\web\assets\images\imgncl2.png"
   inkscape:export-xdpi="90"
   inkscape:export-ydpi="90"><metadata
   id="metadata45"><rdf:RDF><cc:Work
       rdf:about=""><dc:format>image/svg+xml</dc:format><dc:type
         rdf:resource="http://purl.org/dc/dcmitype/StillImage" /><dc:title></dc:title></cc:Work></rdf:RDF></metadata><defs
   id="defs43" /><sodipodi:namedview
   pagecolor="#ffffff"
   bordercolor="#666666"
   borderopacity="1"
   objecttolerance="10"
   gridtolerance="10"
   guidetolerance="10"
   inkscape:pageopacity="0"
   inkscape:pageshadow="2"
   inkscape:window-width="1920"
   inkscape:window-height="1018"
   id="namedview41"
   showgrid="false"
   inkscape:zoom="1.4385966"
   inkscape:cx="-45.920704"
   inkscape:cy="107.07505"
   inkscape:window-x="-8"
   inkscape:window-y="-8"
   inkscape:window-maximized="1"
   inkscape:current-layer="Capa_1" />

<g
   id="g11"
   transform="translate(0,142)">
</g>
<g
   id="g13"
   transform="translate(0,142)">
</g>
<g
   id="g15"
   transform="translate(0,142)">
</g>
<g
   id="g17"
   transform="translate(0,142)">
</g>
<g
   id="g19"
   transform="translate(0,142)">
</g>
<g
   id="g21"
   transform="translate(0,142)">
</g>
<g
   id="g23"
   transform="translate(0,142)">
</g>
<g
   id="g25"
   transform="translate(0,142)">
</g>
<g
   id="g27"
   transform="translate(0,142)">
</g>
<g
   id="g29"
   transform="translate(0,142)">
</g>
<g
   id="g31"
   transform="translate(0,142)">
</g>
<g
   id="g33"
   transform="translate(0,142)">
</g>
<g
   id="g35"
   transform="translate(0,142)">
</g>
<g
   id="g37"
   transform="translate(0,142)">
</g>
<g
   id="g39"
   transform="translate(0,142)">
</g>
<g
   id="g4228"
   transform="matrix(0.57012218,0,0,0.5701238,297.28162,-334.14444)"
   style="fill:#4d4d4d;fill-opacity:0.83137256"><g
     id="g3"
     transform="translate(-543.43493,563.42203)"
     style="fill:#4d4d4d;fill-opacity:0.83137256"><path
       id="path5"
       d="m 197.401,33.02 c -91.154,0 -165.049,73.896 -165.049,165.05 0,91.154 73.895,165.049 165.049,165.049 91.155,0 165.049,-73.895 165.049,-165.049 0,-91.154 -73.894,-165.05 -165.049,-165.05 l 0,0 z m 0,16.502 c -82.041,0 -148.548,66.507 -148.548,148.548 0,82.041 66.508,148.549 148.548,148.549 82.04,0 148.548,-66.508 148.548,-148.549 0,-82.041 -66.508,-148.548 -148.548,-148.548 l 0,0 z"
       inkscape:connector-curvature="0"
       style="clip-rule:evenodd;fill:#4d4d4d;fill-opacity:0.83137256;fill-rule:evenodd" /><path
       id="path7"
       d="m 204.146,162.228 0.354,0.56 c 0.832,1.876 1.265,2.896 0.679,4.428 -0.595,1.556 -1.995,3.133 -3.491,2.701 -1.566,-0.452 -1.675,-2.511 -3.759,-2.945 -1.65,-0.344 -3.179,1.39 -3.671,2.655 -1.409,0.159 -2.33,0.181 -3.376,-0.591 -0.607,-0.448 -1.413,-1.601 -1.565,-2.598 -0.232,-1.521 0.226,-2.325 0.674,-3.446 0.531,-1.329 1.979,-4.679 2.655,-5.816 l 1.483,-2.678 c 0.2,-0.405 2.368,-4.364 2.78,-4.603 0.285,-0.165 0.501,-0.161 0.769,0.045 0.23,0.571 0.453,0.606 0.869,1.434 l 3.368,6.208 c 0.154,0.298 0.163,0.432 0.346,0.765 0.199,0.362 0.244,0.376 0.431,0.82 l 0.215,0.631 c 0.108,0.275 0.268,0.559 0.386,0.849 0.239,0.585 0.464,1.179 0.853,1.581 l 0,0 z m -41.829,-21.17 c 0,-2.219 2.451,-4.27 3.87,-4.929 5.623,-2.609 11.673,0.301 16.46,3.24 0.932,0.572 1.755,1.145 2.641,1.669 l 4.061,2.591 c 2.078,1.368 0.873,2.703 -0.628,3.792 -3.336,2.423 -10.837,6.815 -14.833,6.811 -3.423,-0.004 -8.228,-2.637 -10.837,-4.835 -0.756,-0.637 -0.734,-0.202 -0.734,-1.399 l 0,-6.94 0,0 z m 70.504,6.94 c 0,1.313 -0.343,1.058 -1.058,1.663 -1.132,0.957 -3.838,2.6 -5.083,3.098 -3.471,1.388 -4.712,2.13 -8.759,0.756 -3.934,-1.336 -9.319,-4.103 -12.452,-6.841 -2.31,-2.019 0.933,-3.455 2.32,-4.334 5.596,-3.545 12.645,-8.802 19.662,-6.795 2.301,0.658 5.37,2.904 5.369,5.514 l 0,6.939 0.001,0 z m -82.898,-34.145 c -0.239,0.358 -0.085,1.065 0.011,1.982 l 1.807,11.843 c 0.499,2.785 1.207,5.58 1.981,8.285 l 0.101,0.432 c 0.714,3.075 1.46,4.146 1.636,7.468 0.033,0.617 -0.061,0.341 0.14,0.666 0.062,2.27 -1.42,3.833 -2.919,4.624 -1.926,1.016 -3.303,1.589 -2.285,4.58 1.274,3.741 2.467,7.369 3.71,11.123 1.739,5.253 3.679,4.427 10.487,4.412 0.944,-0.002 2.376,0.203 3.342,0.339 1.103,0.156 2.081,0.324 3.103,0.649 2.058,0.656 4.166,1.359 4.078,3.28 -1.151,0.951 -2.162,-0.196 -4.064,1.253 0.1,0.592 2.342,7.438 2.446,7.611 0.198,0.328 4.093,2.479 4.705,2.783 0.554,0.276 1.129,0.708 1.664,0.843 0.056,-1.791 -0.429,-5.74 -0.327,-7.001 l 1.614,0.019 c 0.113,1.231 0.146,2.724 0.326,3.836 0.213,1.312 0.016,2.598 0.276,3.9 0.252,0.226 5.03,2.352 5.582,2.404 l 0.039,-8.014 1.908,0.025 c 0.175,1.315 -0.117,8.368 0.151,8.726 0.496,0.462 2.682,0.942 3.445,1.156 1.109,0.31 2.417,0.826 3.454,1.028 0.151,-0.944 0.051,-5.49 0.052,-7.045 l 0.009,-1.797 c 0.159,-0.955 1.758,-0.424 1.76,-0.423 l 0.228,0.139 0.009,9.092 c 0.56,0 6.627,-1.853 7.014,-2.152 0.132,-1.306 0.035,-3.081 0.035,-4.441 0,-4.938 -0.475,-4.423 1.992,-4.332 l 0.011,7.986 c 0.704,-0.057 5.16,-2.017 6.158,-2.431 l 0.022,-7.631 1.604,0.032 c 0.048,1.314 -0.162,2.224 -0.163,3.317 -0.002,1.177 0,2.359 0.004,3.536 l 3.322,-1.781 c 0.48,-0.285 1.025,-0.547 1.607,-0.896 1.251,-0.749 1.056,-0.375 1.316,-1.052 l 1.179,-3.667 c 0.263,-0.822 1.052,-3.004 1.107,-3.771 -1.553,-1.659 -3.738,0.094 -3.969,-1.531 -0.171,-1.203 0.885,-1.675 1.827,-2.137 3.452,-1.688 7.45,-1.843 11.422,-1.844 2.906,0 5.553,0.152 6.812,-2.105 0.798,-1.431 3.817,-11.022 4.597,-13.332 1.302,-3.855 -0.911,-3.6 -2.958,-5.127 -3.329,-2.485 -2.336,-6.329 -1.339,-9.946 1.93,-6.997 2.79,-10.625 4.005,-18.357 l 1.034,-10.03 c 0.035,-0.697 0.002,-1.505 0.003,-2.215 0.003,-1.482 0.17,-2.719 0.16,-4.308 -0.006,-0.828 -0.155,-1.364 -0.155,-2.214 -10e-4,-1.969 -0.361,-3.946 -0.879,-5.728 -1.006,-3.463 -3.048,-7.439 -5.315,-10.24 l -2.012,-2.42 c -0.426,-0.582 -0.586,-0.708 -1.05,-1.172 -0.71,-0.71 -2.2,-2.144 -2.991,-2.694 -0.362,-0.252 -0.316,-0.213 -0.613,-0.501 -1.899,-1.841 -7.199,-4.946 -9.475,-6.061 -2.132,-1.044 -4.024,-1.79 -6.279,-2.602 -1.159,-0.417 -2.196,-0.731 -3.329,-1.108 -3.514,-1.171 -4.983,-0.812 -7.752,-1.244 -0.617,-0.096 -1.519,-0.018 -2.174,-0.038 -0.773,-0.025 -1.157,-0.182 -2.073,-0.175 -2.273,0.016 -6.856,-0.256 -8.81,0.079 l -4.092,0.288 c -2.767,-0.003 -4.932,0.571 -7.54,1.375 -1.187,0.366 -2.066,0.758 -3.273,1.156 -3.89,1.283 -11.137,5.127 -14.413,7.947 -4.28,3.684 -7.595,6.926 -10.234,12.121 -3.021,5.947 -3.403,10.296 -3.171,16.85 0.026,0.752 0.186,1.138 0.182,2.076 -0.011,1.625 0.188,2.708 0.177,4.302 l 0,0 z"
       inkscape:connector-curvature="0"
       style="clip-rule:evenodd;fill:#4d4d4d;fill-opacity:0.83137256;fill-rule:evenodd" /><path
       id="path9-7"
       d="m 220.06,211.293 c 0.316,0.365 0.196,0.201 0.614,0.4 0.3,0.141 0.115,0.043 0.375,0.186 l 13.355,5.938 c 1.792,0.578 3.868,0.404 5.682,0.268 1.233,-0.094 2.053,-0.424 3.234,-0.801 l 11.682,-5.244 c 0.027,-0.014 0.061,-0.035 0.088,-0.051 l 8.703,-3.746 c 0.02,-0.008 0.059,-0.02 0.078,-0.025 l 3.674,-1.398 c 0.022,-0.01 0.269,-0.133 0.376,-0.176 l 0.948,-0.369 c 0.018,-0.006 0.057,-0.018 0.073,-0.023 l 1.075,-0.432 c 0.024,-0.01 0.062,-0.029 0.084,-0.039 l 0.39,-0.117 c 0.202,-0.064 0.021,0.004 0.246,-0.094 l 4.984,-1.957 c 0.029,-0.014 0.064,-0.031 0.095,-0.045 l 1.275,-0.391 c 0.024,-0.01 0.063,-0.027 0.086,-0.037 l 10.139,-3.613 c 0.404,-0.102 0.644,-0.121 1.061,-0.191 1.307,-0.225 3.075,0.037 4.317,0.307 0.707,0.154 1.169,0.389 1.94,0.559 l 5.113,1.625 c 0.018,0.006 0.055,0.021 0.073,0.029 l 7.832,3.648 c 1.677,1.084 4.762,3.758 5.969,5.273 l 0.804,1.002 c 0.919,0.986 2.057,2.229 2.731,3.375 l 1.27,1.922 c 0.738,1.348 1.613,2.57 2.235,4.012 l 0.498,1.307 c 0.145,0.389 0.061,0.15 0.204,0.49 0.298,0.699 0.286,1.234 0.625,1.873 -0.944,0.5 -1.155,0.299 -1.118,1.375 l 0.007,7.092 c 0.81,0.189 1.771,0.725 2.499,1.111 0,0.578 0.027,0.535 -0.113,0.998 -0.388,1.277 -0.555,3.402 -0.841,5.002 -0.096,0.531 -0.156,0.424 -0.156,1.078 l -3.014,-0.32 c -0.457,0.027 -0.545,0.297 -0.766,0.705 l -0.824,1.396 c -0.151,0.285 -0.281,0.457 -0.475,0.773 l -1.279,2.191 c -0.216,0.418 -0.198,0.439 -0.443,0.807 l 1.231,1.543 c 0.026,0.031 0.107,0.113 0.134,0.145 l 1.133,1.365 c -0.271,0.512 -0.863,0.887 -0.744,1.527 -0.122,0.297 -0.744,1.135 -0.947,1.355 -0.867,0.949 -2.083,2.209 -3.161,2.973 -0.21,0.148 0.019,0.02 -0.283,0.189 -1.093,-0.705 -1.564,-1.639 -2.499,-2.336 -0.467,0.064 -5.511,2.148 -5.741,2.379 -0.396,1.016 0.082,3.277 -0.132,4.561 -1.695,1.045 -4.743,1.719 -6.986,1.357 -0.072,-0.299 -0.2,-1.492 -0.239,-1.879 -0.068,-0.682 -0.151,-1.084 -0.241,-1.807 l -6.508,-0.965 c -0.382,0.549 -0.717,1.365 -1.074,1.982 -0.809,1.395 -0.761,2.02 -1.422,2.01 -0.542,-0.008 0.108,0.037 -0.215,-0.021 -0.015,-0.002 -0.344,-0.121 -0.398,-0.143 l -2.415,-0.926 c -0.805,-0.273 -2.65,-0.861 -3.166,-1.275 -0.031,-0.805 0.896,-2.77 0.987,-3.707 -1.01,-0.73 -4.146,-3.744 -4.928,-4.199 -0.558,0.197 -2.514,1.613 -3.192,2.004 -0.536,-0.451 -3.218,-4.787 -3.523,-5.578 0.26,-0.484 0.951,-1.051 1.396,-1.408 -0.096,-0.678 -1.525,-6.025 -1.76,-6.365 l -3.329,-0.023 c -0.139,-0.996 -0.049,-2.529 -0.049,-3.586 10e-4,-1.289 -0.228,-1.961 -0.177,-3.299 l 2.931,-0.25 c 0.124,-0.461 0.412,-6.584 0.207,-7 -0.647,-0.633 -1.167,-0.887 -1.187,-2.08 -0.017,-1.057 0.548,-1.813 0.532,-2.791 -0.548,0.16 -1.028,0.779 -1.352,1.199 -1.16,1.506 -2.053,2.783 -2.915,4.576 -2.982,6.199 -4.831,8.543 -2.148,15.055 2.585,6.275 5.646,15.027 8.718,20.99 l 6.331,13.576 c -0.066,0.549 0.584,1.758 0.878,2.246 0.966,1.598 -0.068,1.447 2.576,2.02 0.451,0.098 0.975,0.209 1.376,0.275 l 4.95,1.016 c 0.905,0.186 1.936,0.291 2.78,0.553 0.844,0.262 1.937,0.26 2.793,0.523 0.023,0.008 0.062,0.023 0.083,0.029 l 0.15,0.051 c 0.033,0.01 0.205,0.047 0.242,0.055 0.784,0.166 1.504,0.379 2.147,0.225 1.923,0.303 3.786,0.697 5.61,1.102 0.731,0.162 2.221,0.412 2.998,0.398 1.876,-0.031 2.358,-1.053 3.048,-1.832 l 11.291,-13.273 c 6.835,-8.34 10.402,-15.637 13.096,-26.164 1.194,-4.67 1.42,-6.307 2.217,-11.008 0.331,-1.955 0.477,-4.713 0.67,-5.854 0.105,-0.617 0.317,-2.227 0.313,-2.963 -0.005,-1.215 0.189,-1.898 0.176,-3.059 -0.079,-6.857 -0.293,-11.752 -1.51,-18.238 -0.947,-5.048 -2.457,-10.535 -5.797,-13.875 -2.185,-2.184 -4.868,-3.464 -8.872,-4.188 -1.862,-0.337 -3.954,-0.409 -5.992,-0.679 l -15.305,-1.027 -6.349,0.201 c -0.89,0.132 -1.995,0.229 -2.827,0.309 -4.506,0.429 -6.774,0.864 -11.053,2.014 -0.847,0.228 -1.761,0.493 -2.582,0.762 -0.938,0.308 -1.658,0.646 -2.531,0.783 -0.35,-0.802 -1.087,-1.669 -1.47,-2.612 l -6.428,1.12 c -1.018,0.896 0.211,1.968 -1.107,2.624 l -3.771,1.646 c -1.261,0.572 -2.383,-1.573 -3.245,-1.713 -0.453,0.063 -5.188,2.643 -5.792,3.063 -0.044,0.543 -0.149,0.886 -0.184,1.354 -0.033,0.442 0.043,1.098 -0.033,1.496 -0.131,0.683 -1.006,1.038 -1.553,1.355 -1.016,0.591 -2.61,1.806 -3.681,2.224 -0.857,-0.612 -2.808,-2.381 -3.471,-2.728 -1.327,0.588 -3.88,2.602 -5.419,3.3 -0.11,1.279 0.003,2.328 -0.192,3.512 -0.55,3.336 -5.27,-0.238 -6.521,-1.041 l -12.747,-8.361 c -1.04,-0.666 -0.945,-0.936 -2.268,-0.267 l -14.742,5.362 0.019,5.977 c 0.635,0.537 15.744,6.49 17.691,7.365 0.403,0.182 0.737,0.318 1.061,0.467 l 1.003,0.634 0,0 z"
       inkscape:connector-curvature="0"
       style="clip-rule:evenodd;fill:#4d4d4d;fill-opacity:0.83137256;fill-rule:evenodd" /><path
       id="path11-1"
       d="m 62.506,243.078 c -0.175,0.828 0.978,4.025 1.319,5.406 l 1.83,4.971 c 0.126,0.357 0.148,0.322 0.313,0.66 0.333,0.68 0.139,0.678 0.728,1.77 l 0.772,1.727 c 0.276,0.633 0.352,0.752 0.661,1.283 l 16.094,21.104 c 0.144,0.189 1.563,1.893 1.943,2 0.918,0.662 1.063,1.295 1.888,1.947 0.847,0.67 1.892,0.76 3.035,0.559 7.466,-1.313 14.75,-2.973 22.12,-4.377 1.681,-0.32 1.421,-0.043 2.18,-1.574 l 4.889,-10.234 c 0.802,-1.754 1.61,-3.453 2.413,-5.246 2.952,-6.596 5.103,-11.604 7.85,-18.488 0.356,-0.891 0.718,-2.039 1.057,-2.855 2.795,-6.764 1.067,-8.387 -1.637,-14.279 -0.686,-1.494 -3.287,-6.318 -4.651,-6.713 -0.224,0.471 0.444,1.832 0.471,2.635 0.044,1.326 -0.479,1.537 -1.174,2.217 -0.134,1.01 -0.06,2.545 -0.063,3.613 -10e-4,0.229 0.23,3.248 0.275,3.387 l 2.871,0.238 c 0.107,1.127 -0.04,1.428 -0.054,1.473 l -0.104,0.223 c -0.185,0.229 -0.141,1.488 -0.14,1.752 0.009,3.988 0.792,3.195 -3.607,3.195 0,0.762 -0.421,1.982 -0.432,2.027 l -0.031,0.17 c -0.075,0.387 0.049,-0.08 -0.065,0.344 l -0.9,3.258 c -0.076,0.281 -0.082,0.117 -0.089,0.471 -0.017,0.881 -0.001,0.322 0.129,0.459 0.478,0.18 1.18,0.865 1.439,1.322 -0.301,0.699 -3.101,5.209 -3.521,5.582 -0.943,-0.506 -2.177,-1.592 -3.192,-2.008 -0.701,0.379 -4.052,3.555 -4.946,4.199 l 1.052,3.682 c -0.438,0.338 -5.866,2.355 -6.578,2.471 l -2.159,-4.068 -3.781,0.535 c -0.67,0.133 -1.252,0.203 -1.917,0.275 -1.554,0.17 -0.413,0.623 -1.104,1.15 l 0.06,0.119 c -0.008,0.482 -0.17,2.221 -0.337,2.502 -0.65,0.334 -3.155,0.051 -3.902,-0.123 -1.199,-0.279 -2.119,-0.641 -3.043,-1.166 l -0.087,-4.566 c -0.223,-0.223 -5.303,-2.311 -5.737,-2.377 -1.026,0.686 -1.466,1.764 -2.499,2.336 -2.083,-1.24 -4.065,-3.908 -5.439,-5.906 0.348,-0.914 1.801,-2.145 2.396,-3.053 -0.041,-0.629 -1.161,-2.303 -1.523,-2.936 -0.412,-0.723 -1.144,-2.107 -1.679,-2.756 -0.667,-0.072 -2.333,0.25 -3.054,0.273 -0.52,-0.207 -0.094,0.123 -0.332,-0.387 l -1.193,-7.105 2.63,-1.387 0.004,-7.273 -1.2,-0.5 c 0.159,-0.445 0.311,-1.199 0.467,-1.684 0.458,-1.426 1.211,-3.07 1.879,-4.383 1.675,-3.291 6.432,-9.229 9.339,-11.623 4.772,-3.928 8.517,-4.975 14.102,-6.844 3.865,-1.293 6.595,-2.029 10.601,-0.801 0.566,0.174 2.665,0.834 3.048,1.102 1.358,0.359 6.116,2.234 7.868,2.848 6.02,2.105 16.45,6.463 22.367,9.139 1.582,0.715 3.334,1.502 4.813,2.246 6.228,3.127 10.085,4.146 16.184,1.348 2.349,-1.078 28.89,-12.51 30.022,-13.555 l -0.026,-5.97 c -0.88,-0.341 -1.644,-0.764 -2.478,-1.112 l -11.185,-4.333 c -1.191,-0.61 -1.258,-0.222 -2.251,0.454 l -12.664,8.3 c -7.416,5.104 -6.419,1.059 -6.625,-2.529 -1.154,-0.423 -4.037,-2.625 -5.423,-3.293 -0.67,0.324 -1.899,1.494 -2.567,2.024 l -0.903,0.704 c -0.881,-0.303 -3.007,-1.799 -3.775,-2.265 -2.136,-1.297 -1.297,-0.925 -1.521,-2.937 -0.051,-0.457 -0.135,-0.65 -0.175,-1.22 -0.378,-0.272 -5.266,-2.978 -5.771,-3.071 -0.278,0.034 -1.953,1.633 -2.776,1.932 -1.635,-0.869 -4.652,-1.708 -4.874,-2.53 -0.215,-0.798 0.191,-1.17 -0.401,-1.9 -0.602,-0.229 -5.859,-1.121 -6.519,-1.134 -0.248,0.74 -1.132,1.918 -1.56,2.586 -0.81,-0.158 -2.213,-0.728 -3.071,-1.011 -6.895,-2.278 -16.156,-3.166 -23.558,-3.076 -0.771,0.009 -0.945,0.182 -1.649,0.193 l -6.111,0.183 c -0.693,0.08 -1,0.118 -1.814,0.151 l -11.054,1.309 c -3.086,0.581 -6.03,1.921 -8.082,3.984 -4.27,4.294 -5.773,12.061 -6.522,18.012 -0.488,3.877 -0.432,3.779 -0.696,7.512 -0.152,2.152 -0.438,5.795 -0.089,8 0.121,0.762 0.08,1.24 0.104,2.004 l 0.575,5.516 c 0.318,2.4 0.664,4.744 1.075,7.078 0.392,2.247 1.01,4.465 1.447,6.688 l 0,0 z"
       inkscape:connector-curvature="0"
       style="clip-rule:evenodd;fill:#4d4d4d;fill-opacity:0.83137256;fill-rule:evenodd" /><path
       id="path13-7"
       d="m 201.176,231.141 c -0.017,0.637 -0.036,-0.037 1.013,1.541 0.145,0.217 0.27,0.316 0.466,0.506 l 6.708,7.729 c 0.341,0.451 0.375,0.65 0.991,0.813 l 14.238,2.813 c 0.333,0.068 0.873,0.172 1.426,0.262 l 2.083,0.438 c 2.528,0.381 5.344,1.102 7.752,1.525 1.902,0.334 5.784,2.244 7.33,3.498 0.413,0.334 0.641,0.422 1.048,0.756 2.427,1.986 2.606,2.498 4.577,4.445 0.387,0.383 0.497,0.578 0.837,0.967 0.192,0.221 0.198,0.18 0.372,0.461 l 2.71,3.674 c 0.264,0.363 0.482,0.65 0.763,1.043 0.086,0.119 0.092,0.135 0.172,0.244 0.145,0.199 0.033,0.027 0.178,0.238 l 1.045,1.73 c 0.146,0.262 0.189,0.268 0.334,0.5 0.707,1.139 1.246,2.355 1.785,3.564 l 0.758,1.805 c 0.201,0.465 0.221,0.941 0.407,1.396 0.356,0.869 0.925,3.604 0.944,4.469 0.049,2.164 0.313,2.367 0.021,5.158 -0.03,0.293 -0.005,0.533 -0.021,0.814 -0.032,0.576 -0.417,2.23 -0.417,3.605 -0.568,0.133 -0.651,0.139 -1.388,0.139 -0.161,0.24 -0.331,0.457 -0.484,0.764 l -2.37,4.154 c -0.232,0.377 -0.165,0.477 -0.399,0.852 -0.791,1.266 -0.62,0.553 0.128,1.938 0.296,0.547 0.279,0.572 0.767,0.898 l -2.698,3.549 c -0.188,0.246 -0.234,0.297 -0.426,0.549 -0.367,0.482 -0.353,0.213 -0.269,0.76 -0.154,0.406 -0.045,0.246 -0.355,0.559 -0.881,-0.105 -1.6,-1.238 -2.498,-1.408 l -4.035,2.652 c -0.461,0.301 -0.949,0.584 -1.381,0.953 l 0.854,3.213 c -0.499,0.287 -6.232,2.594 -6.654,2.596 -0.544,-0.879 -0.813,-2.455 -1.322,-3.236 -0.822,-0.236 -2.378,-0.119 -3.288,-0.107 -1.122,0.014 -1.944,-0.199 -3.182,-0.182 -0.642,0.961 -1.168,2.723 -1.812,3.832 -0.461,0.025 -5.749,-1.389 -6.254,-1.652 l 0.676,-3.729 -4.832,-3.402 c -0.686,0.465 -2.701,2.168 -3.332,2.416 l -4.3,-5.418 2.52,-2.623 c -0.066,-0.826 -1.75,-4.313 -2.165,-5.365 -1.448,-0.176 -2.786,-0.092 -4.194,-0.244 l -0.021,-6.17 c 0.732,0.152 0.812,0.182 1.684,0.135 l 1.768,-6.137 c -0.561,-0.803 -1.88,-1.473 -2.61,-2.359 0.025,-0.072 2.594,-5.15 2.762,-4.818 l 2.231,0.385 2.531,-3.27 c 0.229,-0.289 0.75,-0.934 0.856,-1.094 0.687,-1.037 -0.528,-2.309 0.293,-3.309 0.439,-0.533 1.466,-1.643 1.716,-2.211 -0.959,-0.061 -2.502,0.24 -3.485,0.412 -0.635,-0.203 -1.085,0.064 -1.681,0.271 l -0.722,0.256 c -3.428,1.566 -5.666,3.67 -8.17,6.275 l -2.721,3.396 c -0.48,0.801 -0.31,1.959 -0.31,2.873 l 0.058,28.973 c 0.048,0.266 0.245,0.816 0.334,1.172 0.122,0.494 0.178,0.93 0.286,1.379 l 3.239,8.9 c 0.007,0.016 0.02,0.055 0.026,0.07 l 1.295,3.125 c 0.163,0.379 0.162,0.234 0.351,0.621 0.406,0.838 0.705,1.514 1.154,2.316 l 1.077,2.254 c 0.338,0.6 0.416,0.412 1.057,0.609 l 15.762,4.682 c 0.553,0.139 0.793,0.375 1.456,0.229 1.259,0.238 2.83,0.756 4.142,1.186 0.967,0.316 3.225,1.25 4.144,0.793 4.784,-2.375 5.891,-2.895 10.134,-5.691 1.018,-0.67 2.186,-1.449 3.093,-2.182 l 4.357,-3.549 c 0.542,-0.398 0.816,-0.799 1.299,-1.203 l 2.757,-2.518 c 1.179,-0.951 6.438,-6.693 7.711,-7.973 0.473,-0.475 0.844,-0.85 1.315,-1.32 0.479,-0.477 0.784,-0.9 1.23,-1.408 1.747,-1.982 3.109,-3.049 4.948,-5.598 1.578,-2.186 3.033,-3.332 3.984,-6.439 0.56,-1.832 0.206,-2.924 -0.238,-4.447 -2.583,-8.867 -4.981,-14.799 -8.228,-23.133 -1.545,-3.967 -6.371,-13.83 -8.674,-17.553 -2.388,-3.859 -2.136,-3.137 -3.276,-7.268 -0.315,-1.145 -0.416,-0.764 -1.184,-1.451 -0.303,-0.271 -1.048,-0.918 -1.42,-1.131 -0.402,0.25 -0.939,0.762 -1.413,1.088 l -5.675,-2.824 c -0.018,-0.66 0.242,-1.77 0.141,-3.627 -0.6,-0.385 -3.27,-1.166 -4.215,-1.477 -1.572,-0.512 -2.415,-1.123 -3.12,-0.598 -0.476,0.355 -2.031,1.738 -2.499,1.732 l -6.121,-2.273 -0.01,-4.07 c -0.37,-0.295 -5.938,-2.83 -6.688,-3.072 l -2.74,2.674 c -2.161,-0.248 -6.402,-4.145 -7.793,-5.805 -1.394,-1.662 -2.55,-3.355 -3.765,-5.262 -0.852,-1.338 -0.679,-1.541 -1.498,-1.834 -1.229,-0.439 -6.825,-2.666 -7.256,-2.68 -0.171,0.813 -0.053,10.797 -0.053,12.531 0,1.123 -0.233,8.521 0.211,9.197 0.462,0.709 1.075,1.045 1.357,1.768 l 0,0 z"
       inkscape:connector-curvature="0"
       style="clip-rule:evenodd;fill:#4d4d4d;fill-opacity:0.83137256;fill-rule:evenodd" /><path
       id="path15-9"
       d="m 139.294,240.023 c -0.394,0.4 -0.249,0.266 -0.422,0.803 -0.317,0.98 -1.536,2.873 -2.127,3.834 l -2.136,3.695 c -0.19,0.404 -0.176,0.457 -0.418,0.83 -0.211,0.326 -0.228,0.344 -0.401,0.709 -0.172,0.363 -0.26,0.486 -0.433,0.816 l -7.99,17.967 c -0.165,0.377 -0.191,0.32 -0.34,0.77 l -0.937,2.52 c -0.009,0.021 -0.025,0.061 -0.034,0.082 l -0.251,0.826 c -0.006,0.02 -0.019,0.059 -0.026,0.08 l -1.802,5.143 c -0.188,0.539 -0.358,1.191 -0.557,1.723 l -0.236,0.627 c -0.128,0.379 -0.194,0.672 -0.291,0.973 l -1.358,4.305 c -0.362,0.93 -0.689,2.084 -0.625,3.154 0.029,0.492 0.068,0.779 0.128,1.137 0.079,0.473 0.091,0.586 0.227,1.031 0.744,2.449 1.646,2.914 2.452,4.342 0.041,0.07 0.152,0.287 0.201,0.354 0.282,0.387 0.075,0.059 0.339,0.355 0.208,0.234 0.237,0.369 0.456,0.654 l 2.717,3.252 c 0.057,0.055 0.233,0.229 0.278,0.275 l 0.812,0.994 c 2.771,2.75 5.347,5.635 8.123,8.395 l 0.675,0.713 c 0.02,0.02 0.049,0.049 0.069,0.07 l 0.921,1.021 c 0.556,0.76 1.534,1.818 2.311,2.408 l 1.141,0.941 c 1.328,1.332 2.798,2.475 4.2,3.711 0.146,0.129 0.155,0.189 0.347,0.348 l 1.345,1.014 c 0.483,0.379 0.84,0.715 1.287,1.072 0.428,0.344 0.928,0.631 1.389,0.971 l 7.628,4.727 c 0.748,0.389 2.162,1.438 2.942,1.283 2.233,0.68 0.729,1.326 5.856,-0.32 1.953,-0.627 3.802,-1.129 5.908,-1.74 4.809,-1.398 10.208,-3.168 14.77,-4.367 1.243,-0.328 0.926,-0.176 1.848,-2.027 0.445,-0.895 0.847,-1.703 1.248,-2.496 1.725,-3.416 4.285,-10.283 5.327,-13.99 0.729,-2.594 0.421,-11.545 0.421,-14.818 0,-5.135 0,-10.271 0,-15.406 0,-3.553 0.33,-2.5 -1.182,-4.494 l -1.762,-2.121 c -1.776,-2.207 -4.914,-4.6 -7.518,-5.938 -1.497,-0.77 -4.69,-1.652 -6.307,-1.467 0.194,0.383 0.908,1.195 1.206,1.559 0.282,0.344 1.346,1.248 0.589,1.855 -0.579,1.785 -0.062,2.23 0.991,3.508 l 2.3,2.984 c 0.175,0.15 0.203,0.289 0.726,0.162 0.602,-0.146 0.801,-0.352 1.952,-0.352 0.065,0.787 0.264,0.619 0.547,1.117 l 1.812,3.463 c -0.213,0.143 -0.441,0.273 -0.654,0.457 -0.491,0.42 -1.409,1.354 -1.982,1.486 l 0.926,3.373 c 0.264,0.883 0.866,2.854 0.878,3.428 0.322,0 0.66,0.01 0.98,-0.006 l 0.833,0.006 -0.011,5.801 c -1.586,0.109 -2.541,-0.025 -4.074,0.25 -0.263,0.51 -2.082,4.744 -2.142,5.193 0.282,0.641 1.896,1.918 2.487,2.775 -0.197,0.549 -1.67,2.197 -2.106,2.768 -0.487,0.635 -1.599,2.164 -2.213,2.629 -0.823,-0.357 -2.02,-1.506 -2.898,-2.092 -0.651,-0.436 -0.847,-0.07 -2.116,0.846 l -3.055,2.209 0.51,3.219 -0.076,0.049 c 0.348,0.285 0.21,-0.131 0.244,0.506 -0.294,0.172 -5.962,1.66 -6.378,1.695 l -1.668,-3.865 -6.487,0.24 c -0.517,0.715 -0.829,2.596 -1.394,3.287 -0.419,-0.045 -6.255,-2.361 -6.621,-2.607 0.194,-1.01 0.596,-2.229 0.836,-3.191 -0.586,-0.596 -4.432,-2.953 -5.458,-3.688 -0.849,0.361 -1.661,1.273 -2.36,1.488 -0.367,-0.299 -3.82,-4.939 -4.009,-5.436 0.321,-0.602 0.857,-1.197 1.253,-1.805 -0.153,-0.691 -2.383,-4.52 -3.009,-5.619 -0.886,-1.555 -0.489,-0.623 -1.868,-1.041 -0.483,-1.324 -0.649,-6.254 -0.647,-7.914 0.01,-7.92 4.514,-14.975 9.317,-20.891 2.006,-2.469 3.697,-4.363 6.518,-6.402 1.825,-1.316 3.394,-2.227 5.591,-3.025 2.314,-0.842 4.573,-1.178 7.066,-1.664 4.557,-0.891 10.044,-1.859 14.417,-2.824 1.124,-0.248 2.345,-0.498 3.537,-0.695 3.082,-0.514 2.567,-0.072 5.264,-3.389 l 3.006,-3.51 c 0.422,-0.516 0.584,-0.738 1.017,-1.199 l 3.95,-4.66 c 0.308,-0.613 0.146,-20.068 0.112,-21.582 -0.548,0.037 -5.665,2.039 -6.548,2.393 -1.698,0.68 -1.396,0.684 -2.284,2.137 -0.652,1.068 -1.033,1.613 -1.835,2.746 -1.897,2.676 -2.117,2.676 -4.21,4.818 -0.882,0.904 -4.041,3.305 -5.545,3.469 l -2.645,-2.594 c -0.532,0.057 -6.034,2.531 -6.709,2.941 l -0.028,4.189 c -1.29,0.457 -2.605,0.967 -4.037,1.479 -2.632,0.939 -1.749,1.146 -3.665,-0.301 -1.609,-1.217 -1.354,-1.074 -3.991,-0.141 -1.44,0.51 -2.817,1.039 -4.262,1.443 0.005,3.256 0.352,3.535 -0.556,4.02 -0.283,0.152 -0.515,0.252 -0.749,0.367 l -4.172,2.078 c -1.478,-0.658 -0.868,-2.027 -3.537,0.621 -0.862,0.849 -0.66,1.948 -1.079,2.698 l 0,0 z"
       inkscape:connector-curvature="0"
       style="clip-rule:evenodd;fill:#4d4d4d;fill-opacity:0.83137256;fill-rule:evenodd" /><path
       id="path17-8"
       d="m 261.749,131.124 c 0.463,0.317 1.037,1.27 1.235,1.606 -0.147,0.526 -0.961,1.881 -1.271,2.591 -0.474,1.083 -0.599,1.888 -0.936,2.939 -2.6,0.073 -2.02,-0.119 -3.193,-0.171 -0.137,-0.006 -0.413,0.007 -0.551,0.025 l -0.439,0.077 -1.653,6.906 c 0.901,0.373 1.888,1.563 2.829,2.138 -0.116,0.511 -0.469,1.251 -0.646,1.694 -0.691,1.733 -1.098,3.321 -1.269,5.261 -0.592,0.373 -1.256,0.42 -2.157,0.409 -0.965,-0.012 -1.411,0.171 -2.395,0.169 -0.411,1.373 -0.902,3.089 -1.405,4.558 -0.148,0.432 -0.258,0.795 -0.369,1.184 -0.201,0.695 -0.264,0.629 0.096,1.123 0.25,0.343 0.517,0.537 0.748,0.804 2.052,2.365 2.192,2.348 1.078,4.829 -0.814,1.814 -2.156,4.148 -3.291,5.73 -1.826,2.545 -3.82,1.748 -6.818,2.019 -1.042,0.095 -1.731,0.16 -2.912,0.159 l -8.467,0.384 c -0.485,0.621 -1.218,2.22 -1.661,3.115 -0.954,1.929 -4.711,8.612 -4.898,9.631 4.161,1.459 3.661,1.036 7.589,1.683 0.726,0.119 1.548,0.059 2.305,0.057 1.654,-0.004 4.433,0.639 6.411,-0.231 2.033,-0.894 4.234,-2.037 6.236,-3.071 2.1,-1.085 4.203,-1.978 6.257,-3.036 5.646,-2.906 9.985,-4.243 13.622,-9.689 0.641,-0.959 1.144,-1.73 1.697,-2.888 0.931,-1.945 1.855,-4.485 2.465,-6.813 0.665,-2.537 1.19,-4.843 1.772,-7.541 0.557,-2.576 0.953,-5.19 1.592,-7.716 1.175,-4.646 3.058,-9.496 5.383,-13.224 1.03,-1.652 2.964,-3.545 4.477,-4.823 3.395,-2.867 7.996,-5.224 12.715,-5.87 1.176,-0.162 7.698,-0.857 8.477,-0.258 l 1.163,0.109 0.065,1.882 5.002,2.489 1.502,-1.462 c 0.429,0.135 4.086,2.977 4.572,3.433 -0.158,0.44 -0.398,0.67 -0.631,1.03 -1.139,1.757 -0.357,0.713 0.457,2.865 -0.131,0.637 0.154,0.619 0.622,1.504 0.164,0.311 0.604,1.112 0.924,1.295 0.099,0.057 -0.01,0.209 0.617,-0.011 0.867,-0.304 1.967,-0.375 2.461,-0.706 0.015,0.652 0.058,0.363 0.272,0.977 l 0.532,1.764 c 0.011,0.032 0.046,0.123 0.059,0.158 l 0.803,2.375 c -0.776,0 -0.767,0.082 -1.345,0.321 l -1.154,0.234 0,5.691 1.944,0.971 c 0.244,0.116 0.451,0.163 0.692,0.279 0,0.777 -0.257,1.453 -0.394,2.145 -0.132,0.668 -0.424,1.769 -0.438,2.436 -0.988,0 -1.126,-0.176 -1.867,-0.333 -1.282,-0.271 -1.161,-0.635 -2.393,1.208 l -1.688,2.478 c -0.034,0.181 -0.021,0.349 -0.021,0.533 0.238,0.165 0.218,0.141 0.416,0.221 0.42,0.298 1.309,1.882 1.402,2.277 l -3.9,3.869 c -0.349,-0.257 -1.633,-1.738 -1.943,-2.168 -0.672,0.018 -3.732,1.377 -4.412,1.664 l -0.039,3.474 -5.142,-0.029 -0.001,-1.124 c -0.801,-0.251 -1.684,-0.444 -2.576,-0.729 -0.786,-0.25 -1.896,-0.737 -2.682,-0.42 -0.277,0.033 -0.269,0.016 -0.587,0.563 -0.25,0.43 -0.276,0.471 -0.662,0.729 l 0.103,0.417 c -0.161,0.303 0.029,0.129 -0.246,0.296 l -4.535,-2.194 0.353,-2.421 -3.358,-2.162 c -0.811,-0.463 -0.6,-0.038 -1.477,-0.006 -0.6,-0.488 -0.689,-0.849 -1.183,-1.355 -0.33,-0.339 -0.797,-1.007 -1.202,-1.229 -0.07,1.09 -0.038,2.285 -0.038,3.387 -0.001,1.139 0.016,0.896 1.192,2.056 0.566,0.558 1.185,1.021 1.769,1.563 l 8.997,6.546 c 0.332,0.249 0.145,0.039 0.385,0.378 0.072,0.198 -0.072,0.034 0.194,0.299 l 1.152,0.788 c 0.802,0.451 1.482,1.08 2.331,1.417 1.407,0.557 4.823,1.556 6.367,1.822 1.396,0.241 2.963,0.602 4.363,0.772 0.874,0.107 1.417,0.13 2.245,0.257 0.913,0.14 1.281,0.016 2.075,0.137 l 3.33,-0.3 c 0.232,-0.134 0.209,-0.127 0.434,-0.259 0.036,-0.021 0.144,-0.08 0.179,-0.102 l 0.167,-0.111 c 0.024,-0.017 0.056,-0.042 0.08,-0.06 l 8.906,-5.049 c 0.212,-0.083 0.188,-0.078 0.435,-0.176 l 0.818,-0.331 c 0.03,-0.012 0.111,-0.042 0.142,-0.052 l 0.146,-0.046 c 0.018,-0.005 0.059,-0.015 0.077,-0.02 l 0.314,-0.074 c 0.342,-0.106 0.477,-0.188 0.892,-0.288 0.643,-0.156 1.002,-0.292 1.458,-0.739 l 0.28,-0.236 c 0.41,-0.35 0.453,-0.663 0.582,-1.146 0.237,-0.891 0.309,-1.255 0.305,-2.194 -0.009,-1.883 0.199,-9.496 -0.08,-10.61 -0.149,-0.597 -0.019,-0.898 -0.132,-1.529 -0.595,-3.303 -4.015,-10.997 -5.499,-14.631 -0.236,-0.58 -0.56,-1.125 -0.794,-1.704 -0.261,-0.645 -0.496,-1.072 -0.807,-1.693 -0.594,-1.188 -1.137,-2.274 -1.712,-3.423 -1.104,-2.21 -2.246,-4.371 -3.514,-6.48 -0.95,-1.582 -1.785,-3.157 -2.836,-4.66 -0.335,-0.48 -0.17,-0.304 -0.713,-0.536 l -0.473,-0.221 c -0.235,-0.118 -0.234,-0.112 -0.468,-0.233 l -0.837,-0.342 c -0.02,-0.007 -0.059,-0.019 -0.078,-0.026 l -0.636,-0.291 c -0.225,-0.108 -0.106,-0.053 -0.362,-0.197 l -8.491,-3.724 c -0.273,-0.148 -0.136,-0.082 -0.351,-0.182 -0.015,-0.007 -0.051,-0.023 -0.066,-0.03 l -0.152,-0.065 c -0.022,-0.009 -0.062,-0.026 -0.087,-0.036 -0.238,-0.094 -0.317,-0.11 -0.505,-0.186 l -0.469,-0.23 c -0.026,-0.015 -0.061,-0.036 -0.087,-0.051 l -2.976,-1.328 c -0.395,-0.214 -0.538,-0.188 -0.916,-0.333 l -0.55,-0.283 c -1.653,-0.93 -7.784,-0.228 -10.127,-0.422 -0.702,-0.058 -1.524,-0.091 -2.376,-0.155 -0.984,-0.074 -0.685,0.17 -0.685,1.689 -0.478,0 -1.341,-0.064 -1.765,0.04 l -1.485,0.458 c -0.681,0.146 -2.396,1.204 -2.719,1.167 -0.274,-0.031 -0.707,-0.415 -0.946,-0.582 -0.264,-0.184 -0.352,-0.418 -0.699,-0.564 -0.487,-0.205 -0.841,-0.011 -1.233,0.208 L 278,115.53 c -0.771,0.392 -1.684,0.71 -2.411,1.198 -0.672,0.451 -2.008,1.233 -2.735,1.428 0,1.117 0.277,1.797 0.277,2.915 -0.275,0.146 -0.468,0.282 -0.705,0.405 -0.372,0.194 -0.353,0.128 -0.727,0.384 -0.491,0.336 -0.752,0.658 -1.175,1.046 l -1.323,1.452 c -0.018,0.024 -0.041,0.057 -0.059,0.081 -0.017,0.023 -0.042,0.056 -0.06,0.08 -0.017,0.023 -0.043,0.055 -0.06,0.078 -0.018,0.024 -0.044,0.055 -0.061,0.079 l -0.211,0.344 c -0.243,0.479 -0.065,-0.016 -0.202,0.493 -0.545,-0.127 -1.188,-0.262 -1.704,-0.377 -0.233,-0.052 -0.246,-0.059 -0.433,-0.123 -0.477,-0.166 0.005,-0.054 -0.404,-0.15 -0.337,-0.08 -0.715,-0.043 -1.067,-0.043 -0.058,0.699 -0.49,0.955 -0.825,1.494 l -1.612,2.592 c -0.228,0.297 -1.304,1.615 -1.085,1.99 0.27,0.46 0.069,0.149 0.331,0.228 l 0,0 z"
       inkscape:connector-curvature="0"
       style="clip-rule:evenodd;fill:#4d4d4d;fill-opacity:0.83137256;fill-rule:evenodd" /><path
       id="path19-3"
       d="m 76.033,121.967 c -1.249,1.308 -6.08,10.569 -7.171,12.752 -1.129,2.259 -2.178,4.424 -3.179,6.814 -1.759,4.2 -2.68,6.619 -4.14,10.85 -0.524,1.519 -0.355,13.12 -0.363,14.354 -0.018,2.983 0.939,3.489 3.068,4.14 l 1.847,0.661 c 1.497,0.514 3.624,1.841 5.023,2.473 0.72,0.325 0.844,0.839 1.723,0.85 1.562,0.553 3.228,2.455 4.856,2.574 3.553,0.26 9.633,-0.959 13.026,-1.817 4.708,-1.19 5.678,-2.327 9.821,-5.067 1.033,-0.683 6.56,-4.674 7.388,-5.508 0.395,-0.397 0.517,-0.546 1.032,-0.909 0.615,-0.434 1.656,-1.319 1.718,-2.104 0.073,-0.923 0.029,-2.862 -0.048,-3.802 -0.658,0.338 -2.033,2.499 -2.399,2.588 -0.88,-0.127 -0.575,-0.5 -1.308,-0.112 l -3.489,2.301 c 0.033,0.567 0.306,1.667 0.318,2.204 -0.344,0.312 -3.997,2.208 -4.543,2.316 -0.62,-0.538 -1.029,-1.486 -1.666,-2.163 l -4.966,1.361 -0.002,1.149 -5.134,0.007 -0.012,-3.496 c -0.931,-0.313 -3.645,-1.612 -4.475,-1.677 l -1.928,2.171 c -0.445,-0.256 -3.719,-3.594 -3.879,-3.973 0.271,-0.469 0.445,-0.783 0.772,-1.299 1.067,-1.686 1.174,-1.132 -0.465,-3.321 -0.483,-0.645 -0.878,-1.329 -1.425,-1.86 l -3.052,0.664 c -0.235,-0.54 -0.412,-1.87 -0.557,-2.507 -0.152,-0.669 -0.466,-1.92 -0.389,-2.625 0.762,-0.473 1.851,-0.982 2.615,-1.369 l 0.009,-5.034 c -0.691,-0.464 -1.749,-0.538 -2.539,-0.768 0.075,-0.588 1.561,-5.202 1.802,-5.61 l 3.105,0.734 c 0.412,-0.762 0.899,-1.612 1.322,-2.306 0.3,-0.493 1.196,-1.866 1.285,-2.322 -0.31,-0.784 -0.957,-1.118 -1.143,-1.943 0.267,-0.34 1.038,-1.008 1.566,-1.201 l 0.255,0.252 c 0.255,-0.37 0.256,-0.336 0.576,-0.581 0.282,-0.216 0.4,-0.346 0.676,-0.573 l 1.121,-0.823 c 0.143,-0.162 0.069,0.032 0.148,-0.268 0.948,0.635 1.25,1.957 2.532,1.147 l 3.185,-1.676 c 0.187,-0.089 0.281,-0.121 0.483,-0.21 1.425,-0.633 0.788,-0.469 0.723,-1.485 -0.065,-1.017 0.267,-0.971 2.932,-0.968 1.81,0.002 3.362,0.07 4.996,0.14 0.755,0.032 1.334,0.295 2.081,0.418 l 2.897,0.706 c 0.315,0.104 0.619,0.151 0.965,0.291 l 4.411,1.974 c 0.263,0.173 0.514,0.423 0.785,0.588 l 1.354,0.881 c 0.23,0.173 0.476,0.346 0.714,0.535 l 2.096,1.79 c 2,2.004 3.328,3.634 4.619,6.208 l 2.697,6.453 c 0.158,0.367 0.182,0.505 0.317,0.943 l 2.659,11.459 c 0.005,0.024 0.011,0.065 0.016,0.088 0.004,0.021 0.01,0.062 0.014,0.083 l 1.222,5.44 c 0.066,0.24 -0.001,0.044 0.091,0.318 l 0.391,1.538 c 0.095,0.475 0.145,0.59 0.29,0.96 l 0.419,0.897 c 0.262,0.221 1.643,3.986 2.019,4.738 0.301,0.603 0.487,0.827 0.791,1.407 1.8,3.438 5.851,6.847 9.325,8.443 5.921,2.722 12.03,5.96 18.021,8.758 0.743,0.347 3.284,0.292 4.261,0.188 1.163,-0.124 3.198,-0.069 4.146,-0.283 0.444,-0.1 1.495,-0.182 1.979,-0.236 0.674,-0.074 1.32,-0.188 1.95,-0.324 1.388,-0.301 2.237,-0.686 3.492,-1.077 -0.122,-0.688 -3.253,-6.677 -4.011,-8.003 -0.536,-0.938 -2.277,-4.599 -2.552,-4.731 -1.913,-0.15 -3.898,-0.179 -5.835,-0.199 l -5.68,-0.35 c -5.364,-0.162 -5.839,0.119 -9.018,-5.781 -0.353,-0.655 -0.692,-1.407 -0.979,-2.058 -1.419,-3.222 -0.214,-2.621 1.903,-5.609 0.273,-0.385 0.264,-0.369 0.094,-0.936 -0.253,-0.844 -1.692,-6.128 -1.924,-5.748 -0.021,0.035 -0.086,-0.029 -0.116,-0.036 -0.03,-0.007 -0.082,-0.022 -0.12,-0.03 l -0.712,-0.111 c -0.984,-0.188 -3.067,-0.03 -3.406,-0.456 l -0.765,-3.686 c -0.273,-0.863 -1.118,-2.714 -1.123,-3.447 0.839,-0.517 2.051,-1.687 2.731,-1.991 l -1.675,-7.009 c -1.515,-0.04 -2.587,0.211 -4.177,0.154 -1.347,-6.132 -3.099,-4.205 -1.426,-6.655 0.194,-0.285 0.374,-0.485 0.569,-0.813 l -3.597,-5.677 c -1.264,0.064 -2.291,0.594 -3.386,0.729 -0.43,-1.492 -3.131,-3.925 -4.639,-4.486 -0.005,-3.559 1.112,-2.417 -1.842,-4.021 -5.019,-2.727 -3.786,-2.26 -6.094,-0.718 -0.941,-0.344 -1.67,-0.901 -2.762,-1.248 -1.507,-0.479 -1.771,-0.44 -3.473,-0.542 -0.019,-0.294 0.045,-1.448 -0.188,-1.647 -0.133,-0.072 -8.578,0.081 -9.679,0.08 -2.281,-0.002 -2.376,0.137 -4.1,0.949 l -17.691,7.767 0,0 z"
       inkscape:connector-curvature="0"
       style="clip-rule:evenodd;fill:#4d4d4d;fill-opacity:0.83137256;fill-rule:evenodd" /><path
       id="path21-9"
       d="M 197.401,22.669 C 100.53,22.669 22,101.199 22,198.07 c 0,96.871 78.53,175.4 175.401,175.4 96.871,0 175.401,-78.529 175.401,-175.4 0,-96.871 -78.531,-175.401 -175.401,-175.401 l 0,0 z m 0,5.401 c -93.889,0 -170,76.111 -170,170 0,93.889 76.111,170 170,170 93.888,0 170,-76.111 170,-170 0,-93.889 -76.112,-170 -170,-170 l 0,0 z"
       inkscape:connector-curvature="0"
       style="clip-rule:evenodd;fill:#4d4d4d;fill-opacity:0.83137256;fill-rule:evenodd" /></g></g></svg>