<?xml version="1.0" encoding="UTF-8" standalone="no"?>
<!-- Created with Inkscape (http://www.inkscape.org/) -->

<svg
   xmlns:dc="http://purl.org/dc/elements/1.1/"
   xmlns:cc="http://creativecommons.org/ns#"
   xmlns:rdf="http://www.w3.org/1999/02/22-rdf-syntax-ns#"
   xmlns:svg="http://www.w3.org/2000/svg"
   xmlns="http://www.w3.org/2000/svg"
   xmlns:sodipodi="http://sodipodi.sourceforge.net/DTD/sodipodi-0.dtd"
   xmlns:inkscape="http://www.inkscape.org/namespaces/inkscape"
   width="564"
   height="752"
   viewBox="0 0 564.00001 752.00001"
   id="svg4725"
   version="1.1"
   inkscape:version="0.91 r13725"
   sodipodi:docname="1.svg">
  <defs
     id="defs4727" />
  <sodipodi:namedview
     id="base"
     pagecolor="#ffffff"
     bordercolor="#666666"
     borderopacity="1.0"
     inkscape:pageopacity="0.0"
     inkscape:pageshadow="2"
     inkscape:zoom="0.7"
     inkscape:cx="249.97382"
     inkscape:cy="475.47217"
     inkscape:document-units="px"
     inkscape:current-layer="layer1"
     showgrid="false"
     units="px"
     inkscape:window-width="1920"
     inkscape:window-height="1018"
     inkscape:window-x="-8"
     inkscape:window-y="-8"
     inkscape:window-maximized="1" />
  <metadata
     id="metadata4730">
    <rdf:RDF>
      <cc:Work
         rdf:about="">
        <dc:format>image/svg+xml</dc:format>
        <dc:type
           rdf:resource="http://purl.org/dc/dcmitype/StillImage" />
        <dc:title></dc:title>
      </cc:Work>
    </rdf:RDF>
  </metadata>
  <g
     inkscape:label="Capa 1"
     inkscape:groupmode="layer"
     id="layer1"
     transform="translate(0,-300.3621)">
    <rect
       style="fill:#f9a825;fill-opacity:1"
       id="rect5531"
       width="564"
       height="752"
       x="0"
       y="300.36209" />
    <g
       id="g5614"
       transform="matrix(1.3943531,0,0,1.3563805,-107.30472,-231.70884)">
      <path
         style="fill:#963f04"
         inkscape:connector-curvature="0"
         d="m 457.73095,709.81608 c -10.88288,-6.72186 -8.58647,-15.36657 -5.2165,-25.87328 2.94054,-5.44402 5.54368,-12.08272 7.11415,-20.59559 5.73591,-31.11853 -11.71105,-46.97596 -24.66949,-58.60027 -16.69853,-14.967 -3.58673,-22.17363 -0.85476,-37.07572 4.81979,-26.31343 -17.74551,-34.5403 -14.62911,-49.06106 5.67456,-26.41485 -16.72716,-57.69564 -44.24926,-84.36606 l -0.008,0.0122 c -12.84393,-17.45169 -32.71407,-25.10861 -55.51863,-27.88538 -44.95475,-5.46633 -73.44818,25.4088 -90.17125,69.27128 -21.34451,55.98576 4.71755,122.19833 62.06635,129.48406 9.34921,1.19266 76.58299,95.19324 80.51735,111.87011 3.93027,16.6789 68.04763,6.83342 56.3059,36.094 -5.29625,13.19627 2.42933,16.22456 7.21231,15.55724 11.60677,-1.61252 5.94653,-11.9813 5.94653,-11.9813 0,0 0.44783,8.68933 -5.6357,7.62243 -2.69516,-0.47057 -5.32488,-3.17229 -0.3599,-9.23089 8.43515,-10.312 12.96457,-14.31388 2.94259,-30.67027 -6.36573,-10.39921 -3.67466,-16.08866 1.70543,-23.11882 0.19631,1.08921 0.47032,2.1987 0.84249,3.32442 2.90783,8.8232 16.22821,13.64858 18.18108,19.89176 1.95286,6.23101 -16.1546,9.22684 -8.25112,23.02552 -0.52349,-11.42149 6.03037,-9.50472 11.754,-12.80075 10.01994,-5.76652 7.12847,-17.38678 -5.02428,-24.8936 z"
         id="path99" />
      <polygon
         transform="matrix(2.044885,0,0,2.0283227,-1212.298,-255.46675)"
         style="fill:#e27d39"
         points="718.926,399.623 713.844,399.125 710.029,391.816 708.52,380.33 713.844,383.773 "
         id="polygon101" />
      <path
         style="fill:#3e5068"
         inkscape:connector-curvature="0"
         d="m 331.36728,605.12826 c 0,0 -6.29415,-1.58412 -9.07724,-1.11355 -2.78309,0.46449 2.31685,6.80502 2.31685,6.80502 0,0 6.26758,-3.4664 6.76039,-5.69147 z"
         id="path103" />
      <path
         style="fill:#fcc397"
         inkscape:connector-curvature="0"
         d="m 340.74921,624.47237 c -12.58013,-4.29801 -18.65139,-17.04196 -17.81299,-25.00516 0.32718,-3.1013 2.9794,-24.73945 2.9794,-24.73945 -15.91125,7.64272 -28.98829,13.37476 -28.98829,13.37476 0,0 -12.39405,-7.22286 -27.11518,-15.02987 0,0 -2.69106,22.22027 -2.94668,24.13704 -3.10822,23.37642 -17.09319,24.11473 -33.54429,27.29108 l 19.28736,82.79208 88.14067,-82.82048 z"
         id="path105" />
      <path
         style="fill:#ea9f6c"
         inkscape:connector-curvature="0"
         d="m 270.88981,564.34275 -1.74633,14.10698 c 9.1938,8.09707 17.22202,13.38287 21.36291,15.89799 1.90174,1.15615 4.07341,1.48068 6.01401,0.95534 5.04473,-1.37114 15.82741,-4.6266 28.13353,-10.33227 l 1.7177,-13.88184 -55.48182,-6.7462 z"
         id="path107" />
      <path
         style="fill:#fcc397"
         inkscape:connector-curvature="0"
         d="m 372.1198,505.59238 c -1.71362,-0.81539 -3.68693,-0.83567 -5.71546,-0.21095 4.32493,-18.61594 7.79306,-37.4834 5.45576,-42.33718 -11.07101,-22.98495 -32.88176,-38.41846 -56.47359,-42.18302 -0.004,0 -0.004,0 -0.004,0 -0.004,0 -0.004,0 -0.004,0 -23.81269,-1.99993 -48.73779,7.75225 -65.07642,27.40264 -3.41496,4.10329 -4.65212,22.91396 -5.00793,41.82198 -1.33735,-0.52736 -2.70742,-0.69774 -4.04887,-0.42797 -5.82383,1.18859 -8.90956,10.03817 -6.89331,19.75992 1.66249,7.99362 6.25531,14.08264 11.07101,15.3402 0.11656,5.37911 0.23516,8.7583 0.23516,8.7583 7.77261,31.69254 36.32943,50.29226 45.71136,55.62472 1.89357,1.07298 4.12249,1.38737 6.02628,0.85595 10.06901,-2.793 42.79944,-13.92443 58.21174,-43.10591 0,0 0.93451,-3.24126 2.35571,-8.41754 5.22877,1.00605 12.03415,-3.96943 15.9685,-12.04418 4.35561,-8.94288 3.54379,-18.26505 -1.81176,-20.83696 z"
         id="path109" />
      <path
         style="fill:#663412"
         inkscape:connector-curvature="0"
         d="m 322.66425,492.19531 c 1.24125,-0.65312 10.94014,-5.07486 19.95808,-3.56174 3.8178,0.64095 6.70927,2.59017 10.66407,6.14785 -2.68697,-0.7018 -6.72562,-3.42989 -10.30417,-3.82339 -8.28383,-0.9026 -16.46746,2.98366 -19.17489,4.42175 -2.40887,1.26364 -3.54787,-1.92083 -1.14309,-3.18447 z"
         id="path111" />
      <path
         style="fill:#663412"
         inkscape:connector-curvature="0"
         d="m 291.49611,488.4206 c -1.08992,-0.99388 -11.83374,-7.65692 -18.21583,-7.58998 -3.15526,0.15415 -6.61725,1.04661 -10.30009,3.09319 -9.40238,5.22901 3.51107,-2.06889 9.84203,-0.5943 7.84827,1.82955 14.61684,5.9227 16.811,7.91857 1.94265,1.77478 3.80758,-1.05675 1.86289,-2.82748 z"
         id="path113" />
      <path
         style="fill:#ffffff"
         inkscape:connector-curvature="0"
         d="m 290.35302,505.25568 c -7.34522,1.47459 -10.24487,2.59828 -14.08721,2.28592 -5.60298,-0.45232 -9.78068,-4.14386 -9.3533,-7.60216 0.42738,-3.45829 5.30034,-5.71581 10.87879,-5.03835 5.58049,0.68152 12.09345,7.66098 12.56172,10.35459 z"
         id="path115" />
      <path
         style="fill:#7b9368"
         inkscape:connector-curvature="0"
         d="m 282.45772,502.00428 c -0.4192,3.39947 -3.39451,5.83548 -6.64178,5.43996 -3.25546,-0.39147 -5.54778,-3.47452 -5.12857,-6.86993 0.4192,-3.40353 3.3945,-5.84765 6.64996,-5.44807 3.24728,0.39349 5.53959,3.47451 5.12039,6.87804 z"
         id="path117" />
      <path
         inkscape:connector-curvature="0"
         d="m 280.83613,501.18078 c -0.28833,2.3062 -2.3005,3.9532 -4.50897,3.68343 -2.2003,-0.26571 -3.7585,-2.3488 -3.47426,-4.65094 0.28424,-2.31837 2.30458,-3.96132 4.50897,-3.69561 2.20439,0.26977 3.75645,2.3488 3.47426,4.66312 z"
         id="path119" />
      <ellipse
         style="fill:#ffffff"
         transform="matrix(0.9927335,0.12033372,-0.12227766,0.99249593,0,0)"
         cx="338.75641"
         cy="463.13565"
         rx="1.9096658"
         ry="1.4686595"
         id="ellipse121" />
      <path
         inkscape:connector-curvature="0"
         d="m 289.78659,503.66345 c -3.57855,-8.66297 -13.82751,-10.23289 -20.8292,-8.57778 -6.1551,1.45836 -7.1571,0.17038 -7.36158,-0.14198 -0.19222,2.26969 2.24119,7.23705 8.29201,10.31605 -1.54594,-1.12167 -2.58883,-2.52324 -2.89965,-3.97755 1.06947,-3.60027 9.26128,-4.84566 14.40212,-2.59828 7.40044,3.23721 8.96682,6.61234 8.96682,6.61234 -0.0511,-0.5436 -0.35581,-1.11355 -0.57052,-1.6328 z"
         id="path123" />
      <path
         style="fill:#ffffff"
         inkscape:connector-curvature="0"
         d="m 319.69712,508.82553 c 6.87286,3.20069 9.45351,4.9917 13.30812,5.61845 5.62752,0.91072 10.64362,-1.66322 11.071,-5.11746 0.42738,-3.45829 -3.81371,-6.8253 -9.47804,-7.51088 -5.65615,-0.69165 -13.78661,4.50694 -14.90108,7.00989 z"
         id="path125" />
      <ellipse
         style="fill:#7b9368"
         transform="matrix(-0.99270978,-0.12052925,0.12247625,-0.99247144,0,0)"
         cx="-393.96216"
         cy="-464.306"
         rx="6.0153866"
         ry="6.2034144"
         id="ellipse127" />
      <path
         inkscape:connector-curvature="0"
         d="m 330.06878,507.16636 c -0.28833,2.30214 1.2985,4.39335 3.53152,4.66311 2.2371,0.27383 4.2779,-1.3752 4.56009,-3.67735 0.28833,-2.31026 -1.29441,-4.40146 -3.53152,-4.67122 -2.23097,-0.26977 -4.27381,1.3752 -4.56009,3.68546 z"
         id="path129" />
      <ellipse
         style="fill:#ffffff"
         transform="matrix(-0.99258914,-0.12151874,0.12348122,-0.99234691,0,0)"
         cx="-397.66092"
         cy="-463.06906"
         rx="1.9404216"
         ry="1.4667035"
         id="ellipse131" />
      <path
         inkscape:connector-curvature="0"
         d="m 350.53808,505.75465 c -0.28015,0.25759 -1.57661,1.26364 -7.28184,-1.6328 -6.49046,-3.29603 -16.96232,-4.24731 -22.61438,3.29602 -0.33536,0.4442 -0.77501,0.92694 -0.96314,1.43808 0,0 2.37207,-2.89239 10.44732,-4.24731 5.61116,-0.94317 13.36332,2.23927 13.54736,5.98964 -0.65845,1.33464 -2.02853,2.45224 -3.83007,3.16621 4.04478,-0.91883 10.03425,-3.98768 10.69475,-8.00984 z"
         id="path133" />
      <path
         style="fill:#b7642c"
         inkscape:connector-curvature="0"
         d="m 392.58092,484.29905 c 4.9568,-40.09183 -27.47099,-77.03367 -72.42574,-82.5 -44.94657,-5.46227 -85.40667,22.61174 -90.36143,62.70763 -1.66862,13.48834 -0.49077,26.41484 3.96299,37.90732 0.28833,-6.65087 3.11436,-11.86163 7.48837,-12.75612 0.98564,-0.19878 1.98558,-0.1501 2.9794,0.0872 1.13491,8.69137 2.71152,14.79256 3.29431,10.09091 0.68708,-5.54949 3.07551,-15.62011 4.93635,-23.01741 3.66648,-9.90835 3.90164,-27.40669 32.44619,-25.54064 -0.38035,-23.64618 84.43944,-16.80059 80.46623,41.46501 -0.0675,7.25328 -0.28833,16.04403 -0.9018,21.00328 -0.57461,4.65094 2.25755,-0.72817 5.32079,-8.75424 0.81387,0.071 1.60524,0.24542 2.33731,0.59835 4.21041,2.01615 5.5948,8.21268 3.88937,15.11709 8.90343,-10.1193 14.85813,-22.55495 16.56766,-36.40839 z"
         id="path135" />
      <path
         style="fill:#ea9f6c"
         inkscape:connector-curvature="0"
         d="m 304.96577,536.42491 -7.62128,-0.92288 c -2.53157,-0.30831 -4.45785,-2.31432 -5.0202,-4.87609 -0.34763,0.7018 -0.59915,1.48067 -0.70344,2.31026 -0.44783,3.62055 3.86279,5.3284 7.14892,5.72798 l 4.04274,0.49086 c 3.28204,0.39552 7.88099,-0.22109 8.32677,-3.84976 0.10429,-0.82756 0.047,-1.64091 -0.12065,-2.40559 -1.16354,2.3488 -3.52333,3.83556 -6.05286,3.52522 z"
         id="path137" />
      <path
         style="fill:#ea9f6c"
         inkscape:connector-curvature="0"
         d="m 236.56641,496.02884 c 0.0368,-0.76062 1.93651,-3.95726 3.7176,-3.15404 2.72379,1.23119 3.83416,6.92063 4.35357,12.53503 0.51531,5.61846 -0.53576,9.53515 -0.98564,7.98754 -0.64209,-2.17842 -0.63187,-8.91043 -3.22274,-15.55318 -1.72588,-4.41363 -4.14498,4.15603 -3.86279,-1.81535 z"
         id="path139" />
      <path
         style="fill:#ea9f6c"
         inkscape:connector-curvature="0"
         d="m 375.15645,512.87812 c 0.15541,-0.74034 -0.91406,-4.30613 -2.84035,-3.94915 -2.94258,0.54359 -5.40872,5.79492 -7.27774,11.12332 -1.86494,5.32435 -1.80563,9.37694 -0.98564,7.98348 1.15332,-1.96139 2.77491,-8.49461 6.91376,-14.31793 2.74833,-3.86598 3.01212,5.0201 4.18997,-0.83972 z"
         id="path141" />
      <path
         style="fill:#ffb18a"
         inkscape:connector-curvature="0"
         d="m 279.47424,528.04388 c -2.06125,4.49274 -9.63346,5.47039 -16.9112,2.18654 -7.26957,-3.28792 -11.49839,-9.59194 -9.43306,-14.08265 2.06534,-4.4907 9.62937,-5.47038 16.90711,-2.18247 7.26752,3.28994 11.49635,9.58991 9.43715,14.07858 z"
         id="path143" />
      <path
         style="fill:#ffb18a"
         inkscape:connector-curvature="0"
         d="m 323.62944,533.41488 c 0.90179,4.85378 8.01595,7.61838 15.86831,6.16813 7.85644,-1.44619 13.49624,-6.55148 12.58422,-11.40526 -0.90589,-4.84972 -8.01595,-7.61432 -15.86831,-6.16407 -7.86258,1.44619 -13.4942,6.54945 -12.58422,11.4012 z"
         id="path145" />
      <path
         style="fill:#c6523c"
         inkscape:connector-curvature="0"
         d="m 280.67663,548.033 c -2.14918,-1.22105 -2.56429,-0.85189 -2.88329,-0.5659 -0.42738,0.40364 -0.55825,0.34887 0.66663,2.48875 0.59506,1.02634 2.63995,4.53128 2.63995,4.53128 0,0 4.88523,12.64456 16.89075,13.5715 12.00552,0.91478 18.11564,-8.07272 19.27509,-9.92458 0.66663,-1.05473 2.17371,-2.6429 2.59904,-3.22098 1.41711,-1.92487 1.23716,-2.00398 0.98155,-2.34474 -0.69935,-0.95939 -0.85067,-0.49896 -2.42523,0.0629 -0.60734,0.21095 -10.08947,0.72817 -19.6493,-0.68151 -9.54553,-1.40969 -16.40203,-2.96541 -18.09519,-3.9167 z"
         id="path147" />
      <path
         style="fill:#ffffff"
         inkscape:connector-curvature="0"
         d="m 309.51973,558.67359 c 2.94668,-0.53143 4.13271,-2.91673 5.24309,-5.95922 -3.68693,0.1075 -10.42892,0 -17.25679,-1.12166 -5.40054,-0.88435 -10.94422,-1.72002 -14.72522,-2.82545 0.31901,3.64895 0.89566,4.11952 3.6992,5.98152 -2.37615,-0.15821 -3.09595,2.00398 -3.10413,4.63877 3.19615,3.58608 9.14268,7.2614 14.17514,7.72183 7.51291,0.6734 12.37769,-0.93911 15.30392,-4.12358 -0.41511,-1.70988 -1.32304,-3.99174 -3.33521,-4.31221 z"
         id="path149" />
      <path
         style="fill:#fc7365"
         inkscape:connector-curvature="0"
         d="m 281.21034,548.31088 c 0,0 0.36808,3.28792 16.31614,5.10732 15.81514,1.80724 19.44686,-0.62269 19.44686,-0.62269 0,0 -11.754,-2.83154 -18.25265,-3.509 -5.9956,-0.62675 -17.51035,-0.97563 -17.51035,-0.97563 z"
         id="path151" />
      <path
         style="fill:#5a6c92"
         inkscape:connector-curvature="0"
         d="m 347.0311,795.08068 c 0.1595,-1.02227 0.35581,-2.07903 0.54394,-3.13376 0.31082,-1.72813 0.65845,-3.49074 1.04289,-5.29595 4.94862,-23.10057 15.89489,-52.18671 28.01697,-73.91208 0.81387,-1.25147 10.18353,-83.36 0.55417,-83.36 l -29.03533,-5.12963 c -0.19222,0.12373 -0.37217,0.24543 -0.56234,0.37321 l -14.00746,-3.05871 c -18.95609,4.7625 -36.81202,5.20467 -45.54164,20.2954 -3.11845,5.39128 -22.55303,37.22986 -22.55303,37.22986 0,0 -12.03415,-57.23724 -19.00721,-59.17023 0,0 -52.09753,6.98757 -56.32227,9.46821 -4.22882,2.48469 -7.82373,5.59411 -11.66198,13.75 -3.83824,8.15588 -11.38592,30.17941 -15.46546,52.91894 -4.08159,22.74358 -12.23659,57.24129 -12.23659,57.24129 l 35.16997,7.89221 3.85461,-18.3401 c 4.42104,10.52497 12.94004,18.93034 23.60002,23.22024 2.58474,9.27755 4.64393,18.97293 6.08353,29.0111 0.48669,3.39136 0.91407,6.75432 1.31486,10.1051 0.31901,2.66319 0.60325,5.30813 0.86704,7.94292 0.50713,5.16613 0.89566,10.26939 1.14718,15.29963 0.092,1.77479 0.16359,3.5374 0.2188,5.29595 0.19222,6.15596 0.18813,12.20239 -0.092,18.07642 -8.06707,6.05251 -15.16487,13.2348 -21.20341,21.28522 8.84617,2.57799 21.08481,5.98152 25.30954,6.38516 10.04038,0.95939 16.61878,-9.31001 16.61878,-9.31001 0,0 -3.7585,14.93454 23.21967,17.11499 27.11108,2.18653 81.66044,-3.64084 103.99058,-6.26752 -7.20004,-11.60403 -16.49404,-21.74564 -27.34216,-29.73115 -0.0961,-2.11148 -0.15541,-6.73403 -0.19222,-8.89014 -0.0327,-1.65917 -0.0245,-0.84784 -0.0204,-2.53135 0.0368,-14.29764 1.27397,-29.36402 3.69102,-44.77522 z"
         id="path153" />
      <path
         style="fill:#fc7365"
         inkscape:connector-curvature="0"
         d="m 279.37813,551.40813 c 0,0 0.80773,15.25299 16.7701,17.71132 14.88881,2.28997 22.5653,-12.98938 22.5653,-12.98938 0,0 -6.80128,7.9064 -20.6881,6.67115 -13.89499,-1.2393 -18.6473,-11.39309 -18.6473,-11.39309 z"
         id="path155" />
      <path
         style="fill:#3e5068"
         inkscape:connector-curvature="0"
         d="m 196.34762,684.25516 c 0,0 -8.69486,38.18926 -9.99745,50.58231 -0.3599,3.41569 -4.62144,-3.82339 -4.62144,-3.82339 0,0 2.33731,-28.03548 14.61889,-46.75892 z"
         id="path157" />
      <path
         style="fill:#3e5068"
         inkscape:connector-curvature="0"
         d="m 286.07103,766.53001 c -6.70926,-1.03039 -18.75159,-6.0586 -22.70231,-11.96913 2.43546,9.3384 10.6559,15.22459 15.86831,16.8939 34.79167,11.12332 52.91549,-20.97692 52.91549,-20.97692 -10.3962,7.93886 -28.43617,18.7701 -46.08149,16.05215 z"
         id="path159" />
      <path
         style="fill:#3e5068"
         inkscape:connector-curvature="0"
         d="m 270.7344,671.22521 c 0,0 -21.87414,34.04946 -23.65932,63.49259 -4.20633,46.86237 -3.39451,135.44733 -3.39451,135.44733 0,0 -2.53975,-28.54661 -2.779,-50.07117 -0.18813,-17.11093 0.9386,-46.50133 2.40887,-79.04577 1.06948,-23.67864 9.90543,-43.68398 22.17883,-61.95917 1.32304,-2.74026 5.24513,-7.86381 5.24513,-7.86381 z"
         id="path161" />
      <path
         style="fill:#3e5068"
         inkscape:connector-curvature="0"
         d="m 259.06833,808.79214 c 2.98349,-4.78075 71.52803,-13.04211 88.50467,-16.84522 0.31082,-1.72813 0.65845,-3.49074 1.04289,-5.29595 -0.53167,0.0913 -1.05516,0.19066 -1.55412,0.30425 -5.38827,1.27582 -18.0093,3.20881 -31.37671,5.26553 -39.75461,6.11336 -55.68017,-6.98352 -60.78421,-4.20675 -11.95235,-0.87623 -8.38607,20.08446 4.16748,20.77814 z"
         id="path163" />
      <polygon
         transform="matrix(2.044885,0,0,2.0283227,-1212.298,-255.46675)"
         style="fill:#3e5068"
         points="754.719,424.755 766.184,434.996 737.537,458.171 731.982,446.396 722.674,460.865 731.73,440.416 "
         id="polygon165" />
      <polygon
         transform="matrix(2.044885,0,0,2.0283227,-1212.298,-255.46675)"
         style="fill:#5a6c92"
         points="754.891,424.289 767.377,434.156 738.176,454.722 731.73,440.416 "
         id="polygon167" />
      <path
         style="fill:#3e5068"
         inkscape:connector-curvature="0"
         d="m 265.73056,603.13442 c 0,0 -3.77894,11.03002 -4.98134,29.93399 l 4.73596,46.24778 -19.89673,-45.91108 -17.16886,-10.50671 37.31097,-19.76398 z"
         id="path169" />
      <path
         style="fill:#3f3f3f"
         inkscape:connector-curvature="0"
         d="m 385.35634,917.62383 c -31.52395,13.9366 -66.43832,21.69291 -103.17468,21.69291 -35.718,0 -69.70604,-7.3405 -100.53063,-20.54894 2.24119,-11.93262 6.36981,-23.15533 12.03824,-33.33346 2.41296,-4.31018 5.12039,-8.42565 8.06298,-12.34842 8.84617,2.57799 21.08481,5.98152 25.30954,6.38516 10.04038,0.95939 16.61878,-9.31001 16.61878,-9.31001 0,0 -3.7585,14.93454 23.21967,17.11499 27.11108,2.18653 81.66044,-3.64084 103.99058,-6.26752 0.75047,1.20888 1.49686,2.41574 2.20439,3.65301 5.70727,10.06048 9.90951,21.15744 12.26113,32.96228 z"
         id="path171" />
      <polygon
         transform="matrix(2.044885,0,0,2.0283227,-1212.298,-255.46675)"
         style="fill:#5a6c92"
         points="714.324,437.207 721.865,423.816 704.5,433.031 "
         id="polygon173" />
      <polygon
         transform="matrix(2.044885,0,0,2.0283227,-1212.298,-255.46675)"
         style="fill:#ea9f6c"
         points="694.619,523.846 689.125,525.742 669.152,515.986 663.229,510.955 663.506,510.393 "
         id="polygon175" />
      <path
         style="fill:#fcc397"
         inkscape:connector-curvature="0"
         d="m 195.29041,737.59396 c -3.77077,-2.24535 -6.29416,-4.63878 -6.29416,-4.63878 0,0 -4.73595,3.55768 -1.26578,9.39722 -0.79137,1.05676 -2.01626,2.77678 -3.60309,5.29595 -2.84852,4.52316 -15.68835,-19.1068 -15.68835,-19.1068 l -4.26155,-0.64095 c -1.41301,0.8803 -6.82582,2.00804 -9.01794,7.46423 -0.24334,0.81539 -1.08583,1.88634 -1.73406,2.83965 -0.64823,0.95332 -4.20633,4.13575 -4.73595,7.50683 -0.53576,3.37513 0.12064,4.60023 -0.44374,5.59005 -0.45192,0.79308 -2.92419,8.0423 -0.73003,15.47813 0.93451,5.91054 14.73749,14.4011 26.10091,5.79087 2.80354,-0.22515 6.70927,-0.0953 11.18348,-7.05248 0.004,-0.004 12.96457,-21.29131 12.96457,-21.29131 0.38035,-1.05472 1.2985,-4.38929 -2.47431,-6.63261 z"
         id="path177" />
      <path
         style="fill:#ea9f6c"
         inkscape:connector-curvature="0"
         d="m 178.47941,760.66207 c 0,0 -7.6356,-5.61034 -9.54143,-6.69143 -1.90175,-1.0811 -7.9362,-4.24325 -11.80512,-4.84161 -3.87711,-0.5943 -4.32085,7.16201 -1.90584,9.02401 1.27397,0.98171 1.29442,0.51925 2.63586,0.61864 -2.78718,1.52935 -5.66638,3.05059 -3.80144,2.69969 2.29231,-0.43609 2.53975,-1.42794 6.71336,-2.02629 1.38643,0.46043 3.25545,1.19671 5.87904,2.42587 11.18757,5.20265 11.90532,0.20689 11.82557,-1.20888 z"
         id="path179" />
      <path
         style="fill:#fcc397"
         inkscape:connector-curvature="0"
         d="m 177.63283,759.49376 c 0.0879,1.41577 0.66254,6.36285 -10.5966,1.32449 -7.78487,-3.4948 -12.14457,-0.81741 -14.56571,-2.6713 -2.41706,-1.862 1.16558,-10.66897 5.04064,-10.07062 3.87506,0.60241 9.9136,3.7666 11.8133,4.84161 1.90583,1.08109 8.30837,6.57582 8.30837,6.57582 z"
         id="path181" />
      <path
         style="fill:#e26954"
         inkscape:connector-curvature="0"
         d="m 171.14236,759.8548 c 0,0 0.86703,-2.16219 1.52958,-2.73418 1.24533,0.17038 4.13271,1.79912 4.7564,2.28592 0.91815,0.72006 1.19421,2.73418 -0.90179,2.75041 -1.64205,0.0122 -5.38419,-2.30215 -5.38419,-2.30215 z"
         id="path183" />
      <path
         style="fill:#ea9f6c"
         inkscape:connector-curvature="0"
         d="m 177.70031,749.26493 c 0,0 -15.16896,-2.03644 -20.13394,-1.82955 -2.6195,-0.35698 -5.17151,-0.0913 -5.17151,-0.0913 -0.91407,-0.53548 -1.69726,-0.0203 -1.59297,0.51519 0.10838,0.53142 -0.0716,0.46651 1.97741,0.31642 2.06124,-0.15821 2.78308,-0.50708 4.73186,-0.0994 0.39466,0.0832 0.88339,0.24137 1.40893,0.42798 3.81371,2.52323 11.24686,6.31011 12.18138,6.92875 0.96314,0.645 7.22048,12.2105 16.02371,3.56173 l -9.42487,-9.72986 z"
         id="path185" />
      <path
         style="fill:#ea9f6c"
         inkscape:connector-curvature="0"
         d="m 182.46489,741.27536 c -1.82608,-1.84171 -16.9296,-4.58806 -21.01528,-4.20268 -0.9795,-0.17444 -2.15736,-0.18255 -3.6583,0.12778 -0.92633,0.18661 -2.0408,-0.43609 -2.3005,0.55779 -0.26379,0.98982 2.22075,0.20284 2.75651,0.10345 0.53985,-0.11156 1.98558,-0.19472 3.01211,0.0791 1.5623,0.40769 10.2367,6.84559 13.97884,10.2694 1.79745,1.64497 8.58238,11.98739 16.24252,3.93292 -0.002,-0.002 -7.18573,-9.02198 -9.0159,-10.86776 z"
         id="path187" />
      <g
         transform="matrix(2.044885,0,0,2.0283227,-1212.298,-255.46675)"
         id="g189">
        <path
           style="fill:#c2c4c2"
           inkscape:connector-curvature="0"
           d="m 676.111,476.341 c -0.205,-0.469 -0.131,-0.957 0.162,-1.082 l 1.309,-0.57 c 0.295,-0.125 0.699,0.152 0.902,0.623 l 0.848,1.951 c 0.203,0.471 0.133,0.953 -0.162,1.082 l -1.311,0.568 c -0.293,0.127 -0.697,-0.152 -0.9,-0.621 l -0.848,-1.951 z"
           id="path191" />
        <rect
           style="fill:#369e3b"
           x="669.56097"
           y="487.53201"
           transform="matrix(-0.3982,-0.9173,0.9173,-0.3982,505.6648,1308.1246)"
           width="24.792"
           height="1.298"
           id="rect193" />
        <polygon
           style="fill:#72dd5b"
           points="678.795,476.033 688.666,498.773 687.488,499.289 677.617,476.542 "
           id="polygon195" />
        <rect
           style="fill:#40c140"
           x="670.17499"
           y="487.22699"
           transform="matrix(-0.3982,-0.9173,0.9173,-0.3982,506.8275,1308.2666)"
           width="24.790001"
           height="1.299"
           id="rect197" />
        <polygon
           style="fill:#fcea9d"
           points="689.482,503.9 688.664,498.761 686.287,499.794 "
           id="polygon199" />
        <polygon
           style="fill:#515151"
           points="689.209,502.17 688.404,502.52 689.482,503.9 "
           id="polygon201" />
        <rect
           style="fill:#3a3a3a"
           x="676.57202"
           y="476.44199"
           transform="matrix(-0.9177,0.3973,-0.3973,-0.9177,1489.4985,645.6903)"
           width="2.586"
           height="1.386"
           id="rect203" />
      </g>
      <path
         style="fill:#fcc397"
         inkscape:connector-curvature="0"
         d="m 182.01706,740.84333 c -1.62977,-1.64902 -8.7153,-7.78876 -10.60886,-9.50066 0.12474,-0.43203 -0.13905,-1.4178 0.63596,-0.91883 2.06124,1.33463 5.58049,4.32641 6.60907,5.14585 5.17969,4.13981 8.25111,2.57597 11.071,-0.77684 -10.5925,-12.0239 -15.43683,-14.06845 -17.51648,-15.20837 -2.08169,-1.13789 -5.34738,-0.13387 -6.6377,2.86399 -1.29441,3.00598 -2.2964,6.00992 -2.42114,6.36691 -0.0879,0.24543 1.44982,0.12981 3.41905,0.32453 -0.63596,0.13387 -1.29442,0.45232 -1.94469,1.09327 -2.00194,1.97355 -4.16952,4.81726 -3.84234,6.4886 0.13087,0.6734 1.60933,0.35293 2.37207,0.89043 2.46817,1.74639 8.84617,5.78072 12.5924,9.2025 1.78518,1.64497 7.99959,11.72979 14.81724,5.36492 0.002,0.002 -6.71541,-9.49864 -8.54558,-11.3363 z"
         id="path205" />
      <path
         style="fill:#fcc397"
         inkscape:connector-curvature="0"
         d="m 186.57102,759.01507 -9.42896,-9.7258 c 0,0 -12.36951,-9.89213 -13.33265,-10.53308 -0.96315,-0.64095 -1.88539,-1.66323 -4.1184,0.89449 -1.80973,2.07497 -5.12448,4.98359 -3.80962,7.0038 0.31491,0.47868 1.6175,0.7809 2.70333,1.21699 4.13067,1.67945 11.93395,5.87402 12.90118,6.517 0.96723,0.64501 7.2573,11.02799 15.08512,4.6266 z"
         id="path207" />
      <path
         style="fill:#e26954"
         inkscape:connector-curvature="0"
         d="m 180.16849,732.27367 c 0,0 1.79745,-2.35286 2.79944,-2.82951 1.47028,0.62675 4.44558,3.58607 5.04473,4.39335 0.87931,1.18454 0.52758,3.74022 -2.04488,3.05465 -2.00808,-0.53345 -5.79929,-4.61849 -5.79929,-4.61849 z"
         id="path209" />
      <path
         style="fill:#e26954"
         inkscape:connector-curvature="0"
         d="m 190.80802,752.36218 -4.23291,-5.7361 c 0,0 -1.06334,0.0325 -1.92424,0.59836 -0.86089,0.5659 2.35162,4.99575 3.32703,5.29189 0.97337,0.29411 2.83012,-0.15415 2.83012,-0.15415 z"
         id="path211" />
      <path
         style="fill:#e26954"
         inkscape:connector-curvature="0"
         d="m 186.67122,758.85281 -5.08767,-5.01199 c 0,0 -1.04699,0.20284 -1.80564,0.89044 -0.76274,0.69368 3.11845,4.56372 4.12658,4.70571 1.00813,0.14198 2.76673,-0.58416 2.76673,-0.58416 z"
         id="path213" />
      <path
         style="fill:#ffffff"
         inkscape:connector-curvature="0"
         d="m 85.404425,748.01345 c 0,0 2.439548,-2.78488 8.954551,-2.76866 6.506824,0.0162 43.357694,22.96264 43.357694,22.96264 l 59.85992,-7.95508 -1.16149,14.52888 -56.6699,2.31026 -5.51506,-1.04256 -2.83216,-1.22714 -0.46419,-1.88634 -45.53141,-24.44331 0,-0.47869 z"
         id="path215" />
      <polygon
         transform="matrix(2.044885,0,0,2.0283227,-1212.298,-255.46675)"
         style="fill:#dbdbdb"
         points="689.465,500.767 732.156,519.072 732.156,521.764 689.125,504.689 "
         id="polygon217" />
      <path
         style="fill:#752b0b"
         inkscape:connector-curvature="0"
         d="m 84.130462,747.33599 47.887118,25.36621 c 0,0 0.93042,3.22909 8.13864,2.3062 7.20413,-0.91883 56.25888,-6.22695 56.25888,-6.22695 l 89.04042,35.74513 -58.81907,11.29776 -89.50461,-37.81808 c 0,0 -5.29217,-1.15209 -6.51092,-3.91872 -1.21875,-2.76866 -46.492503,-25.14106 -46.492503,-25.14106 l 0,-1.61049 z"
         id="path219" />
      <polygon
         transform="matrix(2.044885,0,0,2.0283227,-1212.298,-255.46675)"
         style="fill:#9b5e26"
         points="688.896,504.973 661.184,508.064 689.203,504.113 732.439,521.572 732.439,522.596 "
         id="polygon221" />
      <path
         style="fill:#fcc397"
         inkscape:connector-curvature="0"
         d="m 143.92903,780.91488 c 0,0 25.57743,14.35241 28.69587,15.6911 7.95256,3.41975 19.78222,10.22883 25.26456,10.88195 2.36389,0.27788 -24.42615,-11.33021 -27.58959,-15.03393 -1.70543,-1.99181 -1.4171,-5.65293 2.94259,-5.68539 10.54343,-0.0791 18.75569,7.68532 35.399,9.11529 18.95609,1.62874 20.41205,14.09887 20.41205,14.09887 0,0 9.26946,12.1821 -5.77476,14.56741 -18.47553,2.93093 -45.55799,-6.4886 -53.9093,-11.95696 -1.82608,-1.19671 -22.04182,-27.01726 -26.91478,-32.02519 0.43556,0.10142 0.94269,0.22109 1.47436,0.34685 z"
         id="path223" />
      <path
         style="fill:#e26954"
         inkscape:connector-curvature="0"
         d="m 177.92116,791.1721 c 0,0 -1.19013,2.91673 -2.08579,3.67735 -1.68498,-0.23325 -5.5764,-2.46035 -6.4148,-3.12564 -1.23716,-0.98171 -1.58888,-3.70372 1.24534,-3.70778 2.2187,-0.002 7.25525,3.15607 7.25525,3.15607 z"
         id="path225" />
      <path
         style="fill:#5a6c92"
         inkscape:connector-curvature="0"
         d="m 400.60095,654.84042 c -5.46393,-20.39073 -17.09728,-27.9726 -33.56883,-26.35197 -31.1211,2.95527 -25.63672,49.20711 -24.16236,55.79105 2.77491,12.39102 6.10603,24.57718 12.76008,31.80004 3.80144,26.01932 5.46803,49.80546 4.04683,59.28179 -0.85885,5.73609 -1.88129,11.26327 -2.3373,15.81077 -3.4988,-0.16226 -6.64588,0.0426 -9.11406,0.62675 -15.80696,3.73618 -86.1326,12.14966 -89.15698,16.99532 -12.55355,-0.69369 -30.68555,-4.26759 -30.68555,-4.26759 0,0 -10.12422,7.56362 -9.65799,22.43528 13.48397,5.29595 36.0411,8.69542 36.0411,8.69542 0,0 -0.46419,5.0708 11.15894,5.99775 11.62312,0.91883 85.5539,6.0018 129.72341,-16.4923 0.58279,-1.24741 1.02245,-2.46441 1.34145,-3.64895 21.21568,-50.34094 8.5926,-148.10001 3.61126,-166.67336 z"
         id="path227" />
      <path
         style="fill:#3e5068"
         inkscape:connector-curvature="0"
         d="m 296.55925,842.78683 c -15.12397,0 -26.61213,-0.81538 -30.63238,-1.13383 -11.62312,-0.92695 -11.15893,-5.99775 -11.15893,-5.99775 0,0 -18.43669,-2.77678 -31.93906,-7.22692 0.092,1.77479 0.16359,3.5374 0.2188,5.29595 10.30826,3.2007 35.64643,13.52486 42.09191,14.04005 5.42304,0.43204 17.04616,0 31.41966,0 13.84592,0 30.24998,-3.17026 46.79719,-5.37505 -0.0327,-1.65917 -0.0245,-0.84784 -0.0205,-2.53135 -16.69035,2.26767 -33.20075,2.9289 -46.77674,2.9289 z"
         id="path229" />
      <path
         style="fill:#ea9f6c"
         inkscape:connector-curvature="0"
         d="m 170.83154,806.76788 c 1.80154,0.63689 -2.05306,2.12771 -5.8954,-1.84172 -3.8178,-3.97348 -15.91534,-16.71338 -15.91534,-16.71338 0,0 17.33244,16.99937 21.81074,18.5551 z"
         id="path231" />
      <path
         style="fill:#3e5068"
         inkscape:connector-curvature="0"
         d="m 254.9029,680.56767 c 0,2.0486 -1.42938,3.70371 -3.19207,3.70371 -1.76473,0 -3.1982,-1.65511 -3.1982,-3.70371 0,-2.05267 1.43347,-3.70372 3.1982,-3.70372 1.76269,0 3.19207,1.65105 3.19207,3.70372 z"
         id="path233" />
      <ellipse
         style="fill:#3e5068"
         cx="238.44981"
         cy="723.39978"
         rx="3.0857313"
         ry="3.7037172"
         id="ellipse235" />
      <ellipse
         style="fill:#3e5068"
         cx="236.71982"
         cy="766.60504"
         rx="2.9855323"
         ry="3.7077737"
         id="ellipse237" />
      <ellipse
         style="fill:#3e5068"
         cx="236.71982"
         cy="845.19244"
         rx="2.9855323"
         ry="3.7077737"
         id="ellipse239" />
      <path
         style="fill:#d87736"
         inkscape:connector-curvature="0"
         d="m 272.9122,443.31273 c -8.5558,-2.61045 -23.21762,-5.56572 -30.43402,11.86163 -7.18573,17.33202 -13.52283,34.20767 -12.15684,63.4358 1.16558,24.95445 12.09345,61.89629 28.54863,74.33802 -7.73989,-3.5739 -31.05771,-25.68668 -36.46438,-60.77463 -5.51097,-35.74513 10.41255,-78.86322 19.67792,-91.15891 11.25301,-14.93454 30.82869,2.29809 30.82869,2.29809 z"
         id="path241" />
      <path
         style="fill:#d87736"
         inkscape:connector-curvature="0"
         d="m 253.04614,551.93955 c -8.30428,-5.586 -12.78871,-14.54713 -13.41649,-23.62184 -2.15735,-30.99074 2.69516,-48.3755 8.91366,-65.70954 6.24712,-17.42735 16.128,-18.04802 24.36685,-19.29341 0,0 -14.85814,-8.2999 -24.59384,6.63464 -8.02004,12.29975 -20.26481,52.72828 -14.54117,83.97662 5.71954,31.23617 23.90675,37.86878 33.66085,36.80392 -5.1797,-5.24119 -10.26124,-11.50465 -14.38986,-18.79039 z"
         id="path243" />
      <path
         style="fill:#b7642c"
         inkscape:connector-curvature="0"
         d="m 418.84542,631.33013 c 1.04289,5.1418 11.82966,12.15371 11.87465,22.61986 0.047,10.46614 -9.68049,18.40905 -15.6352,29.28695 -5.65615,10.34039 -4.39241,19.86336 2.50908,27.27891 6.90149,7.41555 9.26537,18.15552 -1.25352,27.4858 -7.45565,6.61233 -0.60324,18.21434 6.68678,14.61407 4.23291,-2.0912 4.3965,-6.88819 3.9773,-8.33844 -0.34763,4.21891 -3.60309,7.27762 -6.35346,6.40139 -4.98134,-1.59223 -4.09795,-7.02814 -2.63586,-8.89014 1.4621,-1.87011 5.44758,-4.42174 8.36358,-8.56155 5.0202,-7.12753 4.85661,-15.66879 0.88339,-24.31959 -3.97321,-8.6508 -6.31869,-15.66068 1.41711,-26.03149 7.7358,-10.37082 12.92367,-16.03187 14.22218,-28.92794 0.72593,-7.26951 -3.81781,-11.25516 -14.22218,-17.95471 -7.96483,-5.12963 -8.78278,-11.82107 -7.52927,-14.30982 -0.97132,0.931 -3.24727,5.0059 -2.30458,9.6467 z"
         id="path245" />
      <path
         style="fill:#e0a43b"
         inkscape:connector-curvature="0"
         d="m 266.87979,441.828 c -5.19196,0.27382 -12.24886,2.91267 -17.89683,10.54119 -5.64389,7.63055 -14.52687,41.29462 -14.6332,57.05064 -0.10634,15.75601 6.16737,42.82803 13.53918,53.56394 -7.22867,-7.31616 -18.03997,-24.8936 -19.56546,-53.05281 -3.77486,-69.64449 24.89443,-69.69519 27.25014,-70.00958 2.35366,-0.30831 11.30617,1.90662 11.30617,1.90662 z"
         id="path247" />
      <path
         style="fill:#d87736"
         inkscape:connector-curvature="0"
         d="m 412.88662,597.31516 c -0.94269,6.11742 -6.58657,30.96438 19.97444,47.1869 17.46127,10.66492 12.30203,23.25878 7.00169,32.36189 -5.29626,9.09905 4.03455,16.52677 11.81739,19.91001 9.07111,3.93698 9.07111,19.60172 -6.26962,19.21431 -19.50207,-0.49897 -9.78069,28.1308 5.43121,10.62029 -3.18797,1.74639 -7.19799,3.53334 -10.16921,0.81133 -2.96713,-2.71795 -2.00399,-8.33438 6.82583,-7.72994 8.82572,0.61053 20.91304,-0.83566 23.42006,-12.39913 3.13481,-14.45991 -9.63754,-15.62012 -16.72715,-23.03566 -8.36767,-8.74816 11.39,-24.51025 -0.83841,-46.90902 -8.1959,-15.00959 -32.62205,-13.74595 -28.20919,-57.40356 4.41287,-43.65154 -12.25704,17.37258 -12.25704,17.37258 z"
         id="path249" />
      <path
         style="fill:#e0a43b"
         inkscape:connector-curvature="0"
         d="m 282.14077,444.12609 c 1.82199,-12.24093 9.22652,-14.22666 23.09288,-13.02589 13.85819,1.20077 49.52507,14.62624 56.39793,37.6619 6.86877,23.03971 19.92536,49.40385 28.22146,63.41348 8.28792,14.00354 20.62062,22.47381 24.30755,37.18321 3.6951,14.7094 -1.61751,24.02751 -1.27397,27.95637 0.34354,3.91872 12.86028,-18.47193 12.23251,-27.95637 -0.62778,-9.48849 -7.43316,-15.49841 -15.52886,-30.09625 -8.0957,-14.6019 -4.83615,-8.73193 -9.56597,-41.82605 -4.72982,-33.10222 -20.76377,-47.22949 -28.64884,-53.9331 -7.88712,-6.70766 -28.58136,-18.35023 -49.91974,-22.89773 -20.06441,-4.27571 -49.9095,2.36097 -39.31495,23.52043 z"
         id="path251" />
      <path
         style="fill:#d87736"
         inkscape:connector-curvature="0"
         d="m 352.18217,453.64906 c 35.41741,34.03323 22.66959,68.73378 47.01599,87.79595 21.94162,17.18192 32.40734,44.14442 15.30801,65.61218 -7.74398,9.72176 -18.82316,24.32365 -12.66806,31.47146 11.42682,13.25509 28.04151,9.25726 11.08328,36.98038 1.14718,-1.33869 6.80537,-14.52685 -0.52349,-19.16968 -23.03359,-10.12133 -41.70134,-24.7719 -34.31113,-48.86229 7.38817,-24.08633 23.22376,-14.53902 -5.2758,-50.55797 -17.86003,-22.56915 -10.1958,-23.346 -8.44742,-57.86602 1.47436,-29.06992 -12.18138,-45.40401 -12.18138,-45.40401 z"
         id="path253" />
      <path
         style="fill:#d87736"
         inkscape:connector-curvature="0"
         d="m 364.84818,522.31793 c 1.40689,-6.32228 -10.73564,17.39895 -7.0528,28.86303 3.68283,11.46002 9.8134,11.33021 10.12013,18.39283 0.30673,7.06668 -1.52957,12.23282 -9.50462,22.88557 -7.97505,10.64869 -1.53776,15.97304 1.22693,17.8756 2.76059,1.90257 8.89525,3.27169 12.88482,8.36684 3.98548,5.09514 3.06324,11.48436 0,15.13331 -3.07142,3.65707 -8.55989,7.53522 -7.65196,13.50457 0.90179,5.9653 8.07116,6.86588 10.30826,6.55149 4.18179,-0.58619 6.47002,-3.73617 6.85037,-5.00793 0,0 -2.79536,2.63073 -7.70513,2.46441 -4.90772,-0.16227 -6.09785,-5.2493 -4.25745,-7.88409 1.8404,-2.63074 10.49231,-8.67919 11.96258,-12.36466 3.22274,-8.06258 -0.79137,-15.52072 -5.76249,-19.16967 -4.97316,-3.65301 -8.34722,-6.52106 -4.04887,-13.90821 4.29426,-7.38918 8.28383,-12.66485 8.58647,-22.04584 0.30674,-9.37694 -4.5969,-16.37262 -10.12013,-22.76387 -5.52324,-6.39124 -10.13036,-11.59186 -5.83611,-30.89338 z"
         id="path255" />
      <path
         style="fill:#d87736"
         inkscape:connector-curvature="0"
         d="m 323.17138,416.4334 c 33.17826,8.74816 60.01329,29.76361 69.34614,54.94726 8.00777,21.61786 6.05491,31.56882 7.16119,47.47492 1.0981,15.90611 6.4373,22.91396 14.14652,30.59117 7.71126,7.6772 11.18756,16.72149 4.03046,34.61941 -7.16118,17.89386 6.51092,-0.86001 10.46368,-10.27954 3.85461,-9.19033 4.96089,-25.75362 -11.56587,-37.77346 -10.78677,-7.84352 -4.40877,-21.47182 -4.40877,-36.7674 0,-15.29964 -3.3393,-24.93417 -13.21609,-39.33932 -15.94602,-23.24864 -50.06901,-42.98421 -75.95726,-43.47304 z"
         id="path257" />
    </g>
  </g>
</svg>
