<?xml version="1.0" encoding="UTF-8" standalone="no"?>
<!-- Created with Inkscape (http://www.inkscape.org/) -->

<svg
   xmlns:dc="http://purl.org/dc/elements/1.1/"
   xmlns:cc="http://creativecommons.org/ns#"
   xmlns:rdf="http://www.w3.org/1999/02/22-rdf-syntax-ns#"
   xmlns:svg="http://www.w3.org/2000/svg"
   xmlns="http://www.w3.org/2000/svg"
   xmlns:sodipodi="http://sodipodi.sourceforge.net/DTD/sodipodi-0.dtd"
   xmlns:inkscape="http://www.inkscape.org/namespaces/inkscape"
   width="564"
   height="752"
   viewBox="0 0 564.00001 752.00001"
   id="svg4725"
   version="1.1"
   inkscape:version="0.91 r13725"
   sodipodi:docname="2.svg">
  <defs
     id="defs4727" />
  <sodipodi:namedview
     id="base"
     pagecolor="#ffffff"
     bordercolor="#666666"
     borderopacity="1.0"
     inkscape:pageopacity="0.0"
     inkscape:pageshadow="2"
     inkscape:zoom="0.7"
     inkscape:cx="-13.597609"
     inkscape:cy="475.47217"
     inkscape:document-units="px"
     inkscape:current-layer="layer1"
     showgrid="false"
     units="px"
     inkscape:window-width="1920"
     inkscape:window-height="1018"
     inkscape:window-x="-8"
     inkscape:window-y="-8"
     inkscape:window-maximized="1" />
  <metadata
     id="metadata4730">
    <rdf:RDF>
      <cc:Work
         rdf:about="">
        <dc:format>image/svg+xml</dc:format>
        <dc:type
           rdf:resource="http://purl.org/dc/dcmitype/StillImage" />
        <dc:title />
      </cc:Work>
    </rdf:RDF>
  </metadata>
  <g
     inkscape:label="Capa 1"
     inkscape:groupmode="layer"
     id="layer1"
     transform="translate(0,-300.3621)">
    <rect
       style="fill:#800082;fill-opacity:0.63786006"
       id="rect5531"
       width="564"
       height="752"
       x="0"
       y="300.36209" />
    <g
       id="g7799"
       transform="matrix(2.7331133,0,0,2.669006,1374.9833,-1250.6267)">
      <path
         style="fill:#fcc397"
         inkscape:connector-curvature="0"
         d="m -328.8195,712.45811 c -2.336,-7.107 -9.018,-12.246 -16.91,-12.246 l -26.85,-3.129 c -4.912,-1.951 -9.371,-6.736 -10.346,-10.305 l -0.299,-13.59 c -2.994,2.131 -25.031,8.6 -35.076,-2.264 l -0.596,16.23 c -1.271,3.424 -5.92,7.807 -10.764,9.789 l -26.613,3.268 c -8.807,0 -16.105,6.402 -17.537,14.803 -0.063,0.32 -0.111,0.643 -0.145,0.967 -0.025,0.191 -0.041,0.381 -0.057,0.57 -0.008,0.123 -0.025,0.24 -0.027,0.361 l 26.008,21.391 9.584,30.952 74.92,0 10.35,-33.418 2.762,0 21.596,-23.379 z"
         id="path7" />
      <rect
         style="fill:#e5e5e5"
         x="-424.66351"
         y="705.01508"
         width="45.105"
         height="83.137001"
         id="rect9" />
      <path
         style="fill:#515151"
         inkscape:connector-curvature="0"
         d="m -360.9135,728.52611 -1.857,-30.305 -8.988,-1.041 c -1.307,-0.535 -2.592,-1.199 -3.807,-2.02 l -4.691,6.373 -20.414,80.213 -20.494,-80.508 -4.689,-6.371 c -1.215,0.818 -2.496,1.541 -3.805,2.076 l -8.377,1.029 -1.59,30.258 11.5,2.063 -2.359,11.793 28.217,54.221 32.219,-53.924 -2.361,-11.795 11.496,-2.062 z"
         id="path11" />
      <polygon
         transform="translate(-1422.9975,265.98211)"
         style="fill:#bb0202"
         points="1030.402,445.607 1027.332,437.271 1016.627,436.97 1013.852,446.054 1018.707,453.056 1013.752,482.085 1022.326,515.766 1029.49,487.609 1025.15,453.205 "
         id="polygon13" />
      <path
         style="fill:#333333"
         inkscape:connector-curvature="0"
         d="m -353.6635,813.72611 2.865,-70.268 5.068,-43.246 -26.85,-3.129 c -1.043,-0.414 -4.717,-0.963 -5.693,-1.596 l -22.291,86.694 -22.727,-89.282 c -1.859,1.646 -4.09,3.111 -6.369,4.045 l -14.723,1.809 -7.215,43.1 c 0.047,-0.068 0.092,-0.141 0.137,-0.209 l 3.055,73.844 -0.01,0.191 -1.666,29.207 c 14.945,6.354 31.387,9.869 48.652,9.869 17.6,0 34.342,-3.66 49.52,-10.248 l -1.753,-30.781 z"
         id="path15" />
      <polygon
         transform="translate(-1422.9975,265.98211)"
         style="fill:#ffffff"
         points="1022.287,436.896 1008.432,450.753 994.869,429.82 1003.42,420.683 "
         id="polygon17" />
      <path
         style="fill:#fcc397"
         inkscape:connector-curvature="0"
         d="m -432.7105,838.44511 c 0,-0.029 0.008,-0.068 0,-0.096 -3.68,-5.549 -2.646,-3.99 -4.51,-6.803 -2.293,-3.461 -6.963,-4.406 -10.424,-2.111 -8.408,5.576 -6.949,4.578 -7.674,5.143 -1.004,2.117 -1.57,4.561 -1.564,7.166 4.189,2.088 8.506,3.949 12.947,5.563 4.678,-1.602 8.622,-4.762 11.225,-8.862 z"
         id="path19" />
      <polygon
         transform="translate(-1422.9975,265.98211)"
         style="fill:#ffffff"
         points="1022.287,436.896 1036.141,450.753 1049.705,429.82 1041.156,420.683 "
         id="polygon21" />
      <path
         style="fill:#515151"
         inkscape:connector-curvature="0"
         d="m -425.3585,822.35311 -4.49,0.057 c 0.295,1.379 0.463,2.807 0.48,4.271 0.055,4.32 -1.182,8.361 -3.342,11.764 -2.604,4.1 -6.547,7.26 -11.225,8.861 1.234,0.449 3.73,1.313 6.123,2.043 7.793,-4.559 12.988,-13.053 12.865,-22.725 -0.017,-1.456 -0.161,-2.882 -0.411,-4.271 z"
         id="path23" />
      <path
         style="fill:#515151"
         inkscape:connector-curvature="0"
         d="m -368.9095,837.98211 c -2.201,-3.375 -3.492,-7.398 -3.492,-11.721 0,-1.465 0.148,-2.895 0.428,-4.277 l -4.494,0 c -0.229,1.391 -0.355,2.82 -0.355,4.277 0,9.717 5.35,18.18 13.258,22.623 2.541,-0.811 4.326,-1.453 6.129,-2.135 -4.759,-1.525 -8.796,-4.662 -11.474,-8.767 z"
         id="path25" />
      <path
         style="fill:#ea9f6c"
         inkscape:connector-curvature="0"
         d="m -402.0675,675.39911 c 0,0 -7.141,-2.082 -16.533,-7.107 l 0,8.734 c 2.695,1.711 6.699,4.336 9.49,6.07 1.406,0.875 4.029,1.129 4.029,1.129 l 10.264,0 c 0,0 2.699,-0.215 4.043,-1.102 2.252,-1.492 4.838,-3.576 7.643,-5.43 l 0,-9.623 c -10.157,4.917 -18.936,7.329 -18.936,7.329 z"
         id="path27" />
      <path
         style="fill:#fcc397"
         inkscape:connector-curvature="0"
         d="m -366.8455,630.43711 c -0.904,-0.309 -1.881,-0.217 -2.854,0.189 0.379,-11.035 0.279,-20.93 -1.125,-23.131 -7.77,-12.184 -16.893,-17.484 -30.332,-17.99 0,0 0,0 0,0 l 0,0 c -13.438,0.506 -21.551,5.807 -29.32,17.99 -1.438,2.256 -1.678,12.592 -1.469,23.957 -1.402,-1.055 -2.908,-1.48 -4.25,-1.025 -2.963,0.998 -4.006,5.854 -2.324,10.84 1.453,4.301 4.453,7.295 7.15,7.395 0.266,5.855 0.555,10.928 0.74,14.025 0.123,2.029 2.07,4.492 2.955,5.102 7.574,5.197 12.891,8.855 17.584,11.631 1.307,0.771 3.234,0.916 3.234,0.916 l 10.881,0 c 0,0 2.545,-0.336 3.699,-1.012 4.836,-2.832 10.324,-6.668 18.244,-11.988 0.697,-0.467 2.24,-2.49 2.385,-4.314 0.248,-3.092 0.652,-8.404 1.045,-14.561 2.369,-0.744 4.777,-3.471 6.041,-7.176 1.701,-4.981 0.675,-9.841 -2.282,-10.848 z"
         id="path29" />
      <path
         style="fill:#663412"
         inkscape:connector-curvature="0"
         d="m -393.5445,626.63811 c 0.92,-0.51 12.211,-4.957 15.639,0.943 2.877,4.957 -2.432,0.002 -5.961,0.039 -4.383,0.047 -5.563,0.172 -9.051,0.695 -1.418,0.211 -1.883,-0.984 -0.627,-1.677 z"
         id="path31" />
      <path
         style="fill:#663412"
         inkscape:connector-curvature="0"
         d="m -410.0485,626.78411 c -0.885,-0.514 -11.902,-4.428 -15.162,0.873 -2.969,4.83 2.373,0.012 5.791,0.064 4.242,0.064 6.828,0.545 8.736,0.74 1.379,0.142 1.836,-0.976 0.635,-1.677 z"
         id="path33" />
      <path
         style="fill:#ffffff"
         inkscape:connector-curvature="0"
         d="m -409.5565,635.49111 c -3.74,1.244 -5.35,1.352 -7.234,1.352 -2.912,0 -5.57,-0.979 -5.57,-2.826 0,-1.847 2.623,-3.17 5.582,-3.17 2.955,0 6.808,3.254 7.222,4.644 z"
         id="path35" />
      <path
         style="fill:#7b9368"
         inkscape:connector-curvature="0"
         d="m -413.8295,633.86811 c 0,1.637 -1.258,2.963 -2.807,2.963 -1.555,0 -2.813,-1.326 -2.813,-2.963 0,-1.637 1.258,-2.963 2.813,-2.963 1.549,0 2.807,1.327 2.807,2.963 z"
         id="path37" />
      <path
         inkscape:connector-curvature="0"
         d="m -414.7535,633.89011 c 0,1.049 -0.803,1.902 -1.801,1.902 -0.996,0 -1.801,-0.854 -1.801,-1.902 0,-1.051 0.805,-1.902 1.801,-1.902 0.998,-10e-4 1.801,0.851 1.801,1.902 z"
         id="path39" />
      <path
         style="fill:#ffffff"
         inkscape:connector-curvature="0"
         d="m -413.7675,633.92711 c 0,0.387 -0.402,0.701 -0.906,0.701 -0.498,0 -0.902,-0.314 -0.902,-0.701 0,-0.391 0.404,-0.701 0.902,-0.701 0.504,0 0.906,0.31 0.906,0.701 z"
         id="path41" />
      <path
         style="fill:#ea9f6c"
         inkscape:connector-curvature="0"
         d="m -409.5525,635.51111 c 0,0 -1.033,-1.674 -5.105,-2.904 -2.918,-0.883 -7.303,0.398 -7.381,2.475 -1.223,-0.887 -1.26,-2.531 1.857,-3.693 3.549,-1.318 7.703,-0.393 10.229,3.299 0.166,0.247 0.336,0.54 0.4,0.823 z"
         id="path43" />
      <path
         style="fill:#ffffff"
         inkscape:connector-curvature="0"
         d="m -393.6795,635.49111 c 3.74,1.244 4.984,1.389 7.131,1.332 2.916,-0.072 5.574,-0.809 5.574,-2.658 0,-1.848 -2.527,-3.318 -5.482,-3.318 -2.955,0 -6.807,3.254 -7.223,4.644 z"
         id="path45" />
      <ellipse
         style="fill:#7b9368"
         cx="-386.63446"
         cy="633.79608"
         rx="2.8110001"
         ry="2.9649999"
         id="ellipse47" />
      <path
         inkscape:connector-curvature="0"
         d="m -388.4425,633.81211 c 0,1.047 0.805,1.9 1.801,1.9 0.996,0 1.805,-0.854 1.805,-1.9 0,-1.053 -0.809,-1.904 -1.805,-1.904 -0.996,0 -1.801,0.851 -1.801,1.904 z"
         id="path49" />
      <ellipse
         style="fill:#ffffff"
         cx="-384.72955"
         cy="633.61609"
         rx="0.90600002"
         ry="0.70099998"
         id="ellipse51" />
      <path
         style="fill:#ea9f6c"
         inkscape:connector-curvature="0"
         d="m -393.6845,635.51111 c 0,0 1.035,-1.674 5.107,-2.904 2.92,-0.883 7.301,0.398 7.383,2.475 1.221,-0.887 1.104,-2.609 -2.018,-3.771 -3.549,-1.318 -7.545,-0.314 -10.07,3.377 -0.168,0.247 -0.34,0.54 -0.402,0.823 z"
         id="path53" />
      <path
         style="fill:#ea9f6c"
         inkscape:connector-curvature="0"
         d="m -399.4745,651.73511 -4.686,0 c -1.557,0 -2.871,-1.082 -3.402,-2.602 -0.158,0.451 -0.254,0.943 -0.254,1.463 0,2.242 2.734,2.965 4.758,2.965 l 2.488,0 c 2.016,0 4.754,-0.723 4.754,-2.965 0,-0.52 -0.094,-1.012 -0.254,-1.463 -0.532,1.52 -1.849,2.602 -3.404,2.602 z"
         id="path55" />
      <path
         style="fill:#ea9f6c"
         inkscape:connector-curvature="0"
         d="m -438.2275,634.07311 c -0.031,-0.4 0.758,-2.205 1.738,-1.895 1.498,0.475 2.449,3.396 3.08,6.32 0.633,2.92 0.336,5.049 0,4.266 -0.475,-1.107 -0.9,-4.648 -2.684,-7.979 -1.187,-2.212 -1.896,2.45 -2.134,-0.712 z"
         id="path57" />
      <path
         style="fill:#ea9f6c"
         inkscape:connector-curvature="0"
         d="m -364.7945,634.07311 c 0.029,-0.4 -0.756,-2.205 -1.736,-1.895 -1.502,0.475 -2.447,3.396 -3.08,6.32 -0.633,2.92 -0.336,5.049 0,4.266 0.471,-1.107 0.9,-4.648 2.684,-7.979 1.185,-2.212 1.894,2.45 2.132,-0.712 z"
         id="path59" />
      <path
         style="fill:#663412"
         inkscape:connector-curvature="0"
         d="m -377.1305,591.14411 c -5.047,-8.832 -33.807,-5.057 -42.971,-2.529 -9.162,2.529 -15.168,7.584 -14.85,15.482 0.275,6.828 0.313,22.15 0.316,26.18 0.768,0.09 1.553,0.422 2.316,0.93 l 1.791,8.277 1.895,-12.955 c 0,0 -3.791,-25.275 20.854,-20.852 -3.477,1.895 -9.793,8.531 -9.793,8.531 0,0 14.533,-3.477 20.219,-5.688 5.688,-2.211 0,4.74 0,4.74 0,0 11.061,-4.109 14.537,-5.371 3.475,-1.266 6.951,-0.318 7.582,5.686 0.633,6.006 2.211,28.752 2.211,28.752 l 3.969,-11.91 c 0.309,-0.08 0.619,-0.137 0.924,-0.152 0.125,-2.404 0.283,-5.396 0.479,-9.105 1.894,-36.02 -5.686,-23.382 -9.479,-30.016 z"
         id="path61" />
      <g
         transform="translate(-1422.9975,265.98211)"
         id="g63">
        <path
           style="fill:#ea8c63"
           inkscape:connector-curvature="0"
           d="m 1012.914,395.986 c 0.209,1.109 1.988,3.771 3.025,3.771 l 10.379,0 c 1.043,0 2.82,-2.662 3.025,-3.771 l -16.429,0 z"
           id="path65" />
        <path
           style="fill:#d87350"
           inkscape:connector-curvature="0"
           d="m 1025.988,396.484 c -2.203,-0.271 -9.459,-0.154 -10.588,-0.102 -2.895,0.133 -4.58,-1.482 -4.479,-1.795 0.17,-0.496 0.545,-0.383 0.867,0.107 0.295,0.441 2.193,0.289 3.139,0.088 4.785,-1.029 3.555,0.123 5.891,0.16 2.195,0.035 1.445,-1.07 5.592,-0.135 1.406,0.318 3.33,0.801 4.043,0.445 0.482,-0.242 0.855,-0.508 0.986,0 0.125,0.478 -1.933,1.662 -5.451,1.232 z"
           id="path67" />
      </g>
      <rect
         style="fill:#6b3a25"
         x="-447.71564"
         y="770.46124"
         transform="matrix(0.99813763,-0.0610023,0.0610023,0.99813763,0,0)"
         width="67.320457"
         height="57.021851"
         id="rect69" />
      <path
         style="fill:#663623"
         inkscape:connector-curvature="0"
         d="m -361.0875,801.61511 -10.199,0.623 c -7.166,0.438 -13.354,-5.035 -13.791,-12.203 l -0.113,-1.846 c -0.436,-7.166 5.037,-13.352 12.203,-13.791 l 10.199,-0.623 c 7.166,-0.438 13.354,5.037 13.791,12.203 l 0.111,1.846 c 0.44,7.168 -5.035,13.353 -12.201,13.791 z m -11.597,-22.268 c -4.438,0.271 -7.828,4.102 -7.557,8.539 l 0.113,1.848 c 0.271,4.438 4.102,7.826 8.541,7.555 l 10.197,-0.623 c 4.438,-0.27 7.826,-4.102 7.555,-8.539 l -0.113,-1.846 c -0.271,-4.438 -4.1,-7.826 -8.537,-7.557 l -10.199,0.623 z"
         id="path71" />
      <path
         style="fill:#9b4e34"
         inkscape:connector-curvature="0"
         d="m -338.4995,828.23211 -51.969,3.174 c -5.785,0.354 -10.807,-4.092 -11.16,-9.875 l -1.385,-22.686 c -0.354,-5.783 4.09,-10.807 9.875,-11.158 l 51.967,-3.176 c 5.785,-0.352 10.807,4.092 11.16,9.875 l 1.385,22.686 c 0.356,5.783 -4.09,10.806 -9.873,11.16 z"
         id="path73" />
      <rect
         style="fill:#828281"
         x="-419.35648"
         y="800.25104"
         transform="matrix(0.99813763,-0.0610023,0.0610023,0.99813763,0,0)"
         width="9.761632"
         height="9.761632"
         id="rect75" />
      <path
         style="fill:#fcc397"
         inkscape:connector-curvature="0"
         d="m -360.7805,828.03511 c -1.268,0.762 -4.65,1.777 -9.783,6.734 -1.461,1.412 -7.564,5.203 -13.178,5.299 0,0 -0.486,3.551 4.084,4.088 4.572,0.539 8.793,-1.252 8.793,-1.252 0,0 3.705,-1.967 5.898,-0.109 1.648,1.393 1.801,3.459 -2.539,8.691 l -5.525,0.383 c 0,0 -0.729,2.01 0.91,3.049 1.635,1.043 3.975,2.48 3.975,2.48 0,0 2.068,2.303 4.625,-0.727 l 0,0 c -0.305,0.967 0.605,1.477 1.701,2.102 1.225,0.709 2.797,0.287 3.502,-0.943 3.277,-5.723 4.453,-7.664 1.09,-1.83 -0.57,0.992 0.244,1.438 1.238,2.008 0.992,0.574 2.258,0.232 2.83,-0.76 l 1.393,-2.414 c 1.391,0.879 2.414,0.553 2.947,-0.369 l 4.104,-7.135 c 0.668,-1.158 0.871,-7.246 0.41,-12.977 -0.199,-2.496 -6.9,-9.484 -11.338,-8.318 -2.049,0.541 -3.936,1.279 -5.137,2 z"
         id="path77" />
      <polygon
         transform="translate(-1422.9975,265.98211)"
         style="fill:#b77641"
         points="1059.451,590.695 1063.883,582.914 1064.248,583.121 "
         id="polygon79" />
      <polygon
         transform="translate(-1422.9975,265.98211)"
         style="fill:#b77641"
         points="1065.586,590.301 1069.621,582.98 1069.988,583.188 "
         id="polygon81" />
      <polygon
         transform="translate(-1422.9975,265.98211)"
         style="fill:#b77641"
         points="1071.246,588.855 1074.252,583.33 1074.615,583.539 "
         id="polygon83" />
      <path
         style="fill:#b77641"
         inkscape:connector-curvature="0"
         d="m -369.4345,851.70311 c 0.609,0.447 1.445,0.33 1.93,-0.232 l -2.02,0.164 0.09,0.068 z"
         id="path85" />
      <path
         style="fill:#333333"
         inkscape:connector-curvature="0"
         d="m -340.6205,834.32211 c 9.287,-8.49 31.891,-41.902 31.449,-60.297 -0.371,-15.479 -13.203,-48.926 -19.896,-62.239 -2.533,-6.754 -9.023,-11.574 -16.662,-11.574 l -5.068,43.246 c 7.494,12.938 15.412,29.083 15.535,36.956 0.088,5.736 -14.025,29.352 -20.877,42.645 -10e-4,-10e-4 11.23,16.278 15.519,11.263 z"
         id="path87" />
      <rect
         style="fill:#ffffff"
         x="-214.57098"
         y="-880.11975"
         transform="matrix(-0.80921582,-0.58751149,0.58751149,-0.80921582,0,0)"
         width="19.37862"
         height="4.8659048"
         id="rect89" />
      <path
         style="fill:#333333"
         inkscape:connector-curvature="0"
         d="m -448.4155,815.67911 0,0 0,0 c -7.119,-11.898 -15.514,-30.959 -17.152,-34.973 -3.105,-7.604 5.307,-25.616 13.971,-38.854 l 7.215,-43.1 -11.891,1.459 c -12.615,0.168 -15.857,9.668 -16.338,10.797 -6.607,12.91 -19.113,48.988 -19.49,64.686 -0.441,18.395 22.883,52.164 32.17,60.656 l 15.852,-12.178 -4.337,-8.493 z"
         id="path91" />
      <rect
         style="fill:#ffffff"
         x="-862.98682"
         y="406.05765"
         transform="matrix(0.80921582,-0.58751149,0.58751149,0.80921582,0,0)"
         width="19.376621"
         height="4.862905"
         id="rect93" />
    </g>
  </g>
</svg>
