<?xml version="1.0" encoding="UTF-8" standalone="no"?>
<!-- Created with Inkscape (http://www.inkscape.org/) -->

<svg
   xmlns:dc="http://purl.org/dc/elements/1.1/"
   xmlns:cc="http://creativecommons.org/ns#"
   xmlns:rdf="http://www.w3.org/1999/02/22-rdf-syntax-ns#"
   xmlns:svg="http://www.w3.org/2000/svg"
   xmlns="http://www.w3.org/2000/svg"
   xmlns:sodipodi="http://sodipodi.sourceforge.net/DTD/sodipodi-0.dtd"
   xmlns:inkscape="http://www.inkscape.org/namespaces/inkscape"
   width="564"
   height="752"
   viewBox="0 0 564.00001 752.00001"
   id="svg4725"
   version="1.1"
   inkscape:version="0.91 r13725"
   sodipodi:docname="3.svg">
  <defs
     id="defs4727" />
  <sodipodi:namedview
     id="base"
     pagecolor="#ffffff"
     bordercolor="#666666"
     borderopacity="1.0"
     inkscape:pageopacity="0.0"
     inkscape:pageshadow="2"
     inkscape:zoom="0.7"
     inkscape:cx="249.97382"
     inkscape:cy="475.47217"
     inkscape:document-units="px"
     inkscape:current-layer="layer1"
     showgrid="false"
     units="px"
     inkscape:window-width="1920"
     inkscape:window-height="1018"
     inkscape:window-x="-8"
     inkscape:window-y="-8"
     inkscape:window-maximized="1" />
  <metadata
     id="metadata4730">
    <rdf:RDF>
      <cc:Work
         rdf:about="">
        <dc:format>image/svg+xml</dc:format>
        <dc:type
           rdf:resource="http://purl.org/dc/dcmitype/StillImage" />
        <dc:title></dc:title>
      </cc:Work>
    </rdf:RDF>
  </metadata>
  <g
     inkscape:label="Capa 1"
     inkscape:groupmode="layer"
     id="layer1"
     transform="translate(0,-300.3621)">
    <rect
       style="fill:#43a0d7;fill-opacity:1"
       id="rect5531"
       width="564"
       height="752"
       x="0"
       y="300.36209" />
    <g
       id="g6937"
       transform="matrix(3.2121092,0,0,2.7415163,1494.8054,-966.19053)">
      <path
         style="fill:#230f01"
         inkscape:connector-curvature="0"
         d="m -334.91328,530.71796 c 0,49.004 23.493,87.018 -39.644,87.861 -62.56,-13.344 -39.746,-37.084 -39.746,-86.09 -6.438,-50.42 16.463,-64.396 39.746,-64.396 23.283,0 43.92,11.651 39.644,62.625 z"
         id="path363" />
      <path
         style="fill:#ea9f60"
         inkscape:connector-curvature="0"
         d="m -329.23228,579.87996 -20.214,-3.053 c -6.164,-2.125 -11.89,-8.662 -11.89,-12.617 0,-0.125 -0.043,-10.99 -0.043,-10.99 -7.796,3.775 -14.452,5.643 -14.452,5.643 0,0 -5.654,-1.699 -12.864,-5.557 0,0 -0.044,10.682 -0.044,10.807 0,4.029 -6.778,10.738 -13.334,12.727 l -20.123,3.041 c -8.498,0 -15.388,8.475 -15.388,18.928 0,10.453 6.89,18.928 15.388,18.928 l 92.964,0 c 8.499,0 15.387,-8.475 15.387,-18.928 0,-10.453 -6.888,-18.929 -15.387,-18.929 z"
         id="path365" />
      <path
         style="fill:#c47947"
         inkscape:connector-curvature="0"
         d="m -388.69528,549.09096 0,7.002 c 4.943,3.414 9.153,5.52 11.314,6.506 0.99,0.451 2.063,0.482 2.974,0.107 2.363,-0.969 7.398,-3.205 13.028,-6.723 l 0,-6.893 -27.316,0 z"
         id="path367" />
      <path
         style="fill:#ea9f60"
         inkscape:connector-curvature="0"
         d="m -343.11628,514.34496 c -0.88,-0.299 -1.838,-0.193 -2.785,0.236 0.981,-9.359 1.297,-19.32 -0.128,-21.553 -6.747,-10.582 -18.018,-16.307 -29.686,-16.744 -0.002,0 -0.002,0 -0.003,0 -0.001,0 -0.001,0 -0.001,0 -11.669,0.438 -20.878,6.912 -27.624,17.496 -1.409,2.207 -3.183,11.254 -2.22,20.521 -0.681,-0.178 -1.355,-0.182 -1.99,0.033 -2.753,0.928 -3.721,5.438 -2.159,10.072 1.285,3.809 3.877,6.514 6.288,6.842 0.38,2.627 0.64,4.271 0.64,4.271 5.67,15.033 20.636,22.432 25.509,24.48 0.979,0.412 2.08,0.432 2.973,0.061 4.715,-1.965 19.925,-9.357 25.651,-24.541 0,0 0.259,-1.641 0.638,-4.256 2.596,0.18 5.599,-2.656 7.023,-6.84 1.577,-4.629 0.625,-9.14 -2.126,-10.078 z"
         id="path369" />
      <path
         style="fill:#c47947"
         inkscape:connector-curvature="0"
         d="m -373.84028,532.80196 -3.752,0 c -1.247,0 -2.302,-0.867 -2.727,-2.084 -0.126,0.361 -0.203,0.756 -0.203,1.17 0,1.797 2.191,2.375 3.811,2.375 l 1.99,0 c 1.617,0 3.809,-0.578 3.809,-2.375 0,-0.414 -0.077,-0.809 -0.202,-1.17 -0.426,1.217 -1.482,2.084 -2.726,2.084 z"
         id="path371" />
      <path
         style="fill:#c47947"
         inkscape:connector-curvature="0"
         d="m -409.43928,517.72596 c -0.028,-0.373 0.702,-2.049 1.615,-1.762 1.394,0.439 2.273,3.156 2.862,5.871 0.587,2.715 0.313,4.693 0,3.963 -0.441,-1.027 -0.839,-4.318 -2.496,-7.414 -1.1,-2.052 -1.761,2.278 -1.981,-0.658 z"
         id="path373" />
      <path
         style="fill:#c47947"
         inkscape:connector-curvature="0"
         d="m -341.20628,517.72596 c 0.029,-0.373 -0.703,-2.049 -1.614,-1.762 -1.396,0.439 -2.275,3.156 -2.863,5.871 -0.587,2.715 -0.313,4.693 0,3.963 0.441,-1.027 0.837,-4.318 2.495,-7.414 1.101,-2.052 1.761,2.278 1.982,-0.658 z"
         id="path375" />
      <path
         style="fill:#b2462d"
         inkscape:connector-curvature="0"
         d="m -365.66228,539.96796 c -0.14,-0.158 -0.706,-0.041 -1.374,0.057 -0.878,0.365 -4.022,0.613 -8.736,0.738 -0.023,0 -0.047,0 -0.071,0 -0.023,0 -0.046,0 -0.07,0 -4.715,-0.125 -7.858,-0.373 -8.738,-0.738 -0.666,-0.098 -1.233,-0.215 -1.372,-0.057 -0.183,0.225 -0.147,0.539 0.201,1.045 0.352,0.467 1.489,2.039 1.489,2.039 0,0 2.945,5.547 8.49,5.637 5.546,-0.09 8.491,-5.637 8.491,-5.637 0,0 1.138,-1.572 1.49,-2.039 0.346,-0.506 0.382,-0.82 0.2,-1.045 z"
         id="path377" />
      <path
         style="fill:#ffffff"
         inkscape:connector-curvature="0"
         d="m -370.29928,543.40996 c 1.4,-0.436 1.832,-1.672 2.187,-3.227 -1.78,0.273 -5.057,0.621 -8.439,0.479 -2.671,-0.111 -5.409,-0.189 -7.31,-0.504 0.372,1.764 0.68,1.961 2.152,2.705 -1.162,0.064 -1.381,1.164 -1.227,2.453 1.765,1.564 4.869,3.006 7.339,2.932 3.684,-0.117 5.561,-1.281 6.789,-3.012 -0.305,-0.813 -0.495,-1.789 -1.491,-1.826 z"
         id="path379" />
      <path
         style="fill:#c66344"
         inkscape:connector-curvature="0"
         d="m -384.65328,540.02496 c 0,0 1.088,1.641 8.933,1.588 7.515,-0.053 8.684,-1.588 8.684,-1.588 0,0 -0.466,0.109 -1.076,-0.027 -1.462,-0.322 -3.476,-1.264 -5.598,-1.361 -0.692,-0.031 -1.423,0.805 -2.01,0.814 -0.657,0.012 -1.397,-0.803 -2.257,-0.758 -2.358,0.131 -5.254,1.344 -6.292,1.303 -0.302,-0.014 -0.384,0.029 -0.384,0.029 z"
         id="path381" />
      <path
         style="fill:#e86c46"
         inkscape:connector-curvature="0"
         d="m -385.52628,541.42096 c 0,0 2.091,7.34 9.636,7.408 6.84,0.064 9.728,-7.441 9.728,-7.441 0,0 -3.617,3.723 -9.634,3.879 -6.12,0.16 -9.73,-3.846 -9.73,-3.846 z"
         id="path383" />
      <path
         style="fill:#3f1a01"
         inkscape:connector-curvature="0"
         d="m -383.24428,509.71996 c -0.618,-0.443 -6.148,-3.074 -9.702,-3.42 -1.333,-0.129 -4.741,2.455 -6.246,3.717 1.349,-0.326 5.345,-2.213 6.361,-1.955 3.827,0.977 7.338,2.648 8.661,3.352 1.139,0.605 1.975,-0.942 0.926,-1.694 z"
         id="path385" />
      <path
         style="fill:#3f1a01"
         inkscape:connector-curvature="0"
         d="m -367.44228,509.71996 c 0.618,-0.443 6.147,-3.074 9.702,-3.42 1.333,-0.129 4.74,2.455 6.247,3.717 -1.35,-0.326 -5.346,-2.213 -6.362,-1.955 -3.827,0.977 -7.338,2.648 -8.66,3.352 -1.141,0.605 -1.977,-0.942 -0.927,-1.694 z"
         id="path387" />
      <g
         transform="translate(-526.76328,143.12496)"
         id="g389">
        <path
           style="fill:#ffffff"
           inkscape:connector-curvature="0"
           d="m 143.996,375.55 c -3.681,1.002 -5.218,1.652 -7.176,1.617 -2.858,-0.051 -5.089,-1.736 -4.982,-3.545 0.108,-1.811 2.379,-2.844 5.231,-2.676 2.853,0.171 6.131,3.239 6.927,4.604 z"
           id="path391" />
        <path
           style="fill:#3f1e0c"
           inkscape:connector-curvature="0"
           d="m 139.887,374.119 c -0.104,1.779 -1.538,3.143 -3.197,3.043 -1.664,-0.098 -2.925,-1.619 -2.819,-3.4 0.105,-1.779 1.539,-2.531 3.202,-2.432 1.658,0.097 2.92,1.009 2.814,2.789 z"
           id="path393" />
        <path
           inkscape:connector-curvature="0"
           d="m 139.037,373.748 c -0.071,1.201 -1.042,2.125 -2.169,2.059 -1.127,-0.068 -1.982,-1.1 -1.91,-2.303 0.071,-1.211 1.043,-2.133 2.17,-2.066 1.126,0.065 1.981,1.097 1.909,2.31 z"
           id="path395" />
        <ellipse
           style="fill:#ffffff"
           transform="matrix(0.9983,0.0583,-0.0583,0.9983,22.0094,-7.4358)"
           cx="138.42"
           cy="373.41901"
           rx="0.97100002"
           ry="0.76499999"
           id="ellipse397" />
        <path
           inkscape:connector-curvature="0"
           d="m 129.966,373.505 c -0.058,0.994 2.457,3.555 6.724,3.656 -3.155,-0.217 -4.47,-2.166 -4.672,-2.91 0.429,-1.902 4.544,-2.82 7.225,-1.82 3.857,1.438 4.757,3.139 4.757,3.139 -1.556,-3.625 -5.579,-5.445 -9.237,-4.838 -2.688,0.447 -3.12,1.889 -4.797,2.773 z"
           id="path399" />
      </g>
      <path
         style="fill:#ffffff"
         inkscape:connector-curvature="0"
         d="m -367.91928,518.67496 c 3.681,1.002 5.218,1.652 7.176,1.617 2.858,-0.051 5.089,-1.736 4.981,-3.545 -0.107,-1.811 -2.379,-2.844 -5.23,-2.676 -2.853,0.171 -6.132,3.239 -6.927,4.604 z"
         id="path401" />
      <path
         style="fill:#3f1e0c"
         inkscape:connector-curvature="0"
         d="m -363.81128,517.24396 c 0.106,1.779 1.539,3.143 3.198,3.043 1.663,-0.098 2.925,-1.619 2.818,-3.4 -0.104,-1.779 -1.538,-2.531 -3.201,-2.432 -1.66,0.097 -2.92,1.009 -2.815,2.789 z"
         id="path403" />
      <path
         inkscape:connector-curvature="0"
         d="m -362.96028,516.87296 c 0.071,1.201 1.042,2.125 2.168,2.059 1.127,-0.068 1.983,-1.1 1.912,-2.303 -0.073,-1.211 -1.045,-2.133 -2.172,-2.066 -1.126,0.065 -1.981,1.097 -1.908,2.31 z"
         id="path405" />
      <ellipse
         style="fill:#ffffff"
         transform="matrix(-0.99829911,0.05829995,-0.05829995,-0.99829911,0,0)"
         cx="388.84381"
         cy="-494.70908"
         rx="0.97100085"
         ry="0.76500064"
         id="ellipse407" />
      <path
         inkscape:connector-curvature="0"
         d="m -353.88928,516.62996 c 0.057,0.994 -2.457,3.555 -6.724,3.656 3.155,-0.217 4.47,-2.166 4.672,-2.91 -0.429,-1.902 -4.544,-2.82 -7.224,-1.82 -3.858,1.438 -4.758,3.139 -4.758,3.139 1.555,-3.625 5.579,-5.445 9.236,-4.838 2.689,0.447 3.121,1.889 4.798,2.773 z"
         id="path409" />
      <path
         style="fill:#543020"
         inkscape:connector-curvature="0"
         d="m -334.32028,519.49196 c 0,0 -6.307,32.658 8.683,57.518 -9.65,-20.891 -8.683,-57.518 -8.683,-57.518 z"
         id="path411" />
      <path
         style="fill:#543020"
         inkscape:connector-curvature="0"
         d="m -335.54628,532.98396 c 0,0 -6.306,32.658 8.683,57.516 -5.957,-20.625 -8.683,-57.516 -8.683,-57.516 z"
         id="path413" />
      <path
         style="fill:#543020"
         inkscape:connector-curvature="0"
         d="m -415.37028,519.49196 c 0,0 6.307,32.658 -8.683,57.518 9.65,-20.891 8.683,-57.518 8.683,-57.518 z"
         id="path415" />
      <path
         style="fill:#543020"
         inkscape:connector-curvature="0"
         d="m -414.14428,532.98396 c 0,0 6.307,32.658 -8.683,57.516 5.958,-20.625 8.683,-57.516 8.683,-57.516 z"
         id="path417" />
      <path
         style="fill:#230f01"
         inkscape:connector-curvature="0"
         d="m -336.22928,503.65596 c 0,-19.9 -16.197,-37.289 -38.329,-37.289 -22.132,0 -39.44,17.816 -39.44,37.717 0,6.695 0.712,11.266 3.563,16.623 -0.26,-3.271 0.8,-5.986 2.867,-6.682 0.466,-0.158 0.954,-0.195 1.449,-0.137 1.071,4.182 2.203,7.072 2.203,4.736 0,-2.756 -0.059,-7.818 0.401,-11.547 0.019,-35.662 59.188,-31.525 56.948,1.074 0.401,3.551 0.209,7.861 0.209,10.326 0,2.307 1.049,-0.494 2.055,-4.598 0.399,-0.016 0.793,0.023 1.171,0.154 2.161,0.734 3.205,3.682 2.791,7.156 3.715,-5.475 4.112,-10.658 4.112,-17.533 z"
         id="path419" />
      <path
         style="fill:#333333"
         inkscape:connector-curvature="0"
         d="m -316.39128,588.11096 c -3.106,-5.809 -8.151,-8.543 -12.857,-8.543 l -14.228,-2.148 c 2.13,17.852 -22.541,73.69 -30.281,78.913 -6.549,-4.496 -36.345,-61.194 -34.194,-78.918 l -14.261,2.154 c -5.567,0 -10.235,3.656 -12.837,8.5 -7.208,11.973 -11.406,61.969 -6.209,81.831 2.31,8.828 25.572,5.006 25.617,2.07 0.131,-8.521 -14.662,-40.604 -6.978,-53.616 0.489,0.693 0.971,1.402 1.445,2.123 -0.838,2.273 -1.295,4.727 -1.295,7.289 0,8.834 5.44,16.399 13.151,19.528 1.263,4.568 2.271,9.344 2.973,14.291 1.386,9.754 2.101,19.205 1.687,27.943 -5.862,4.438 -10.707,10.082 -14.3,16.572 -2.771,5.014 -4.788,10.543 -5.883,16.42 15.063,6.508 31.672,10.123 49.126,10.123 17.953,0 35.014,-3.82 50.418,-10.688 -1.148,-5.816 -3.202,-11.281 -5.992,-16.236 -3.646,-6.477 -8.584,-12.105 -14.438,-16.447 l 0,0 c -0.383,-8.67 0.331,-18.029 1.702,-27.688 0.687,-4.83 1.66,-9.5 2.879,-13.973 7.552,-3.203 12.847,-10.686 12.847,-19.407 0,-2.523 -0.444,-4.943 -1.261,-7.188 0.399,-0.617 0.801,-1.227 1.209,-1.822 5.719,11.641 -5.151,42.083 -5.025,50.436 0.047,2.896 19.859,-3.889 22.353,-20.473 2.497,-16.605 1.834,-49.095 -5.368,-61.046 z"
         id="path421" />
      <path
         style="fill:#212121"
         inkscape:connector-curvature="0"
         d="m -422.46828,627.76496 c 0,-2.563 0.457,-5.016 1.295,-7.289 -0.475,-0.721 -0.956,-1.43 -1.445,-2.123 -5.641,9.551 0.826,29.37 4.616,42.612 l 11.184,-2.377 c -0.657,-3.883 -1.492,-7.658 -2.498,-11.295 -7.712,-3.129 -13.152,-10.694 -13.152,-19.528 z"
         id="path423" />
      <path
         style="fill:#212121"
         inkscape:connector-curvature="0"
         d="m -328.35028,619.19496 c -0.408,0.596 -0.81,1.205 -1.209,1.822 0.816,2.244 1.261,4.664 1.261,7.188 0,8.721 -5.295,16.204 -12.847,19.407 -1.219,4.473 -2.192,9.143 -2.879,13.973 -0.288,2.029 -0.54,4.043 -0.766,6.041 l 11.536,0 c 1.157,-10.409 10.233,-37.582 4.904,-48.431 z"
         id="path425" />
      <g
         transform="translate(-526.76328,143.12496)"
         id="g427">
        <path
           style="fill:#212121"
           inkscape:connector-curvature="0"
           d="m 185.618,504.486 c -0.029,0.107 -0.055,0.221 -0.083,0.328 2.809,-0.714 3.211,-1.654 0.083,-0.328 z"
           id="path429" />
        <path
           style="fill:#212121"
           inkscape:connector-curvature="0"
           d="m 185.539,504.535 c -0.851,0.299 -1.726,0.545 -2.62,0.738 -3.815,0.418 -9.594,0.031 -16.364,-3.354 -1.233,-0.871 -2.37,-1.87 -3.39,-2.979 -2.188,3.946 -8.215,12.954 -10.159,14.266 -1.58,-1.084 -8.202,-10.627 -11.073,-14.467 -3.843,4.493 -9.535,7.34 -15.908,7.34 -3.057,0 -5.952,-0.668 -8.572,-1.842 0.569,2.039 1.078,4.127 1.541,6.246 0.561,2.604 1.041,5.262 1.426,7.975 0.897,6.318 1.514,12.506 1.724,18.459 0.034,0.941 39.447,7.893 58.803,4.828 0.019,-8.299 0.645,-15.188 1.794,-23.287 0.67,-4.715 1.617,-9.271 2.796,-13.645 -0.023,0.006 -0.048,0.012 -0.071,0.018 0.024,-0.099 0.047,-0.198 0.073,-0.296 z"
           id="path431" />
      </g>
      <path
         style="fill:#ededed"
         inkscape:connector-curvature="0"
         d="m -393.85528,572.07396 c 0,0 15.969,45.662 19.356,45.662 3.387,0 18.604,-44.666 18.548,-44.82 -0.056,-0.154 3.624,1.816 3.624,1.816 l -20.563,81.805 -0.619,1.738 -0.438,-1.666 -25.411,-81.198 5.503,-3.337 z"
         id="path433" />
      <circle
         style="fill:#ededed"
         cx="-405.72128"
         cy="530.40997"
         r="1.105"
         id="circle435" />
      <circle
         style="fill:#ededed"
         cx="-345.63327"
         cy="530.40997"
         r="1.105"
         id="circle437" />
      <polygon
         transform="translate(-526.76328,143.12496)"
         style="fill:#212121"
         points="121.853,466.705 117.753,474.611 153.567,515.736 127.323,432.853 115.179,434.837 112.482,464.363 "
         id="polygon439" />
      <polygon
         transform="translate(-526.76328,143.12496)"
         style="fill:#333333"
         points="120.556,473.064 153.567,515.736 129.925,430.605 117.919,433.533 115.285,462.812 124.654,465.158 "
         id="polygon441" />
      <path
         style="fill:#212121"
         inkscape:connector-curvature="0"
         d="m -373.50828,658.40996 -0.067,74.205 c 0.852,-0.014 1.701,-0.037 2.55,-0.068 l 0,-76.893 -2.483,2.756 z"
         id="path443" />
      <polygon
         transform="translate(-526.76328,143.12496)"
         style="fill:#212121"
         points="186.972,474.687 153.185,515.635 176.657,432.447 188.725,435.107 192.012,464.322 182.697,466.875 "
         id="polygon445" />
      <polygon
         transform="translate(-526.76328,143.12496)"
         style="fill:#333333"
         points="184.759,473.248 152.742,516.447 174.33,431.462 186.678,434.289 189.801,462.882 180.485,465.435 "
         id="polygon447" />
      <g
         transform="translate(-526.76328,143.12496)"
         id="g449">
        <polygon
           style="fill:#a3a3a3"
           points="121.763,462.326 118.901,462.326 118.901,468.251 119.878,468.251 119.878,470.642 120.861,470.642 120.861,468.251 121.763,468.251 "
           id="polygon451" />
        <rect
           style="fill:#212121"
           x="111.122"
           y="470.845"
           width="20.848"
           height="12.877"
           id="rect453" />
        <rect
           style="fill:#ffffff"
           x="110.509"
           y="469.92499"
           width="20.848"
           height="12.877"
           id="rect455" />
        <path
           style="fill:#a3a3a3"
           inkscape:connector-curvature="0"
           d="m 126.962,474.576 c 0,0.141 -0.114,0.256 -0.256,0.256 l -10.321,0 c -0.142,0 -0.256,-0.115 -0.256,-0.256 l 0,0 c 0,-0.141 0.114,-0.256 0.256,-0.256 l 10.321,0 c 0.142,0 0.256,0.115 0.256,0.256 l 0,0 z"
           id="path457" />
        <path
           style="fill:#a3a3a3"
           inkscape:connector-curvature="0"
           d="m 126.962,475.802 c 0,0.139 -0.114,0.256 -0.256,0.256 l -10.321,0 c -0.142,0 -0.256,-0.117 -0.256,-0.256 l 0,0 c 0,-0.141 0.114,-0.256 0.256,-0.256 l 10.321,0 c 0.142,0 0.256,0.116 0.256,0.256 l 0,0 z"
           id="path459" />
        <path
           style="fill:#a3a3a3"
           inkscape:connector-curvature="0"
           d="m 126.962,477.029 c 0,0.139 -0.114,0.254 -0.256,0.254 l -10.321,0 c -0.142,0 -0.256,-0.115 -0.256,-0.254 l 0,0 c 0,-0.141 0.114,-0.256 0.256,-0.256 l 10.321,0 c 0.142,0 0.256,0.115 0.256,0.256 l 0,0 z"
           id="path461" />
      </g>
      <path
         style="fill:#ea9f60"
         inkscape:connector-curvature="0"
         d="m -327.64328,661.85196 c 0,0 -0.273,1.865 -3.989,1.623 -3.717,-0.24 -5.133,-0.127 -5.133,-0.127 l -3.62,1.301 c 0,0 -5.889,0.484 -5.454,-1.398 0.434,-1.883 5.889,-3.137 5.889,-3.137 0,0 1.158,-0.242 2.365,-0.289 1.206,-0.051 4.738,0.498 5.655,0.547 0.917,0.049 4.287,1.48 4.287,1.48 z"
         id="path463" />
      <path
         style="fill:#ea9f60"
         inkscape:connector-curvature="0"
         d="m -321.36728,660.20896 c 0,0 -1.303,2.928 -5.357,1.385 -4.055,-1.545 -6.726,-2.012 -7.723,-2.156 -1.013,-0.146 -4.975,0.518 -7.386,1.375 -2.411,0.857 -5.214,-2.342 -2.316,-3.645 2.896,-1.303 5.705,-1.773 6.622,-2.064 0.917,-0.289 2.558,-0.434 3.813,0 1.255,0.435 12.347,5.105 12.347,5.105 z"
         id="path465" />
      <path
         style="fill:#ea9f60"
         inkscape:connector-curvature="0"
         d="m -343.61928,652.24396 c 0,0 5.199,-2.182 6.165,-2.52 0.965,-0.338 2.268,-0.482 4.296,0 2.026,0.482 3.717,1.154 6.481,2.684 2.109,1.168 5.744,3.168 5.744,3.168 0,0 -1.771,2.719 -5.068,1.254 -3.476,-1.545 -7.675,-2.936 -8.882,-2.752 -1.206,0.186 -6.468,2.318 -6.468,2.318 0,0 -1.834,-0.917 -2.268,-4.152 z"
         id="path467" />
      <path
         style="fill:#ea9f60"
         inkscape:connector-curvature="0"
         d="m -339.95028,651.63696 c 0.28,-0.207 2.22,-2.432 2.605,-3.205 0.387,-0.771 2.968,-1.398 3.97,-1.352 1.003,0.049 4.063,0.279 4.961,0.193 1.496,-0.145 2.702,-1.545 2.702,-2.703 -1.641,-0.434 -6.806,-1.303 -8.977,-1.256 -2.173,0.049 -3.916,0.25 -4.641,0.395 -0.725,0.145 -1.297,0.862 -2.021,1.633 -0.587,0.627 -2.386,3.289 -3.441,4.656 -0.244,0.318 -0.45,0.566 -0.591,0.703 -0.746,0.725 1.378,3.93 5.433,0.936 z"
         id="path469" />
      <path
         style="fill:#ea9f60"
         inkscape:connector-curvature="0"
         d="m -344.39128,649.97696 c 0,0 -0.918,0.482 -2.752,1.93 -1.834,1.449 -8.64,7.725 -10.764,8.545 -2.124,0.82 -3.669,2.559 -1.834,3.33 1.834,0.771 15.155,1.592 16.7,0.58 1.545,-1.014 3.09,-5.697 3.09,-5.697 l -0.387,-5.309 c 10e-4,-10e-4 -0.433,-3.137 -4.053,-3.379 z"
         id="path471" />
      <path
         style="fill:#e25c52"
         inkscape:connector-curvature="0"
         d="m -325.53628,644.34596 -3.54,-0.467 c 0,0 -0.198,0.286 -0.107,0.663 0.091,0.377 2.813,0.75 3.148,0.578 0.335,-0.171 0.499,-0.774 0.499,-0.774 z"
         id="path473" />
      <path
         style="fill:#e25c52"
         inkscape:connector-curvature="0"
         d="m -320.88828,655.53096 -3.152,-1.68 c 0,0 -0.285,0.199 -0.333,0.582 -0.046,0.385 2.371,1.689 2.745,1.646 0.374,-0.043 0.74,-0.548 0.74,-0.548 z"
         id="path475" />
      <path
         style="fill:#e25c52"
         inkscape:connector-curvature="0"
         d="m -321.31828,660.22896 -3.29,-1.389 c 0,0 -0.267,0.223 -0.278,0.609 -0.011,0.386 2.514,1.467 2.883,1.393 0.368,-0.076 0.685,-0.613 0.685,-0.613 z"
         id="path477" />
      <path
         style="fill:#e25c52"
         inkscape:connector-curvature="0"
         d="m -327.43528,661.69696 -2.81,-0.885 c 0,0 -0.202,0.203 -0.182,0.523 0.02,0.318 2.179,1.01 2.476,0.918 0.297,-0.089 0.516,-0.556 0.516,-0.556 z"
         id="path479" />
      <path
         style="fill:#333333"
         inkscape:connector-curvature="0"
         d="m -437.45028,673.88296 c 4.189,1.604 18.106,4.799 42.386,3.402 -0.342,-6.594 0.673,-13.85 2.338,-18.424 -6.263,-1.877 -29.793,-9.813 -29.793,-9.813 0,0 -19.976,22.905 -14.931,24.835 z"
         id="path481" />
      <path
         style="fill:#ea9f60"
         inkscape:connector-curvature="0"
         d="m -430.29928,643.37596 c -2.743,0.412 -3.707,-1.68 -3.472,-2.117 2.146,-0.574 5.825,-1.725 8.623,-2.174 0.833,-0.135 2.508,-0.26 3.603,0.258 1.094,0.518 7.076,4.205 9.38,6.108 2.305,1.9 7.778,9.609 12.329,11.084 4.552,1.475 9.563,2.627 9.563,2.627 l -2.534,8.41 c 0,0 -8.182,-0.115 -9.621,0 -1.44,0.115 -5.07,1.201 -7.951,0.221 -2.88,-0.979 -5.415,-2.822 -8.238,-4.607 -2.822,-1.787 -3.054,-2.354 -4.494,-2.525 -1.439,-0.174 -3.51,-0.66 -5.37,-0.775 -1.861,-0.115 -2.195,-0.291 -3.334,-0.422 -2.683,-0.307 -3.828,-1.758 -3.453,-2.527 0.171,-0.35 11.092,-0.15 11.841,-0.383 0.749,-0.229 2.045,-0.984 0.202,-1.752 -1.844,-0.766 -3.394,-1.795 -5.007,-1.738 -1.613,0.059 -4.062,0.506 -4.342,0.576 -1.081,0.268 -2.81,-0.523 -2.867,-2.02 2.208,-0.65 4.816,-1.473 5.878,-1.732 1.387,-0.34 2.881,-0.186 5.301,0.627 2.419,0.814 3.064,1.154 3.166,0.91 0.435,-1.049 -4.406,-3.219 -5.891,-3.42 -1.249,-0.17 -3.143,0.807 -5.518,0.652 -1.84,-0.191 -2.953,-1.531 -2.262,-2.451 2.069,-0.441 6.067,-2.196 7.68,-1.967 1.614,0.232 5.015,1.387 6.499,2.143 1.13,0.574 3.238,1.719 3.123,1.086 -0.115,-0.635 -3.726,-3.125 -5.396,-4.393 -1.672,-1.269 -7.438,0.301 -7.438,0.301 z"
         id="path483" />
      <path
         style="fill:#ededed"
         inkscape:connector-curvature="0"
         d="m -361.64828,661.53696 4.752,-2.309 c 0,0 3.832,1.73 5.442,3.492 1.609,1.762 -10.194,-1.183 -10.194,-1.183 z"
         id="path485" />
      <path
         style="fill:#ededed"
         inkscape:connector-curvature="0"
         d="m -393.22628,656.73796 -2.222,0 c 0,0 -1.84,3.602 -2.453,7.359 -0.613,3.757 -0.46,13.797 -0.384,14.105 0.077,0.307 3.491,0.535 3.491,0.535 l 1.568,-21.999 z"
         id="path487" />
      <path
         style="fill:#333333"
         inkscape:connector-curvature="0"
         d="m -396.86528,669.49596 c 0.208,7.916 -0.007,9.846 -0.007,9.846 0,0 37.255,3.916 47.513,4.037 10.551,0.123 26.728,0.803 32.471,-4.717 5.55,-5.332 6.496,-32.354 7.068,-43.676 -3.235,34.479 -22.699,28.516 -25.801,28.334 -1.93,-0.111 -4.359,-0.488 -23.326,-2.477 -18.967,-1.986 -34.791,-4.938 -34.791,-4.938 0,0 -3.335,5.675 -3.127,13.591 z"
         id="path489" />
      <path
         style="fill:#e25c52"
         inkscape:connector-curvature="0"
         d="m -434.22828,641.29396 3.462,-0.871 c 0,0 0.23,0.26 0.183,0.643 -0.047,0.385 -2.708,1.07 -3.06,0.939 -0.352,-0.132 -0.585,-0.711 -0.585,-0.711 z"
         id="path491" />
      <path
         style="fill:#e25c52"
         inkscape:connector-curvature="0"
         d="m -435.32328,646.29296 3.442,-0.947 c 0,0 0.236,0.254 0.197,0.641 -0.039,0.385 -2.684,1.127 -3.039,1.004 -0.355,-0.123 -0.6,-0.698 -0.6,-0.698 z"
         id="path493" />
      <path
         style="fill:#e25c52"
         inkscape:connector-curvature="0"
         d="m -435.65928,651.61096 3.194,-0.879 c 0,0 0.219,0.238 0.183,0.596 -0.035,0.357 -2.49,1.045 -2.819,0.93 -0.33,-0.113 -0.558,-0.647 -0.558,-0.647 z"
         id="path495" />
      <path
         style="fill:#e25c52"
         inkscape:connector-curvature="0"
         d="m -435.31128,656.75196 2.7,-0.014 c 0,0 0.121,0.232 0.018,0.508 -0.104,0.273 -2.182,0.293 -2.417,0.133 -0.234,-0.16 -0.301,-0.627 -0.301,-0.627 z"
         id="path497" />
      <circle
         style="fill:#212121"
         cx="-380.56229"
         cy="694.08594"
         r="3.0220001"
         id="circle499" />
      <circle
         style="fill:#212121"
         cx="-380.56229"
         cy="712.47992"
         r="3.0220001"
         id="circle501" />
    </g>
  </g>
</svg>
